<?xml version="1.0" encoding="utf-8"?>
<!-- Generator: Adobe Illustrator 26.0.1, SVG Export Plug-In . SVG Version: 6.00 Build 0)  -->
<svg version="1.1" id="Capa_1" xmlns="http://www.w3.org/2000/svg" xmlns:xlink="http://www.w3.org/1999/xlink" x="0px" y="0px"
	 viewBox="0 0 48.127 48.127" enable-background="new 0 0 48.127 48.127" xml:space="preserve">
<circle fill="#07B7A9" cx="24.064" cy="24.064" r="24.064"/>
<g id="KfvCN6_00000021811541605550360780000014769455019544628875_">
	<g>
		<path fill="#FFFFFF" d="M21.132,23.788c0-0.12,0-0.218,0-0.315c0-3.131-0.001-6.263,0.002-9.394c0-0.175,0.009-0.355,0.05-0.524
			c0.126-0.514,0.579-0.877,1.125-0.882c1.171-0.011,2.343-0.014,3.514,0.001c0.666,0.008,1.129,0.504,1.17,1.203
			c0.005,0.076,0.002,0.153,0.002,0.23c0,3.116,0,6.232,0,9.348c0,0.099,0,0.198,0,0.333c0.092,0,0.173,0,0.253,0
			c0.72,0,1.439,0.004,2.159-0.002c0.278-0.002,0.505,0.077,0.612,0.349c0.102,0.259,0.002,0.473-0.187,0.662
			c-1.75,1.747-3.498,3.497-5.248,5.244c-0.339,0.339-0.705,0.338-1.046-0.003c-1.75-1.747-3.497-3.497-5.248-5.244
			c-0.19-0.19-0.286-0.404-0.182-0.663c0.105-0.26,0.322-0.346,0.592-0.344c0.72,0.004,1.439,0.001,2.159,0.001
			C20.943,23.788,21.026,23.788,21.132,23.788z"/>
		<path fill="#FFFFFF" d="M16.751,32.381c4.883,0,9.736,0,14.626,0c0-0.091-0.001-0.179,0-0.267
			c0.009-0.773-0.016-1.548,0.037-2.318c0.051-0.74,0.697-1.294,1.44-1.321c0.756-0.027,1.414,0.486,1.557,1.223
			c0.027,0.142,0.037,0.289,0.037,0.434c0.003,1.218,0.002,2.435,0.001,3.653c-0.001,1.041-0.634,1.677-1.673,1.678
			c-5.805,0.001-11.61,0.001-17.416,0c-1.054,0-1.681-0.633-1.682-1.691c-0.001-1.233-0.005-2.466,0.001-3.699
			c0.005-0.979,0.733-1.664,1.676-1.592c0.798,0.061,1.384,0.729,1.393,1.603c0.007,0.674,0.001,1.348,0.002,2.022
			C16.751,32.188,16.751,32.272,16.751,32.381z"/>
	</g>
</g>
</svg>
