<?xml version="1.0" encoding="utf-8"?>
<!-- Generator: Adobe Illustrator 26.0.1, SVG Export Plug-In . SVG Version: 6.00 Build 0)  -->
<svg version="1.1" id="Capa_1" xmlns="http://www.w3.org/2000/svg" xmlns:xlink="http://www.w3.org/1999/xlink" x="0px" y="0px"
	 viewBox="0 0 48.127 48.127" enable-background="new 0 0 48.127 48.127" xml:space="preserve">
<circle fill="#07B7A9" cx="24.064" cy="24.064" r="24.064"/>
<path id="home_00000000207848444799832460000004288261616896647340_" fill="#FFFFFF" d="M13.29,32.432V19.218
	c0-0.736,0.402-1.413,1.048-1.766l9.277-5.06c0.6-0.327,1.326-0.327,1.926,0l9.277,5.06c0.646,0.352,1.048,1.03,1.048,1.766v13.214
	c0,1.111-0.9,2.011-2.011,2.011h-4.187c-1.111,0-2.011-0.9-2.011-2.011v-4.187c0-1.111-0.9-2.011-2.011-2.011h-2.135
	c-1.111,0-2.011,0.9-2.011,2.011v4.187c0,1.111-0.9,2.011-2.011,2.011h-4.187C14.19,34.443,13.29,33.543,13.29,32.432z"/>
</svg>
