<?xml version="1.0" encoding="utf-8"?>
<!-- Generator: Adobe Illustrator 26.0.1, SVG Export Plug-In . SVG Version: 6.00 Build 0)  -->
<svg version="1.1" id="Capa_1" xmlns="http://www.w3.org/2000/svg" xmlns:xlink="http://www.w3.org/1999/xlink" x="0px" y="0px"
	 viewBox="0 0 170.66 187.916" enable-background="new 0 0 170.66 187.916" xml:space="preserve">
<g opacity="0.1">
	
		<ellipse transform="matrix(0.9239 -0.3827 0.3827 0.9239 -32.7626 40.4632)" fill="#07B7A9" cx="85.33" cy="102.586" rx="79.83" ry="79.83"/>
	<path fill="#07B7A9" d="M85.33,28.256c41.051,0,74.33,33.279,74.33,74.33c0,41.051-33.279,74.33-74.33,74.33S11,143.638,11,102.586
		C11,61.535,44.279,28.256,85.33,28.256 M85.33,17.256C38.279,17.256,0,55.535,0,102.586c0,47.051,38.279,85.33,85.33,85.33
		s85.33-38.279,85.33-85.33C170.66,55.535,132.381,17.256,85.33,17.256L85.33,17.256z"/>
</g>
<g>
	<g>
		<g>
			<path fill="#F5CD55" d="M72.092,23.628c-0.144,1.033-1.435,1.421-2.119,0.633c-3.365-3.876-10.027-12.569-3.614-14.136
				C73.416,8.402,72.777,18.711,72.092,23.628z"/>
		</g>
		<g>
			<path fill="#F5CD55" d="M98.911,25.515c-0.848,0.608-2.019-0.061-1.919-1.1c0.491-5.109,2.202-15.927,7.756-12.358
				C110.858,15.984,102.946,22.624,98.911,25.515z"/>
		</g>
		<g>
			<path fill="#F5CD55" d="M86.796,22.891c-0.771,1.373-2.82,1.167-3.36-0.344c-2.657-7.431-4.394-22.046,2.616-22.046
				C93.534,0.501,90.466,16.356,86.796,22.891z"/>
		</g>
	</g>
</g>
<g>
	<g>
		<g>
			<path fill="#FFFFFF" d="M110.395,158.805c-0.544,0-1.05-0.15-1.503-0.447c-0.426-0.277-0.729-0.604-0.949-0.843
				c-0.094-0.101-0.238-0.255-0.293-0.287c-0.052-0.025-0.097-0.041-0.141-0.059c-0.243-0.095-0.598-0.232-0.983-0.536
				c-0.002-0.002-0.083-0.062-0.086-0.063c-0.221-0.163-0.554-0.41-0.822-0.797c-0.022-0.033-0.043-0.065-0.063-0.098
				c-0.183-0.062-0.371-0.131-0.548-0.215c-0.334-0.16-0.651-0.37-0.978-0.647l-0.144-0.126c-0.28-0.258-0.485-0.482-0.623-0.646
				c-0.667-0.785-0.657-1.654-0.637-2.113c-0.033-0.01-0.078-0.023-0.133-0.037c-0.075-0.019-0.145-0.026-0.212-0.035
				c-0.412-0.057-1.181-0.162-1.88-0.888c-0.122-0.126-0.237-0.262-0.348-0.394c-0.089-0.106-0.2-0.237-0.246-0.274
				c-0.001,0-0.002,0-0.003,0c-0.02,0-0.104-0.025-0.186-0.053c-0.504-0.169-1.438-0.481-2-1.505
				c-0.014-0.025-0.027-0.05-0.039-0.074c-0.193-0.057-0.366-0.11-0.525-0.17l-0.26-0.103c-0.25-0.1-0.494-0.199-0.746-0.268
				c-0.682-0.188-1.001-0.413-1.386-0.792l1.182-1.438l-1.276,1.346c-0.051-0.034-0.29-0.122-0.448-0.181
				c-0.271-0.099-0.527-0.198-0.769-0.32c-0.632-0.319-1.29-0.473-1.906-0.591c-0.893-0.172-1.959-0.377-2.912-1.098
				c-0.222-0.168-0.428-0.362-0.624-0.556c-0.096-0.094-0.188-0.194-0.304-0.274c-0.63-0.439-1.175-0.819-1.795-1.069
				c-0.351-0.142-0.632-0.313-0.859-0.451c-0.11-0.067-0.21-0.132-0.319-0.185c-0.148-0.07-0.302-0.134-0.452-0.196
				c-0.355-0.146-0.728-0.3-1.108-0.518c-0.184-0.105-0.361-0.181-0.531-0.256c-0.367-0.16-0.729-0.326-1.097-0.579l-0.176-0.127
				c-0.369-0.293-0.63-0.572-0.856-0.899c-0.234-0.338-0.374-0.672-0.476-0.916c-0.008-0.021-0.017-0.04-0.024-0.061
				c-0.386-0.142-0.819-0.357-1.25-0.902c-0.199-0.251-0.355-0.404-0.596-0.586c-0.215-0.162-0.396-0.328-0.583-0.505l-0.218-0.202
				c-0.096-0.084-0.206-0.173-0.314-0.26c-0.337-0.271-0.672-0.539-0.984-0.88c-0.477-0.52-0.693-1.083-0.852-1.495
				c-0.057-0.148-0.123-0.317-0.168-0.389l-0.146-0.213c-0.086-0.123-0.167-0.239-0.243-0.358c-0.613-0.196-1.493-0.718-1.553-2.088
				c-0.074-0.129-0.138-0.256-0.198-0.409c-0.356-0.897-0.112-1.589,0.065-1.921c0.147-0.275,0.475-0.728,1.124-0.991
				c0.011-0.067,0.014-0.121,0.01-0.156c-0.01-0.007-0.044-0.047-0.115-0.111l-0.089-0.078c-0.079-0.066-0.187-0.149-0.293-0.232
				c-0.528-0.406-1.255-0.964-1.626-1.955c-0.279-0.743-0.627-1.67-1.113-2.446l-0.083-0.133c-0.052-0.079-0.127-0.188-0.208-0.295
				l-0.033-0.01c-0.19-0.159-0.357-0.311-0.502-0.48c-0.132-0.156-0.245-0.316-0.359-0.489c-0.037-0.055-0.067-0.103-0.102-0.148
				c-0.383-0.508-0.692-0.939-0.975-1.415c-0.055-0.093-0.153-0.271-0.191-0.372l-0.737-1.954c-0.327-0.448-0.606-0.902-0.878-1.344
				l-0.065-0.105c-0.017-0.007-0.034-0.014-0.051-0.021c-0.374-0.154-1.07-0.442-1.539-1.188c-0.314-0.497-0.37-1.007-0.403-1.311
				l-0.015-0.124c-0.044-0.124-0.177-0.374-0.317-0.638c-0.163-0.307-0.366-0.688-0.521-1.118c-0.113-0.313-0.238-0.583-0.405-0.873
				l-0.066-0.113c-0.089-0.148-0.192-0.31-0.304-0.478c-0.178-0.267-0.374-0.533-0.563-0.79c-0.25-0.341-0.506-0.694-0.737-1.047
				c-0.454-0.697-0.699-1.398-0.896-2.051l-0.11-0.376c-0.152-0.523-0.296-1.019-0.496-1.362c-0.249-0.43-0.392-0.833-0.518-1.209
				c-0.011-0.016-0.04-0.058-0.068-0.104c-0.09-0.146-0.18-0.297-0.264-0.467c-0.142-0.29-0.246-0.569-0.342-0.843
				c-0.115-0.324-0.163-0.445-0.245-0.542l-0.243-0.267c-0.392-0.414-1.243-1.314-1.043-2.759c0,0,0.043-0.292,0.045-0.303
				c-0.427-0.455-0.88-0.964-1.263-1.654l-0.164-0.3c-0.295-0.548-0.364-0.654-0.577-0.792c-1.12-0.728-1.716-1.816-2.11-2.684
				c-0.086-0.19-0.162-0.382-0.234-0.569c-0.09-0.23-0.176-0.451-0.26-0.567c-0.062-0.087-0.131-0.165-0.196-0.241
				c-0.118-0.141-0.19-0.228-0.258-0.315c-0.053-0.067-0.102-0.136-0.15-0.203c-0.044-0.062-0.084-0.127-0.12-0.194l-0.005-0.006
				c-0.043-0.056-0.083-0.114-0.119-0.175c-0.197-0.326-0.361-0.665-0.518-0.998c-0.216-0.458-0.387-0.82-0.646-1.061
				c-0.155-0.143-0.307-0.3-0.453-0.452c-0.147-0.153-0.375-0.39-0.466-0.431c-0.661-0.243-1.163-0.591-1.566-0.869
				c-0.16-0.11-0.323-0.225-0.5-0.328c-0.167-0.099-0.331-0.181-0.504-0.268l-0.196-0.1c-0.331-0.17-0.655-0.357-0.976-0.555
				l-0.192-0.119c-0.274-0.174-0.536-0.345-0.789-0.515c-0.069-0.028-0.177-0.045-0.279-0.071c-0.345-0.088-0.798-0.203-1.261-0.484
				c-0.978-0.594-1.531-1.7-1.376-2.754c0.136-0.903,0.768-1.615,1.663-1.889c-0.058-0.052-0.125-0.111-0.191-0.17
				c-0.33-0.293-0.739-0.655-1.069-1.193c-0.351-0.575-0.603-1.478-0.312-2.322c-0.128-0.104-0.258-0.219-0.377-0.346
				c-0.634-0.676-1.202-1.891-0.316-3.852l0.108-0.243c0.17-0.385,0.352-0.799,0.618-1.226c0.246-0.395,0.519-0.665,0.737-0.883
				c0.076-0.074,0.149-0.14,0.211-0.216l0.044-0.067c0.062-0.095,0.118-0.19,0.17-0.286c0.108-0.196,0.214-0.384,0.33-0.557
				c0.096-0.145,0.181-0.286,0.263-0.424c0.392-0.652,0.874-1.456,1.952-2.042c0.25-0.135,0.517-0.246,0.777-0.347
				c0.128-0.051,0.328-0.13,0.387-0.171c0.203-0.285,0.797-1.064,1.875-1.064c0.206,0,0.492,0.049,0.687,0.116
				c1.143,0.421,1.413,1.501,1.501,1.856c0.079,0.285,0.16,0.531,0.237,0.769c0.119,0.366,0.229,0.709,0.315,1.042
				c0.092,0.355,0.242,1.276-0.386,2.049c0.334,0.124,0.581,0.294,0.741,0.406c0.083,0.004,0.2,0.002,0.308,0.005l0.28,0.011
				c0.012-0.002,0.063-0.008,0.116-0.013c0.162-0.014,0.333-0.026,0.49-0.026c0.3,0,0.568,0.039,0.82,0.119
				c1.37,0.439,1.724,1.862,1.895,2.546c0.012,0.049,0.022,0.093,0.032,0.132c0.349-0.728,1.013-1.15,1.513-1.418
				c0.018-0.343,0.106-0.6,0.155-0.743c0.109-0.361,0.211-0.676,0.311-0.98c0.104-0.319,0.208-0.639,0.303-0.96l0.056-0.197
				c0.088-0.316,0.185-0.667,0.37-1.051c0.192-0.401,0.444-0.676,0.624-0.863c0.001-0.029,0.021-0.384,0.021-0.384
				c0.033-0.516,0.09-1.42,0.807-2.059c0.294-0.263,0.592-0.408,0.86-0.485c0.077-0.129,0.166-0.255,0.267-0.382
				c0.455-0.572,0.98-0.996,1.403-1.336c0.163-0.131,0.329-0.265,0.487-0.405c0.027-0.023,0.186-0.15,0.208-0.167l0.124-0.089
				c0.469-0.304,0.87-0.454,1.162-0.563l0.14-0.053c0.308-0.119,0.62-0.221,0.924-0.317c0.575-0.184,0.993-0.316,1.331-0.534
				c0.507-0.327,1.086-0.547,1.477-0.685c0.425-0.15,0.841-0.244,1.208-0.326l0.374-0.085c1.123-0.271,2.244-0.995,3.42-2.209
				l0.352-0.37c0.188-0.199,0.38-0.403,0.572-0.596c0.25-0.251,0.513-0.481,0.768-0.702c0.288-0.25,0.56-0.485,0.758-0.725
				c0.145-0.175,0.295-0.337,0.441-0.491c0.139-0.147,0.333-0.354,0.353-0.424c0.015-0.071,0.015-0.154,0.02-0.233
				c0.011-0.155,0.023-0.313,0.044-0.469c0.064-0.462,0.201-0.82,0.3-1.082l0.061-0.163c-0.003,0.007-0.005,0.01-0.006,0.01
				c-0.005,0,0.004-0.051,0.015-0.106c0.217-1.163,0.65-1.944,1.291-2.336c0.002-0.167,0.002-0.355-0.017-0.42
				c-0.106-0.151-0.213-0.333-0.314-0.51c-0.054-0.095-0.131-0.229-0.184-0.306l-0.024-0.012c-0.586-0.298-1.659-0.84-1.765-2.066
				c-0.063-0.701,0.244-1.366,0.844-1.817c0.403-0.298,0.863-0.451,1.342-0.451c0.414,0,0.766,0.113,1.047,0.242
				c0.327-0.252,0.792-0.496,1.413-0.496c0.422,0,0.84,0.118,1.241,0.35c0.128,0.074,0.235,0.146,0.333,0.22
				c0.461,0.1,0.755,0.222,1.119,0.468c0.218,0.047,0.514,0.131,0.823,0.32c0.442,0.273,0.686,0.624,0.824,0.907
				c0.014,0.008,0.027,0.015,0.042,0.022c0.598,0.326,0.963,0.724,1.256,1.043L87,46.855c0.444,0.462,1.045,1.087,1.201,2.258
				c0.018,0.13,0.029,0.266,0.039,0.406c0.327,0.066,0.778,0.197,1.2,0.536c0.241,0.193,0.407,0.396,0.521,0.55
				c0.057,0.014,0.1,0.019,0.132,0.021l0.141,0.003c0.422,0.008,1.192,0.021,1.914,0.62c0.86,0.716,1.127,1.976,1.116,2.89
				c0.71,0.02,1.338,0.315,1.775,0.839c0.559,0.672,0.578,1.442,0.586,1.812l-0.011,0.002c0.085,0.251,0.185,0.549,0.207,0.933
				c0.008,0.135,0.004,0.262-0.007,0.379c0.035,0.028,0.068,0.055,0.099,0.08c0.082-0.021,0.489-0.133,0.489-0.133
				c0.266-0.141,0.712-0.363,1.334-0.372c0,0,0,0,0.001,0c0.621,0,1.073,0.205,1.334,0.333c0.081-0.008,0.176-0.019,0.273-0.032
				c0.182-0.156,0.395-0.32,0.675-0.456c0.043-0.021,0.085-0.04,0.127-0.058c0.432-0.692,1.064-1.019,1.936-1.039
				c0.002,0,0.004,0,0.005,0c1.139,0,2.048,0.483,2.712,0.836l0.174,0.093c0.082,0.043,0.158,0.089,0.229,0.138
				c0.051-0.028,0.099-0.057,0.141-0.087c0.271-0.279,0.747-0.767,1.694-0.858c0.122-0.012,0.234-0.017,0.342-0.017
				c0.681,0,1.65,0.218,2.425,1.25c0.15,0.018,0.292,0.048,0.43,0.09c0.38,0.118,0.661,0.304,0.86,0.479
				c0.004-0.001,0.008-0.001,0.012-0.001c0.185,0,0.353,0.015,0.488,0.036c0.95,0.148,1.409,0.686,1.62,0.954l0.038,0.021
				c0.374,0.196,1.128,0.593,1.46,1.491c0.321,0.872,0.092,1.886-0.612,2.712c-0.234,0.275-0.497,0.542-0.754,0.8
				c-0.29,0.289-0.566,0.565-0.767,0.834c-0.326,0.438-0.651,0.871-0.998,1.303c0.795,0.351,1.269,1.033,1.534,1.416
				c0.06,0.086,0.113,0.167,0.172,0.238c0.062,0.065,0.163,0.145,0.266,0.231c0.579,0.493,1.539,1.312,1.533,2.613
				c-0.004,1.262-1.016,2.252-2.304,2.252c-0.214,0-0.429-0.028-0.64-0.084c-0.079-0.021-0.151-0.044-0.218-0.069
				c-0.017,0.001-0.034,0.001-0.051,0.001c-0.167,0-0.425-0.034-0.586-0.079c-0.729-0.205-1.189-0.672-1.478-0.987
				c-0.123,0.017-0.24,0.024-0.361,0.024c-0.077,0-0.154-0.003-0.23-0.01c-0.109,0.078-0.219,0.154-0.327,0.228
				c-0.135,0.092-0.245,0.167-0.349,0.245c-0.056,0.041-0.097,0.08-0.139,0.117c-0.277,0.243-0.733,0.644-1.445,0.811
				c-0.3,0.069-0.61,0.103-0.954,0.103c-0.227,0-0.46-0.016-0.686-0.033c-0.134-0.01-0.273-0.021-0.411-0.021
				c-0.094,0-0.132,0.008-0.132,0.008c-0.579,0.255-1.067,0.442-1.879,0.48c-0.23,0.01-0.319,0.035-0.471,0.103
				c-1.168,0.524-2.089,1-2.899,1.497c-0.224,0.136-0.459,0.261-0.687,0.38c-0.271,0.141-0.547,0.284-0.686,0.409
				c-0.455,0.407-0.877,0.687-1.436,0.94c0.009,0.073,0.021,0.145,0.03,0.215c0.093,0.643,0.232,1.612-0.383,2.738
				c-0.286,0.525-0.651,0.938-0.946,1.271c-0.147,0.166-0.287,0.323-0.391,0.463c0.219,0.393,0.529,1.005,0.488,1.828
				c-0.105,2.094-2,2.647-2.713,2.856c-0.137,0.04-0.276,0.076-0.397,0.127c-0.477,0.197-1.014,0.598-1.225,0.854
				c0.003,0.006,0.006,0.012,0.01,0.018c0.885,1.509,0.338,2.507-0.089,2.985c1.084,0.82,1.167,1.721,1.046,2.331
				c0.17,0.24,0.318,0.549,0.386,0.945c0.019,0.108,0.03,0.211,0.035,0.306c0.108,0.127,0.216,0.283,0.308,0.473
				c0.019,0.038,0.035,0.075,0.051,0.112c0.205,0.11,0.422,0.262,0.625,0.482c0.353,0.383,0.517,0.797,0.616,1.079
				c0.289,0.157,0.715,0.414,1.051,0.906c0.239,0.348,0.38,0.706,0.484,0.967c0.03,0.077,0.055,0.146,0.083,0.209
				c0.012,0.015,0.022,0.026,0.022,0.026c0.248,0.284,0.71,0.813,0.735,1.604c0.006,0.201-0.012,0.389-0.049,0.562
				c0.837,0.027,1.563,0.119,2.185,0.271c1.627,0.404,1.905,1.74,1.996,2.179c0.004,0.019,0.007,0.037,0.011,0.056
				c0.182,0.24,0.363,0.535,0.479,0.911c0.291-0.058,0.569-0.108,0.853-0.124c0.323-0.018,0.646-0.046,0.958-0.074
				c0.335-0.029,0.661-0.058,0.98-0.076c0.302-0.018,0.472-0.086,0.965-0.297l0.298-0.127c0.155-0.063,0.284-0.107,0.405-0.143
				c0.006-0.012,0.117-0.209,0.164-0.287c0.565-0.939,1.392-1.661,2.324-2.024c0.268-0.105,0.689-0.233,1.153-0.233
				c0.749,0,1.396,0.336,1.778,0.92c0.235,0.368,0.547,1.114,0.089,2.124c-0.033,0.072-0.068,0.141-0.104,0.203
				c0.093,0.816-0.285,1.413-0.532,1.73c-0.007,0.211-0.001,0.45,0.005,0.686l0.009,0.459c0,0,0.026,2.847,0.03,3.502
				c0.047,0.025,0.092,0.052,0.135,0.079c0.686-0.35,1.428-0.677,2.528-0.677l0.5-0.003c0.755,0,1.624,0.051,2.336,0.424
				c1.217,0.64,1.9,1.961,2.138,2.499c0.208,0.472,0.448,0.935,0.68,1.382c0.242,0.468,0.493,0.953,0.716,1.448
				c0.111,0.244,0.218,0.498,0.322,0.743c0.189,0.448,0.367,0.87,0.573,1.239c0.185,0.33,0.31,0.649,0.411,0.907
				c0.082,0.208,0.152,0.386,0.226,0.506c0.077,0.126,0.179,0.254,0.283,0.392c0.544,0.718,1.814,2.394,0.666,4.197
				c-0.441,0.694-1.062,0.978-1.529,1.114c0.006,0.091,0.016,0.185,0.024,0.27c0.05,0.524,0.049,1.034,0.048,1.483l0,0.214
				c0.001,0.05,0.008,0.112,0.013,0.179c0.03,0.366,0.072,0.87-0.089,1.396c-0.076,0.247-0.184,0.452-0.296,0.619
				c0.058,0.202,0.09,0.374,0.119,0.541l0.011,0.06c0.671,1.298,0.651,2.504-0.057,3.59c-0.088,0.136-0.188,0.267-0.289,0.393
				c-0.01,0.012-0.019,0.023-0.027,0.034c-0.056,0.25-0.176,0.572-0.445,0.893c-0.224,0.268-0.483,0.438-0.694,0.549
				c-0.032,0.089-0.066,0.178-0.106,0.269c-0.154,0.347-0.357,0.6-0.551,0.783c0.02,0.055,0.04,0.107,0.059,0.159l0.017,0.013
				c0.948,0.751,1.264,1.917,0.781,2.898c-0.261,0.53-0.688,0.841-0.992,1.036c-0.035,0.338-0.112,0.586-0.171,0.761l0.022,0.124
				c0.06,0.339,0.179,1.012,0.323,1.275c0.06,0.012,0.123,0.022,0.187,0.034c0.641,0.123,1.597,0.306,2.183,1.153
				c0.336,0.488,0.461,1.064,0.352,1.624c-0.153,0.806-0.715,1.281-1.095,1.55c-0.055,0.285-0.161,0.7-0.436,1.129
				c-0.186,0.291-0.386,0.504-0.547,0.676c-0.062,0.065-0.121,0.121-0.168,0.188c-0.186,0.262-0.384,0.48-0.599,0.708
				c-0.054,0.057-0.107,0.113-0.161,0.173c-0.006,0.014-0.01,0.023-0.01,0.023c-0.114,0.265-0.306,0.706-0.739,1.075
				c-0.093,0.08-0.189,0.148-0.286,0.207c0.019,0.275,0,0.524-0.017,0.728l-0.011,0.16c-0.007,0.826-0.29,1.802-1.422,2.325
				c0.097,0.644,0.154,1.918-1.019,3.05c-0.61,0.588-1.35,0.947-1.944,1.236l-0.253,0.124
				C111.793,158.496,111.172,158.805,110.395,158.805z"/>
			<path fill="#07B7A9" d="M81.109,45.111c0.094,0,0.197,0.033,0.313,0.1c0.088,0.051,0.156,0.103,0.221,0.152
				c0.135,0.103,0.263,0.2,0.514,0.247c0.392,0.074,0.456,0.102,0.757,0.327c0.135,0.101,0.276,0.127,0.413,0.152
				c0.116,0.021,0.225,0.041,0.331,0.106c0.111,0.068,0.14,0.163,0.178,0.284c0.026,0.082,0.052,0.167,0.108,0.249
				c0.131,0.192,0.308,0.274,0.479,0.354c0.057,0.027,0.116,0.054,0.175,0.086c0.331,0.18,0.541,0.408,0.785,0.673
				c0.046,0.05,0.093,0.101,0.141,0.152c0.05,0.053,0.099,0.104,0.146,0.153c0.359,0.373,0.619,0.643,0.695,1.212
				c0.019,0.143,0.027,0.289,0.036,0.443c0.022,0.387,0.044,0.786,0.25,1.131c0.133,0.223,0.447,0.271,0.699,0.31
				c0.057,0.009,0.11,0.017,0.155,0.026c0.059,0.013,0.12,0.023,0.184,0.034c0.216,0.037,0.439,0.076,0.591,0.198
				c0.111,0.089,0.182,0.191,0.257,0.299c0.112,0.16,0.228,0.326,0.473,0.433c0.332,0.144,0.65,0.224,0.973,0.243
				c0.077,0.005,0.153,0.006,0.229,0.007c0.286,0.005,0.533,0.009,0.754,0.193c0.367,0.306,0.499,1.203,0.429,1.687
				c-0.012,0.081-0.025,0.161-0.038,0.239c-0.094,0.562-0.183,1.094,0.449,1.506c0.16,0.105,0.285,0.151,0.405,0.151
				c0.121,0,0.226-0.045,0.359-0.103c0.052-0.023,0.11-0.048,0.176-0.073c0.108-0.042,0.274-0.092,0.446-0.092
				c0.187,0,0.331,0.059,0.428,0.175c0.143,0.172,0.149,0.424,0.155,0.668c0.002,0.069,0.003,0.136,0.008,0.2
				c0.012,0.16,0.056,0.291,0.1,0.418c0.042,0.124,0.082,0.24,0.09,0.378c0.008,0.14-0.031,0.276-0.073,0.421
				c-0.042,0.146-0.085,0.296-0.077,0.454c0.019,0.364,0.314,0.528,0.575,0.672l0.03,0.017c0.148,0.083,0.275,0.192,0.398,0.297
				c0.111,0.095,0.216,0.185,0.335,0.258c0.148,0.09,0.326,0.134,0.543,0.134c0.318,0,0.655-0.094,0.953-0.178
				c0.079-0.022,0.154-0.043,0.224-0.061c0.142-0.036,0.262-0.096,0.378-0.154c0.158-0.079,0.308-0.154,0.507-0.157
				c0.199,0,0.362,0.08,0.534,0.165c0.171,0.084,0.347,0.171,0.563,0.177c0.016,0,0.033,0.001,0.05,0.001
				c0.287,0,0.734-0.058,1.029-0.117c0.247-0.049,0.406-0.19,0.56-0.326c0.105-0.093,0.204-0.18,0.328-0.24
				c0.108-0.052,0.205-0.073,0.291-0.092c0.186-0.04,0.346-0.075,0.469-0.373c0.018-0.043,0.033-0.083,0.048-0.12
				c0.1-0.258,0.124-0.319,0.492-0.328l0.039,0c0.597,0,1.217,0.33,1.764,0.621l0.173,0.092c0.116,0.061,0.206,0.186,0.293,0.307
				c0.088,0.122,0.171,0.237,0.282,0.294c0.056,0.028,0.122,0.043,0.194,0.043c0.226,0,0.49-0.14,0.665-0.233l0.205-0.105
				c0.257-0.129,0.547-0.276,0.746-0.434c0.094-0.075,0.163-0.146,0.224-0.208c0.139-0.142,0.231-0.236,0.503-0.262
				c0.057-0.005,0.112-0.008,0.165-0.008c0.4,0,0.685,0.159,0.955,0.528c0.04,0.055,0.079,0.129,0.121,0.206
				c0.086,0.161,0.174,0.327,0.311,0.412c0.128,0.08,0.279,0.091,0.408,0.091c0.048,0,0.096-0.002,0.144-0.003
				c0.046-0.002,0.092-0.003,0.138-0.003c0.101,0,0.172,0.008,0.233,0.027c0.157,0.049,0.221,0.132,0.295,0.229
				c0.063,0.082,0.135,0.176,0.268,0.249c0.15,0.083,0.326,0.094,0.462,0.094c0.068,0,0.137-0.003,0.205-0.006
				c0.065-0.003,0.129-0.005,0.189-0.005c0.069,0,0.133,0.003,0.184,0.011c0.288,0.046,0.372,0.154,0.488,0.303
				c0.051,0.066,0.11,0.141,0.191,0.217c0.116,0.109,0.274,0.192,0.426,0.271c0.24,0.125,0.488,0.255,0.573,0.487
				c0.101,0.274-0.08,0.627-0.284,0.866c-0.21,0.247-0.446,0.483-0.675,0.712c-0.317,0.317-0.644,0.645-0.921,1.016
				c-0.499,0.671-0.994,1.325-1.553,1.96c-0.011,0.013-1.099,1.279-0.955,1.814c0.067,0.25,0.485,0.649,0.732,0.7
				c0.038,0.008,0.076,0.012,0.113,0.012c0.211,0,0.381-0.118,0.545-0.232c0.132-0.092,0.256-0.178,0.392-0.198
				c0.048-0.007,0.096-0.011,0.142-0.011c0.5,0,0.796,0.427,1.082,0.839c0.089,0.128,0.173,0.249,0.263,0.358
				c0.123,0.15,0.306,0.305,0.499,0.469c0.413,0.351,0.881,0.75,0.879,1.191c-0.001,0.299-0.243,0.405-0.45,0.405
				c-0.056,0-0.113-0.007-0.168-0.022c-0.052-0.013-0.1-0.039-0.152-0.065c-0.071-0.037-0.145-0.075-0.236-0.088
				c-0.026-0.004-0.052-0.005-0.076-0.005c-0.055,0-0.105,0.008-0.152,0.016c-0.042,0.007-0.083,0.012-0.124,0.012
				c-0.032,0-0.063-0.003-0.094-0.012c-0.26-0.073-0.453-0.287-0.658-0.514c-0.267-0.295-0.543-0.601-0.989-0.602
				c-0.015,0-0.03,0-0.046,0.001c-0.145,0.006-0.256,0.029-0.355,0.05c-0.097,0.02-0.187,0.035-0.284,0.035
				c-0.077,0-0.158-0.009-0.251-0.033c-0.133-0.033-0.224-0.048-0.304-0.048c-0.203,0-0.331,0.093-0.558,0.271
				c-0.155,0.122-0.325,0.238-0.49,0.35c-0.139,0.095-0.283,0.193-0.419,0.295c-0.089,0.067-0.171,0.139-0.251,0.209
				c-0.196,0.172-0.381,0.335-0.639,0.395c-0.156,0.036-0.33,0.054-0.532,0.054c-0.18,0-0.366-0.014-0.545-0.027
				c-0.181-0.014-0.368-0.028-0.551-0.028c-0.338,0-0.608,0.049-0.851,0.155c-0.468,0.204-0.736,0.312-1.245,0.335
				c-0.447,0.021-0.768,0.094-1.145,0.264c-1.242,0.558-2.23,1.068-3.109,1.607c-0.184,0.113-0.384,0.217-0.576,0.317
				c-0.37,0.193-0.753,0.392-1.067,0.674c-0.375,0.337-0.682,0.523-1.217,0.74c-0.584,0.236-0.849,0.607-0.857,1.202
				c-0.004,0.313,0.035,0.59,0.073,0.857c0.077,0.537,0.143,1.001-0.175,1.586c-0.188,0.345-0.455,0.646-0.714,0.938
				c-0.336,0.379-0.684,0.771-0.876,1.273c-0.195,0.507,0.016,0.88,0.219,1.24c0.155,0.274,0.315,0.557,0.297,0.906
				c-0.039,0.779-0.722,0.978-1.383,1.171c-0.201,0.059-0.409,0.119-0.591,0.195c-0.763,0.317-2.075,1.172-2.349,2.117
				c-0.12,0.415-0.039,0.89,0.233,1.375c0.018,0.031,0.036,0.063,0.055,0.096c0.198,0.338,0.307,0.575,0.043,0.789
				c-0.104,0.084-0.247,0.112-0.399,0.143c-0.165,0.033-0.336,0.067-0.475,0.176c-0.187,0.147-0.244,0.319-0.266,0.503l-0.012,0.155
				c-0.001,0.021-0.002,0.042-0.003,0.064c-0.002,0.062-0.005,0.127-0.011,0.194c-0.055,0.609,0.45,0.868,0.938,1.118
				c0.173,0.089,0.352,0.18,0.495,0.285c0.327,0.238,0.464,0.393,0.355,0.63c-0.035,0.077-0.082,0.143-0.127,0.207
				c-0.12,0.17-0.243,0.345-0.048,0.644c0.091,0.138,0.204,0.218,0.304,0.287c0.138,0.096,0.247,0.172,0.282,0.377
				c0.021,0.121,0.011,0.224,0.001,0.324c-0.017,0.176-0.034,0.358,0.135,0.583c0.055,0.073,0.117,0.12,0.178,0.166
				c0.076,0.057,0.142,0.107,0.187,0.2c0.027,0.055,0.031,0.128,0.037,0.206c0.006,0.083,0.011,0.168,0.044,0.245
				c0.103,0.239,0.313,0.313,0.516,0.384c0.147,0.052,0.285,0.1,0.385,0.209c0.127,0.138,0.189,0.319,0.255,0.51
				c0.067,0.195,0.135,0.396,0.279,0.557c0.138,0.155,0.314,0.25,0.485,0.342c0.188,0.101,0.365,0.197,0.478,0.363
				c0.126,0.184,0.213,0.405,0.297,0.619c0.063,0.159,0.128,0.323,0.209,0.475c0.046,0.086,0.128,0.18,0.215,0.279
				c0.13,0.149,0.278,0.318,0.282,0.445c0.009,0.285-0.274,0.519-0.574,0.768c-0.281,0.233-0.572,0.473-0.633,0.781
				c-0.03,0.151,0.002,0.284,0.094,0.397c0.228,0.277,0.823,0.412,1.821,0.412c0.144,0,0.274-0.003,0.378-0.005
				c0.066-0.001,0.121-0.002,0.163-0.003h0.039c0.61,0,1.496,0.039,2.257,0.227c0.492,0.122,0.551,0.401,0.624,0.755
				c0.048,0.23,0.102,0.491,0.293,0.726c0.207,0.255,0.296,0.43,0.28,0.793c-0.004,0.102-0.03,0.193-0.055,0.28
				c-0.058,0.203-0.118,0.412,0.202,0.613c0.183,0.115,0.418,0.171,0.719,0.171c0.358,0,0.758-0.081,1.112-0.152
				c0.263-0.053,0.511-0.103,0.708-0.114c0.347-0.019,0.692-0.049,1.025-0.079c0.301-0.026,0.613-0.054,0.919-0.072
				c0.644-0.039,1.061-0.218,1.59-0.444c0.105-0.045,0.214-0.092,0.33-0.14c0.092-0.038,0.186-0.061,0.285-0.085
				c0.179-0.044,0.365-0.089,0.531-0.228c0.19-0.159,0.336-0.421,0.465-0.652c0.038-0.068,0.075-0.134,0.111-0.194
				c0.359-0.596,0.861-1.044,1.413-1.26c0.171-0.067,0.346-0.106,0.478-0.106c0.079,0,0.182,0.014,0.224,0.079
				c0.042,0.066,0.026,0.185-0.046,0.344c-0.041,0.09-0.103,0.167-0.169,0.248c-0.079,0.098-0.161,0.2-0.205,0.327
				c-0.074,0.219-0.009,0.329,0.049,0.426c0.029,0.049,0.054,0.091,0.062,0.148c0.029,0.202-0.09,0.344-0.228,0.509
				c-0.121,0.144-0.246,0.293-0.274,0.497c-0.012,0.088-0.02,0.18-0.027,0.272l-0.008,0.164c-0.011,0.276-0.005,0.562,0.002,0.843
				c0.004,0.145,0.008,0.287,0.009,0.423c0.004,0.457,0.008,0.914,0.012,1.371c0.009,0.982,0.019,1.998,0.019,2.997
				c0,0.05-0.005,0.113-0.01,0.182c-0.021,0.285-0.047,0.64,0.153,0.79c0.072,0.054,0.139,0.08,0.204,0.08
				c0.123,0,0.204-0.094,0.276-0.178c0.066-0.077,0.128-0.15,0.215-0.155l0.016-0.001c0.134,0,0.235,0.119,0.342,0.244
				c0.078,0.092,0.159,0.186,0.258,0.235c0.087,0.042,0.186,0.064,0.294,0.064c0.261,0,0.531-0.124,0.711-0.216l0.153-0.079
				c0.658-0.341,1.133-0.587,1.904-0.587c0.069,0,0.144-0.001,0.223-0.001c0.088-0.001,0.181-0.002,0.277-0.002
				c0.498,0,1.115,0.024,1.475,0.213c0.571,0.3,1.047,1.025,1.303,1.604c0.224,0.508,0.481,1.005,0.729,1.485
				c0.228,0.441,0.464,0.897,0.674,1.361c0.104,0.231,0.205,0.469,0.302,0.699c0.2,0.473,0.406,0.963,0.661,1.42
				c0.125,0.224,0.217,0.458,0.306,0.684c0.103,0.263,0.21,0.536,0.37,0.796c0.106,0.173,0.243,0.353,0.387,0.544
				c0.485,0.64,1.035,1.365,0.579,2.081c-0.173,0.271-0.457,0.331-0.758,0.395c-0.266,0.056-0.54,0.114-0.736,0.327
				c-0.24,0.261-0.319,0.637-0.333,1.015l-0.002,0.174c0.002,0.233,0.023,0.459,0.042,0.651c0.041,0.429,0.04,0.871,0.039,1.299
				l0,0.214c0,0.1,0.009,0.214,0.019,0.335c0.02,0.242,0.042,0.516-0.014,0.698c-0.039,0.128-0.136,0.23-0.24,0.338
				c-0.095,0.1-0.194,0.203-0.252,0.334c-0.129,0.289-0.026,0.51,0.073,0.723c0.041,0.088,0.083,0.178,0.112,0.277
				c0.036,0.124,0.056,0.238,0.075,0.348c0.032,0.182,0.061,0.354,0.16,0.538c0.396,0.733,0.416,1.25,0.068,1.783
				c-0.063,0.097-0.136,0.188-0.206,0.277c-0.121,0.152-0.246,0.308-0.323,0.494c-0.031,0.076-0.034,0.14-0.037,0.19
				c-0.003,0.066-0.005,0.11-0.062,0.178c-0.063,0.075-0.179,0.124-0.292,0.171c-0.095,0.04-0.192,0.081-0.269,0.14
				c-0.257,0.199-0.332,0.425-0.411,0.665c-0.03,0.092-0.062,0.188-0.105,0.286c-0.077,0.174-0.192,0.244-0.325,0.324
				c-0.107,0.065-0.229,0.138-0.338,0.274c-0.357,0.442-0.12,1.073,0.07,1.581c0.041,0.108,0.079,0.21,0.108,0.301
				c0.109,0.343,0.224,0.429,0.415,0.57c0.04,0.03,0.084,0.062,0.133,0.101c0.07,0.056,0.415,0.349,0.276,0.63
				c-0.063,0.128-0.247,0.245-0.425,0.357c-0.169,0.107-0.344,0.217-0.443,0.353c-0.243,0.332-0.27,0.607-0.305,0.956l-0.004,0.038
				c-0.013,0.128-0.054,0.247-0.098,0.373c-0.068,0.196-0.138,0.399-0.093,0.635c0.021,0.111,0.042,0.228,0.064,0.351
				c0.166,0.939,0.373,2.108,1.224,2.592c0.19,0.108,0.473,0.162,0.773,0.22c0.415,0.079,0.843,0.161,0.997,0.384
				c0.052,0.075,0.071,0.146,0.058,0.217c-0.035,0.182-0.28,0.347-0.477,0.479c-0.076,0.051-0.147,0.099-0.203,0.145
				c-0.303,0.251-0.349,0.531-0.394,0.803c-0.033,0.197-0.067,0.401-0.198,0.607c-0.095,0.149-0.215,0.276-0.341,0.41
				c-0.11,0.117-0.223,0.237-0.32,0.374c-0.139,0.195-0.287,0.353-0.444,0.52c-0.103,0.11-0.21,0.224-0.313,0.348
				c-0.088,0.106-0.147,0.244-0.205,0.377c-0.069,0.16-0.134,0.311-0.24,0.402c-0.114,0.097-0.328,0.124-0.554,0.152
				c-0.39,0.048-0.875,0.109-0.866,0.636c0.003,0.186,0.101,0.31,0.206,0.423l0.148,0.164c0.046,0.057,0.085,0.117,0.106,0.189
				c0.048,0.169,0.029,0.418,0.012,0.639c-0.008,0.104-0.016,0.203-0.017,0.29c-0.006,0.711-0.428,0.759-1.065,0.832l-0.045,0.005
				c-0.202,0.023-0.349,0.1-0.435,0.227c-0.178,0.262-0.066,0.681,0.033,1.051c0.032,0.118,0.061,0.229,0.08,0.328
				c0.117,0.618,0.083,1.103-0.442,1.61c-0.396,0.382-0.965,0.659-1.467,0.903l-0.261,0.128c-0.337,0.167-0.685,0.34-1.029,0.34
				c-0.179,0-0.339-0.047-0.489-0.145c-0.232-0.151-0.412-0.345-0.603-0.55c-0.24-0.258-0.489-0.526-0.847-0.698
				c-0.101-0.048-0.194-0.085-0.285-0.12c-0.178-0.07-0.332-0.13-0.498-0.26c-0.041-0.032-0.086-0.065-0.131-0.099
				c-0.152-0.113-0.308-0.229-0.4-0.361c-0.052-0.075-0.078-0.146-0.104-0.214c-0.049-0.133-0.101-0.27-0.328-0.378
				c-0.15-0.071-0.307-0.122-0.46-0.172c-0.151-0.049-0.307-0.1-0.451-0.169c-0.204-0.098-0.398-0.238-0.572-0.385l-0.12-0.106
				c-0.179-0.164-0.328-0.329-0.429-0.448c-0.228-0.269-0.214-0.571-0.199-0.891c0.012-0.258,0.025-0.524-0.084-0.793
				c-0.116-0.287-0.32-0.524-0.603-0.711l-0.136-0.085c-0.204-0.114-0.443-0.205-0.718-0.274c-0.146-0.036-0.278-0.054-0.405-0.072
				c-0.305-0.042-0.546-0.076-0.799-0.338c-0.093-0.096-0.183-0.203-0.27-0.307c-0.234-0.278-0.476-0.566-0.826-0.723
				c-0.143-0.065-0.292-0.114-0.435-0.162c-0.385-0.129-0.748-0.25-0.961-0.639c-0.052-0.094-0.079-0.174-0.106-0.252
				c-0.057-0.167-0.106-0.31-0.35-0.45c-0.201-0.115-0.445-0.187-0.682-0.257c-0.14-0.041-0.272-0.08-0.392-0.127
				c-0.083-0.032-0.166-0.065-0.249-0.098c-0.3-0.119-0.61-0.241-0.928-0.328c-0.339-0.093-0.389-0.142-0.574-0.325
				c-0.034-0.034-0.073-0.072-0.118-0.115c-0.302-0.287-0.698-0.433-1.081-0.574c-0.205-0.075-0.398-0.147-0.578-0.238
				c-0.836-0.422-1.677-0.619-2.39-0.756l-0.036-0.007c-0.737-0.141-1.499-0.288-2.106-0.747c-0.159-0.12-0.303-0.262-0.444-0.399
				c-0.167-0.164-0.339-0.333-0.543-0.474c-0.694-0.483-1.349-0.939-2.163-1.267c-0.205-0.083-0.39-0.195-0.586-0.315
				c-0.155-0.095-0.316-0.193-0.488-0.275c-0.187-0.089-0.381-0.17-0.569-0.247c-0.291-0.12-0.591-0.245-0.868-0.403
				c-0.241-0.138-0.477-0.242-0.707-0.343c-0.287-0.126-0.552-0.245-0.794-0.411l-0.128-0.094c-0.153-0.122-0.296-0.268-0.427-0.457
				c-0.123-0.177-0.208-0.381-0.291-0.578c-0.161-0.384-0.327-0.781-0.774-0.967c-0.09-0.037-0.168-0.064-0.239-0.089
				c-0.211-0.072-0.338-0.116-0.518-0.343c-0.295-0.373-0.566-0.638-0.933-0.916c-0.163-0.123-0.298-0.251-0.441-0.386
				c-0.078-0.074-0.158-0.149-0.243-0.224c-0.137-0.121-0.286-0.241-0.43-0.356c-0.256-0.205-0.52-0.417-0.736-0.653
				c-0.239-0.261-0.36-0.575-0.488-0.908c-0.094-0.244-0.191-0.495-0.338-0.725c-0.069-0.107-0.136-0.203-0.203-0.298
				c-0.112-0.16-0.218-0.311-0.316-0.494c-0.204-0.38-0.367-0.42-0.663-0.491c-0.046-0.011-0.097-0.023-0.152-0.038
				c-0.31-0.082-0.312-0.184-0.317-0.458c-0.001-0.06-0.002-0.125-0.007-0.196c-0.016-0.243-0.096-0.373-0.18-0.51
				c-0.047-0.076-0.096-0.155-0.138-0.262c-0.062-0.156-0.07-0.28-0.024-0.367c0.047-0.087,0.155-0.15,0.321-0.187
				c0.046-0.01,0.088-0.019,0.126-0.026c0.34-0.07,0.41-0.096,0.609-0.507c0.275-0.567,0.462-1.474,0.083-2.163
				c-0.132-0.241-0.312-0.44-0.509-0.62l-0.113-0.1c-0.125-0.106-0.255-0.207-0.384-0.306c-0.431-0.331-0.838-0.644-1.024-1.139
				c-0.318-0.846-0.703-1.861-1.277-2.779l-0.08-0.129c-0.097-0.149-0.199-0.296-0.308-0.438c-0.094-0.122-0.212-0.221-0.326-0.316
				c-0.1-0.083-0.195-0.162-0.274-0.256c-0.083-0.098-0.154-0.204-0.23-0.317c-0.054-0.08-0.108-0.161-0.166-0.238
				c-0.339-0.449-0.614-0.831-0.857-1.24c-0.015-0.026-0.032-0.053-0.051-0.08l-0.83-2.199c-0.012-0.016-0.026-0.032-0.037-0.048
				c-0.34-0.454-0.615-0.9-0.905-1.37l-0.081-0.131l-0.101-0.163c-0.199-0.321-0.507-0.449-0.805-0.573
				c-0.27-0.112-0.524-0.217-0.677-0.46c-0.088-0.139-0.109-0.337-0.13-0.529c-0.015-0.135-0.03-0.274-0.068-0.395
				c-0.116-0.367-0.296-0.707-0.471-1.035c-0.15-0.282-0.305-0.574-0.414-0.875c-0.159-0.442-0.335-0.81-0.54-1.167l-0.076-0.129
				c-0.111-0.187-0.23-0.373-0.361-0.568c-0.194-0.29-0.406-0.579-0.61-0.859c-0.229-0.313-0.466-0.636-0.678-0.962
				c-0.308-0.473-0.492-0.971-0.674-1.573c-0.035-0.117-0.07-0.237-0.105-0.358c-0.177-0.607-0.359-1.235-0.671-1.774
				c-0.162-0.28-0.264-0.57-0.364-0.867c-0.062-0.186-0.153-0.333-0.248-0.489c-0.061-0.099-0.124-0.201-0.182-0.318
				c-0.106-0.215-0.182-0.43-0.256-0.638c-0.138-0.389-0.268-0.756-0.577-1.121c-0.061-0.072-0.125-0.139-0.188-0.207l-0.106-0.115
				c-0.351-0.372-0.647-0.7-0.571-1.25c0.012-0.084,0.024-0.164,0.036-0.24c0.084-0.54,0.145-0.931-0.342-1.445
				c-0.417-0.441-0.811-0.857-1.127-1.425c-0.056-0.1-0.108-0.197-0.158-0.29c-0.316-0.587-0.566-1.05-1.193-1.457
				c-0.714-0.464-1.125-1.219-1.433-1.897c-0.071-0.156-0.133-0.316-0.193-0.47c-0.129-0.333-0.263-0.677-0.487-0.986
				c-0.091-0.125-0.191-0.244-0.289-0.359c-0.07-0.083-0.14-0.166-0.206-0.25c-0.034-0.044-0.066-0.088-0.098-0.133
				c-0.001-0.015-0.002-0.03-0.003-0.045l-0.166-0.216c-0.164-0.272-0.298-0.555-0.429-0.832c-0.266-0.563-0.54-1.145-1.061-1.628
				c-0.13-0.121-0.255-0.251-0.376-0.376c-0.337-0.35-0.685-0.713-1.165-0.889c-0.438-0.161-0.785-0.4-1.152-0.653
				c-0.196-0.135-0.398-0.275-0.618-0.404c-0.2-0.117-0.398-0.217-0.607-0.323l-0.19-0.097c-0.281-0.144-0.564-0.308-0.843-0.48
				l-0.184-0.115c-0.249-0.157-0.495-0.318-0.733-0.478c-0.269-0.18-0.57-0.257-0.861-0.331c-0.269-0.068-0.522-0.133-0.753-0.272
				c-0.328-0.199-0.55-0.594-0.504-0.9c0.029-0.198,0.17-0.335,0.407-0.395c0.175-0.045,0.343-0.055,0.505-0.065
				c0.419-0.026,0.815-0.05,0.917-0.757c0.112-0.78-0.022-1.476-0.368-1.908c-0.177-0.221-0.389-0.409-0.594-0.591
				c-0.274-0.243-0.533-0.473-0.718-0.775c-0.117-0.191-0.249-0.584-0.105-0.826c0.064-0.107,0.149-0.146,0.239-0.187
				c0.135-0.061,0.287-0.13,0.294-0.427c0.01-0.448-0.485-0.832-0.922-1.171c-0.168-0.13-0.326-0.253-0.426-0.36
				c-0.363-0.386-0.355-0.981,0.023-1.818c0.041-0.09,0.08-0.179,0.119-0.268c0.151-0.342,0.293-0.665,0.491-0.984
				c0.132-0.212,0.298-0.376,0.474-0.551c0.142-0.141,0.289-0.286,0.415-0.458l0.082-0.126c0.087-0.134,0.168-0.272,0.244-0.409
				c0.077-0.14,0.157-0.285,0.245-0.418c0.114-0.172,0.215-0.339,0.312-0.501c0.327-0.546,0.61-1.017,1.245-1.363
				c0.179-0.098,0.376-0.175,0.566-0.25c0.383-0.151,0.78-0.307,1.065-0.638c0.032-0.037,0.065-0.08,0.1-0.126
				c0.116-0.153,0.261-0.343,0.422-0.343c0.027,0,0.054,0.005,0.082,0.015c0.186,0.068,0.259,0.359,0.307,0.552
				c0.008,0.033,0.016,0.064,0.024,0.091c0.075,0.27,0.164,0.542,0.25,0.805c0.1,0.306,0.203,0.623,0.283,0.93
				c0.125,0.484-0.172,0.598-0.667,0.742c-0.12,0.035-0.244,0.071-0.361,0.117c-0.098,0.039-0.247,0.12-0.395,0.226l-0.3,0.263
				c-0.116,0.129-0.198,0.27-0.199,0.409c-0.001,0.115,0.054,0.276,0.324,0.389c0.066,0.027,0.134,0.044,0.201,0.06
				c0.107,0.026,0.207,0.05,0.239,0.11c0.027,0.051,0.015,0.14-0.033,0.265c-0.047,0.119-0.171,0.222-0.291,0.321
				c-0.082,0.068-0.167,0.139-0.231,0.217c-0.146,0.179-0.301,0.435-0.214,0.634c0.056,0.13,0.2,0.203,0.428,0.219
				c0.026,0.002,0.05,0.003,0.075,0.003c0.316,0,0.513-0.14,0.722-0.289c0.084-0.06,0.171-0.123,0.27-0.178
				c0.26-0.145,0.593-0.23,0.886-0.23c0.058,0,0.115,0.003,0.169,0.01c0.182,0.024,0.327,0.126,0.48,0.233
				c0.123,0.086,0.249,0.176,0.4,0.225c0.251,0.083,0.597,0.094,0.902,0.103c0.082,0.002,0.161,0.005,0.234,0.009
				c0.02,0.001,0.041,0.001,0.062,0.001c0.097,0,0.203-0.009,0.314-0.018c0.11-0.01,0.224-0.02,0.33-0.02
				c0.108,0,0.194,0.011,0.261,0.032c0.38,0.122,0.539,0.762,0.655,1.229c0.033,0.132,0.064,0.256,0.096,0.355
				c0.021,0.064,0.039,0.126,0.057,0.188c0.074,0.255,0.144,0.497,0.369,0.717c0.102,0.1,0.204,0.177,0.303,0.251
				c0.125,0.094,0.243,0.182,0.355,0.312c0.117,0.135,0.208,0.208,0.302,0.242l0.168,0.021c0.028-0.001,0.056-0.003,0.089-0.006
				c0.051-0.005,0.109-0.011,0.18-0.011c0.04,0,0.085,0.002,0.135,0.007c0.094,0.01,0.177,0.041,0.265,0.073
				c0.11,0.04,0.224,0.082,0.359,0.082c0.081,0,0.161-0.015,0.244-0.046c0.259-0.095,0.476-0.402,0.584-0.635
				c0.102-0.221,0.048-0.408,0.001-0.574c-0.035-0.122-0.068-0.237-0.044-0.365c0.069-0.366,0.575-0.622,0.981-0.828
				c0.104-0.053,0.203-0.103,0.29-0.152l0.134-0.083c0.322-0.217,0.486-0.431,0.496-0.654c0.005-0.101-0.047-0.191-0.093-0.271
				c-0.033-0.057-0.064-0.111-0.07-0.16c-0.017-0.136,0.011-0.218,0.053-0.343c0.012-0.037,0.026-0.076,0.039-0.119
				c0.09-0.3,0.189-0.604,0.284-0.897c0.106-0.325,0.216-0.662,0.315-1c0.023-0.077,0.044-0.153,0.065-0.229
				c0.072-0.258,0.139-0.502,0.253-0.739c0.077-0.161,0.197-0.286,0.324-0.419c0.127-0.133,0.259-0.271,0.348-0.449
				c0.109-0.218,0.123-0.528,0.136-0.801c0.004-0.079,0.007-0.155,0.013-0.223c0.003-0.036,0.006-0.077,0.008-0.12
				c0.014-0.231,0.036-0.581,0.184-0.712c0.07-0.062,0.129-0.094,0.176-0.094c0.07,0,0.13,0.077,0.199,0.166
				c0.058,0.075,0.118,0.152,0.2,0.202c0.086,0.053,0.159,0.079,0.224,0.079c0.248,0,0.254-0.32,0.26-0.603l0-0.021
				c0.008-0.373,0.072-0.558,0.285-0.827c0.326-0.411,0.727-0.734,1.115-1.046c0.184-0.148,0.375-0.302,0.556-0.463
				c0.019-0.017,0.039-0.032,0.059-0.048l0.123-0.089c0.218-0.14,0.477-0.238,0.729-0.332c0.052-0.02,0.104-0.039,0.155-0.059
				c0.29-0.112,0.583-0.205,0.866-0.295c0.608-0.194,1.182-0.377,1.727-0.727c0.343-0.221,0.785-0.388,1.087-0.495
				c0.328-0.116,0.675-0.193,1.011-0.268c0.129-0.029,0.257-0.057,0.385-0.088c1.482-0.358,2.896-1.248,4.323-2.722
				c0.124-0.128,0.247-0.259,0.371-0.39c0.176-0.186,0.358-0.379,0.538-0.56c0.214-0.215,0.443-0.414,0.665-0.606
				c0.334-0.29,0.679-0.589,0.973-0.945c0.117-0.141,0.24-0.272,0.359-0.399c0.333-0.354,0.647-0.687,0.79-1.192
				c0.058-0.205,0.072-0.413,0.086-0.613c0.008-0.113,0.016-0.23,0.032-0.345c0.034-0.248,0.113-0.455,0.196-0.674
				c0.022-0.059,0.045-0.119,0.068-0.181c0.034-0.094,0.06-0.235,0.091-0.399c0.088-0.471,0.208-1.113,0.588-1.113
				c0.013,0,0.026,0.001,0.039,0.002c0.03,0.003,0.049,0.026,0.087,0.078c0.047,0.065,0.111,0.153,0.246,0.153l0.02-0.001
				c0.231-0.015,0.259-0.154,0.281-0.266c0.006-0.029,0.012-0.059,0.022-0.091c0.067-0.214,0.054-0.468,0.042-0.714
				c-0.004-0.089-0.009-0.176-0.009-0.257c0-0.107,0.002-0.212,0.004-0.315c0.011-0.554,0.021-1.077-0.321-1.585
				c-0.09-0.135-0.173-0.278-0.253-0.417c-0.193-0.335-0.392-0.682-0.712-0.903c-0.061-0.042-0.161-0.093-0.277-0.152
				c-0.272-0.138-0.727-0.37-0.744-0.567c-0.002-0.021-0.007-0.086,0.111-0.174c0.071-0.053,0.145-0.079,0.227-0.079
				c0.172,0,0.358,0.111,0.555,0.228c0.221,0.131,0.45,0.267,0.693,0.267c0.058,0,0.115-0.008,0.169-0.023
				c0.225-0.064,0.381-0.232,0.533-0.395C80.765,45.264,80.907,45.111,81.109,45.111 M81.109,41.402
				c-0.636,0-1.179,0.14-1.631,0.337c-0.254-0.051-0.53-0.083-0.828-0.083c-0.886,0-1.732,0.282-2.447,0.816
				c-1.105,0.827-1.697,2.116-1.587,3.45c0.131,1.511,1.033,2.451,1.808,3.004c-0.329,0.552-0.6,1.256-0.768,2.15
				c-0.117,0.31-0.297,0.804-0.384,1.433c-0.01,0.072-0.018,0.143-0.026,0.215c-0.143,0.153-0.287,0.312-0.425,0.479
				c-0.099,0.119-0.326,0.317-0.547,0.508c-0.246,0.213-0.551,0.479-0.861,0.789c-0.202,0.203-0.405,0.418-0.602,0.626
				c-0.12,0.127-0.232,0.246-0.345,0.363c-0.923,0.953-1.75,1.508-2.528,1.696c-0.107,0.026-0.21,0.049-0.314,0.072
				c-0.409,0.092-0.907,0.203-1.445,0.392c-0.478,0.168-1.19,0.442-1.86,0.873c-0.133,0.085-0.496,0.201-0.848,0.313
				c-0.302,0.096-0.678,0.216-1.072,0.368l-0.103,0.039c-0.371,0.139-0.899,0.337-1.451,0.691c-0.055,0.035-0.108,0.071-0.161,0.109
				l-0.123,0.089c-0.047,0.034-0.093,0.069-0.139,0.105c-0.074,0.058-0.15,0.12-0.222,0.185c-0.137,0.122-0.279,0.235-0.416,0.345
				c-0.471,0.379-1.111,0.895-1.694,1.628c-0.006,0.008-0.013,0.016-0.019,0.024c-0.293,0.149-0.592,0.347-0.886,0.609
				c-1.189,1.057-1.363,2.439-1.411,3.1c-0.162,0.216-0.332,0.48-0.483,0.795c-0.255,0.531-0.386,1.004-0.482,1.349l-0.049,0.175
				c-0.089,0.304-0.188,0.606-0.283,0.898c-0.016,0.05-0.033,0.101-0.049,0.152c-0.398-0.359-0.896-0.666-1.52-0.866
				c-0.325-0.105-0.66-0.17-1.015-0.196c-0.004-0.389-0.056-0.75-0.135-1.056c-0.108-0.419-0.235-0.808-0.347-1.151
				c-0.07-0.214-0.143-0.433-0.203-0.651c-0.495-1.975-1.705-2.793-2.632-3.131c-0.441-0.16-0.894-0.24-1.353-0.24
				c-0.823,0-1.982,0.255-3.034,1.4c-0.244,0.097-0.555,0.225-0.892,0.409c-1.522,0.828-2.23,2.007-2.652,2.712
				c-0.07,0.116-0.139,0.234-0.22,0.355c-0.145,0.217-0.279,0.453-0.406,0.683c-0.019,0.034-0.038,0.069-0.058,0.103
				c-0.015,0.015-0.03,0.029-0.044,0.044c-0.259,0.256-0.65,0.644-1.011,1.223c-0.339,0.543-0.56,1.046-0.738,1.45l-0.105,0.236
				c-1.265,2.8-0.305,4.693,0.398,5.587c-0.035,1.01,0.284,1.961,0.716,2.665c0.033,0.054,0.067,0.107,0.101,0.158
				c-0.39,0.532-0.653,1.16-0.755,1.851c-0.265,1.786,0.64,3.641,2.252,4.616c0.688,0.417,1.337,0.587,1.735,0.688
				c0.181,0.12,0.366,0.239,0.552,0.356l0.196,0.123c0.422,0.26,0.78,0.464,1.121,0.638l0.202,0.102
				c0.146,0.074,0.278,0.138,0.409,0.215c0.14,0.082,0.265,0.172,0.388,0.257c0.405,0.279,0.938,0.647,1.647,0.95
				c0.035,0.036,0.069,0.073,0.104,0.109c0.158,0.165,0.323,0.333,0.493,0.493c0.062,0.096,0.178,0.342,0.265,0.525
				c0.144,0.306,0.341,0.723,0.604,1.16c0.05,0.083,0.102,0.163,0.158,0.242c0.05,0.085,0.103,0.167,0.16,0.248
				c0.066,0.093,0.133,0.185,0.204,0.275c0.093,0.119,0.195,0.241,0.298,0.364c0.023,0.027,0.045,0.053,0.067,0.078
				c0.031,0.072,0.057,0.146,0.085,0.218c0.085,0.219,0.174,0.442,0.273,0.659c0.442,0.973,1.189,2.361,2.616,3.356
				c0.039,0.07,0.084,0.154,0.122,0.224c0.057,0.106,0.117,0.217,0.181,0.332c0.303,0.546,0.633,0.993,0.954,1.375
				c-0.047,1.961,1.097,3.2,1.576,3.707l0.059,0.065c0.011,0.031,0.021,0.062,0.033,0.094c0.094,0.265,0.223,0.628,0.426,1.039
				c0.102,0.206,0.208,0.39,0.314,0.564c0.146,0.416,0.325,0.859,0.594,1.325c0.087,0.151,0.228,0.634,0.321,0.954l0.116,0.394
				c0.225,0.746,0.534,1.631,1.117,2.526c0.266,0.408,0.544,0.787,0.789,1.122c0.178,0.243,0.358,0.487,0.522,0.733
				c0.094,0.14,0.179,0.274,0.259,0.407l0.064,0.109c0.093,0.162,0.173,0.336,0.249,0.547c0.198,0.55,0.447,1.017,0.628,1.358
				c0.047,0.088,0.104,0.196,0.149,0.285c0.056,0.443,0.189,1.166,0.655,1.907c0.569,0.906,1.326,1.401,1.881,1.68
				c0.171,0.274,0.358,0.564,0.57,0.869l0.653,1.73c0.093,0.246,0.212,0.482,0.354,0.703c0.346,0.577,0.714,1.081,1.062,1.542
				l0.043,0.066c0.104,0.156,0.263,0.394,0.485,0.655c0.226,0.267,0.446,0.467,0.611,0.607l0.05,0.082
				c0.398,0.636,0.71,1.466,0.96,2.134c0.297,0.792,0.735,1.391,1.173,1.851c-0.029,0.05-0.057,0.1-0.085,0.151
				c-0.565,1.06-0.618,2.295-0.15,3.477c0.036,0.091,0.073,0.175,0.109,0.254c0.23,1.725,1.289,2.606,2.134,3.042
				c0.002,0.003,0.004,0.006,0.006,0.009c0.018,0.044,0.034,0.088,0.05,0.131c0.187,0.487,0.501,1.304,1.217,2.083
				c0.406,0.443,0.834,0.787,1.147,1.038c0.103,0.082,0.203,0.162,0.296,0.243c0.051,0.045,0.102,0.094,0.153,0.142
				c0.179,0.169,0.425,0.402,0.751,0.647c0.109,0.082,0.156,0.126,0.263,0.261c0.424,0.535,0.87,0.887,1.292,1.132
				c0.103,0.202,0.229,0.424,0.386,0.65c0.329,0.475,0.722,0.895,1.169,1.25c0.039,0.031,0.078,0.061,0.118,0.09l0.128,0.094
				c0.03,0.022,0.06,0.043,0.09,0.064c0.538,0.369,1.057,0.598,1.4,0.749c0.14,0.062,0.285,0.125,0.355,0.166
				c0.484,0.278,0.934,0.464,1.296,0.613c0.129,0.053,0.263,0.107,0.391,0.168c0.04,0.022,0.095,0.058,0.151,0.092
				c0.272,0.166,0.643,0.392,1.134,0.59c0.41,0.165,0.838,0.46,1.374,0.833c0.041,0.038,0.08,0.078,0.119,0.116
				c0.194,0.19,0.454,0.445,0.799,0.706c1.3,0.984,2.713,1.255,3.648,1.435c0.52,0.1,1.027,0.216,1.453,0.431
				c0.372,0.188,0.703,0.31,0.968,0.408c0.019,0.007,0.039,0.014,0.058,0.021c0.511,0.468,1.079,0.833,2.02,1.09
				c0.123,0.034,0.337,0.118,0.544,0.2l0.269,0.105c0.773,1.027,1.768,1.468,2.385,1.69c0.103,0.119,0.205,0.234,0.308,0.341
				c0.626,0.65,1.291,0.997,1.854,1.191c0.145,0.565,0.42,1.195,0.933,1.801c0.158,0.186,0.417,0.475,0.745,0.777
				c0.021,0.02,0.043,0.039,0.064,0.058l0.12,0.106c0.015,0.013,0.03,0.026,0.045,0.039c0.449,0.382,0.898,0.678,1.373,0.906
				c0.069,0.033,0.136,0.063,0.201,0.091c0.356,0.408,0.716,0.675,0.932,0.835l0.057,0.043c0.469,0.369,0.913,0.58,1.223,0.709
				c0.273,0.293,0.676,0.719,1.27,1.106c0.748,0.488,1.617,0.745,2.512,0.745c1.213,0,2.13-0.455,2.678-0.727l0.247-0.121
				c0.662-0.322,1.587-0.771,2.407-1.562c0.729-0.703,1.509-1.818,1.614-3.417c1.209-1.089,1.38-2.579,1.393-3.222l0.006-0.081
				c0.386-0.414,0.621-0.832,0.769-1.142c0.183-0.195,0.413-0.447,0.653-0.774l0.053-0.057c0.194-0.207,0.484-0.515,0.765-0.953
				c0.242-0.377,0.402-0.747,0.511-1.071c0.512-0.475,1.078-1.203,1.281-2.268c0.2-1.051-0.031-2.123-0.649-3.018
				c-0.586-0.849-1.359-1.308-2.054-1.573c0.23-0.253,0.453-0.562,0.638-0.935c0.616-1.247,0.525-2.683-0.165-3.874
				c0.141-0.124,0.281-0.264,0.415-0.424c0.314-0.375,0.549-0.784,0.705-1.226c0.061-0.083,0.126-0.176,0.193-0.279
				c0.585-0.898,1.362-2.698,0.352-5.021c0.031-0.083,0.061-0.168,0.088-0.257c0.265-0.858,0.202-1.627,0.164-2.086l-0.007-0.086
				l0-0.154c0.001-0.203,0.001-0.419-0.003-0.646c0.414-0.291,0.826-0.686,1.17-1.227c1.222-1.919,0.969-4.042-0.751-6.312
				c-0.06-0.079-0.118-0.152-0.169-0.225c-0.035-0.077-0.063-0.155-0.092-0.231c-0.116-0.296-0.273-0.695-0.518-1.134
				c-0.157-0.282-0.316-0.659-0.484-1.057c-0.113-0.268-0.225-0.532-0.341-0.788c-0.251-0.553-0.52-1.074-0.758-1.534
				c-0.233-0.45-0.452-0.874-0.63-1.278c-0.393-0.89-1.301-2.514-2.973-3.391c-1.072-0.562-2.218-0.637-3.198-0.637l-0.283,0.001
				l-0.216,0.002c-0.293,0-0.569,0.018-0.829,0.049l-0.01-1.116c-0.001-0.156-0.005-0.319-0.01-0.485
				c-0.001-0.036-0.002-0.071-0.003-0.106c0.339-0.603,0.519-1.228,0.542-1.874c0.52-1.277,0.419-2.62-0.285-3.714
				c-0.718-1.116-1.967-1.781-3.343-1.781c-0.751,0-1.41,0.196-1.831,0.361c-1.215,0.475-2.293,1.366-3.065,2.526
				c-0.062,0.026-0.122,0.052-0.181,0.077c-0.139,0.06-0.33,0.141-0.39,0.159c-0.298,0.011-0.645,0.041-0.98,0.071
				c-0.166,0.015-0.334,0.03-0.505,0.043c-0.677-2.025-2.253-2.711-3.188-2.942c-0.291-0.072-0.597-0.132-0.919-0.181
				c-0.212-0.652-0.557-1.141-0.809-1.451c-0.124-0.312-0.322-0.778-0.647-1.255c-0.349-0.511-0.749-0.868-1.098-1.119
				c-0.163-0.331-0.397-0.711-0.739-1.08c-0.187-0.202-0.379-0.37-0.567-0.511c-0.066-0.345-0.17-0.672-0.312-0.978
				c-0.005-0.712-0.198-1.471-0.674-2.188c0.183-0.585,0.239-1.244,0.099-1.957c3.088-0.954,3.832-2.969,3.909-4.504
				c0.03-0.601-0.058-1.134-0.189-1.584c0.266-0.321,0.557-0.711,0.814-1.183c0.587-1.077,0.708-2.062,0.691-2.832
				c0.221-0.156,0.436-0.328,0.653-0.52c0.077-0.047,0.237-0.13,0.357-0.193c0.27-0.141,0.545-0.288,0.801-0.445
				c0.713-0.437,1.532-0.862,2.57-1.332c0.879-0.053,1.505-0.241,2.073-0.468c0.014,0.001,0.027,0.002,0.041,0.003
				c0.273,0.02,0.552,0.038,0.824,0.038c0.488,0,0.936-0.049,1.372-0.151c1.001-0.232,1.681-0.738,2.075-1.072
				c0.359,0.245,0.799,0.473,1.329,0.622c0.274,0.076,0.55,0.123,0.828,0.141c0.024,0.007,0.049,0.013,0.074,0.02
				c0.355,0.093,0.727,0.141,1.099,0.141c2.324,0,4.151-1.801,4.159-4.1c0.008-2.163-1.529-3.47-2.185-4.028
				c-0.03-0.026-0.06-0.05-0.088-0.075c-0.009-0.013-0.019-0.027-0.029-0.042c-0.107-0.154-0.27-0.389-0.493-0.652
				c0.125-0.146,0.311-0.332,0.491-0.512c0.269-0.269,0.571-0.571,0.876-0.93c1.142-1.343,1.494-3.044,0.94-4.549
				c-0.49-1.329-1.473-2.012-2.057-2.344c-0.435-0.466-1.224-1.112-2.519-1.318c-0.043-0.007-0.086-0.013-0.129-0.019
				c-0.266-0.163-0.58-0.314-0.946-0.428c-0.919-0.926-2.108-1.428-3.421-1.428c-0.165,0-0.337,0.008-0.516,0.025
				c-0.778,0.074-1.386,0.321-1.842,0.591c-0.741-0.358-1.705-0.722-2.857-0.722c-0.015,0-0.069,0.001-0.084,0.001
				c-1.331,0.033-2.407,0.523-3.154,1.408c-0.334-0.09-0.724-0.155-1.164-0.155c-0.017,0-0.035,0-0.052,0
				c-0.108,0.001-0.212,0.007-0.313,0.015c-0.104-0.594-0.348-1.345-0.933-2.047c-0.41-0.492-0.924-0.876-1.501-1.134
				c-0.217-0.999-0.697-2.058-1.629-2.833c-0.902-0.751-1.865-0.961-2.511-1.023c-0.07-0.064-0.145-0.129-0.225-0.193
				c-0.234-0.188-0.472-0.338-0.704-0.458c-0.358-1.331-1.119-2.122-1.556-2.577l-0.124-0.13l-0.091-0.098
				c-0.299-0.325-0.707-0.768-1.329-1.179c-0.315-0.458-0.716-0.836-1.2-1.133c-0.388-0.238-0.757-0.38-1.055-0.467
				c-0.349-0.206-0.689-0.35-1.089-0.462c-0.053-0.034-0.11-0.068-0.17-0.103C82.593,41.604,81.863,41.402,81.109,41.402
				L81.109,41.402z"/>
		</g>
	</g>
	<g>
		<path fill="#07B7A9" d="M76.207,98.328c-0.24-0.014-0.464-0.123-0.623-0.304c-0.158-0.181-0.238-0.418-0.22-0.658
			c0.03-0.41,0.252-0.805,0.448-1.152c0.052-0.093,0.101-0.176,0.132-0.245c0.109-0.236,0.22-0.468,0.331-0.699
			c0.16-0.331,0.292-0.605,0.416-0.879c0.078-0.171,0.08-0.311-0.239-0.846c-0.076-0.128-0.413-0.715-0.413-0.715
			c-0.032-0.055-0.101-0.126-0.181-0.208c-0.131-0.136-0.246-0.259-0.346-0.403c-0.733-1.056-0.796-2.056-0.863-3.113
			c-0.053-0.845-0.208-3.322,1.652-3.801c0.177-0.046,0.342-0.068,0.503-0.068c0.712,0,1.104,0.435,1.339,0.695
			c0.066,0.073,0.118,0.129,0.166,0.174c0.012-0.025,0.026-0.057,0.04-0.093c0.416-1.137,0.443-2.203,0.063-2.481
			c-0.104-0.076-0.208-0.17-0.317-0.271c-0.082-0.076-0.188-0.176-0.232-0.199c-0.048,0.011-0.166,0.036-0.28,0.06
			c-0.145,0.032-0.286,0.06-0.421,0.072c-0.11,0.011-0.296,0.024-0.521,0.024c-0.942,0-1.659-0.229-2.13-0.684
			c-0.121-0.116-0.24-0.263-0.363-0.42c-0.096-0.123-0.251-0.325-0.323-0.362c0.035,0.022-0.063,0.119-0.128,0.183
			c-0.252,0.25-0.635,0.629-1.276,0.629c-0.083,0-0.171-0.007-0.264-0.022c-0.906-0.152-1.354-0.908-1.681-1.46
			c-0.188-0.315-0.399-0.673-0.57-0.694c-0.044-0.007-0.084-0.008-0.125-0.008c-0.111,0-0.223,0.011-0.333,0.021
			c-0.18,0.017-0.343,0.03-0.5,0.03c-0.465,0-0.849-0.117-1.173-0.36c-0.287-0.213-0.468-0.471-0.627-0.698
			c-0.107-0.153-0.217-0.31-0.294-0.342c-0.11-0.047-0.242-0.071-0.368-0.101c-0.477-0.106-1.19-0.267-1.548-0.982
			c-0.225-0.448-0.254-0.927-0.279-1.349c-0.011-0.176-0.018-0.355-0.053-0.516l-0.031-0.146c-0.147-0.681-0.275-1.269-0.147-2.096
			c0.075-0.487,0.269-0.88,0.439-1.228c0.088-0.179,0.17-0.343,0.233-0.521c0.067-0.189,0.128-0.388,0.188-0.58
			c0.117-0.378,0.25-0.805,0.438-1.216c0.194-0.423,0.243-0.859,0.128-1.14c-0.025-0.062-0.091-0.15-0.161-0.244
			c-0.105-0.144-0.204-0.282-0.282-0.431c-0.211-0.396-0.211-0.759-0.212-1.023c0-0.069,0-0.137-0.003-0.207
			c-0.028-0.438-0.234-1.037-0.414-1.406c-0.033-0.068-0.081-0.133-0.124-0.196c-0.12-0.173-0.267-0.387-0.354-0.675
			c-0.087-0.286-0.095-0.571-0.103-0.823c-0.002-0.091-0.004-0.182-0.013-0.265c-0.014-0.141-0.081-0.295-0.151-0.441
			c-0.195-0.408-0.056-0.897,0.324-1.143c0.299-0.191,0.618-0.312,0.899-0.417l0.148-0.056c0.287-0.111,0.578-0.205,0.861-0.296
			c0.628-0.2,1.123-0.357,1.568-0.645c0.422-0.271,0.93-0.465,1.275-0.586c0.374-0.133,0.759-0.219,1.1-0.295l0.387-0.088
			c1.308-0.316,2.58-1.126,3.886-2.475l0.319-0.335c0.232-0.246,0.416-0.439,0.597-0.623c0.23-0.231,0.476-0.445,0.714-0.652
			c0.305-0.264,0.619-0.535,0.871-0.839c0.13-0.157,0.267-0.304,0.399-0.443c0.315-0.335,0.498-0.539,0.577-0.819
			c0.032-0.114,0.043-0.265,0.054-0.425c0.01-0.146,0.02-0.281,0.039-0.414c0.048-0.35,0.154-0.626,0.247-0.869l0.062-0.166
			c0.02-0.062,0.034-0.153,0.053-0.258c0.107-0.573,0.323-1.723,1.306-1.838c-0.003-0.073-0.006-0.142-0.006-0.207l0.004-0.333
			c0.01-0.521,0.008-0.805-0.168-1.065c-0.104-0.154-0.197-0.316-0.287-0.473c-0.151-0.262-0.291-0.506-0.442-0.609
			c-0.033-0.021-0.092-0.049-0.159-0.083c-0.511-0.259-1.188-0.602-1.249-1.298c-0.027-0.386,0.14-0.725,0.467-0.97
			c0.228-0.169,0.491-0.258,0.765-0.258c0.417,0,0.746,0.195,1.01,0.353c0.058,0.034,0.132,0.078,0.192,0.109
			c0.026-0.03,0.062-0.069,0.09-0.1c0.217-0.232,0.576-0.616,1.167-0.616c0.252,0,0.508,0.074,0.762,0.221
			c0.125,0.071,0.222,0.144,0.315,0.214c0.095,0.072,0.095,0.072,0.136,0.08c0.529,0.101,0.719,0.183,1.13,0.491
			c0.177,0.013,0.421,0.056,0.673,0.21c0.402,0.249,0.514,0.612,0.567,0.787c0,0,0,0-0.001,0c-0.004,0,0.064,0.031,0.106,0.051
			c0.106,0.051,0.167,0.08,0.228,0.113c0.463,0.253,0.757,0.571,1.015,0.854l0.253,0.269c0.405,0.421,0.842,0.874,0.958,1.735
			c0.022,0.166,0.033,0.335,0.042,0.515c0.012,0.219,0.024,0.428,0.068,0.582c0.042,0.008,0.429,0.075,0.429,0.075
			c0.331,0.058,0.716,0.124,1.048,0.391c0.208,0.167,0.333,0.347,0.425,0.478c0.037,0.054,0.081,0.116,0.099,0.132
			c0.236,0.102,0.456,0.157,0.671,0.17l0.187,0.006c0.343,0.006,0.853,0.015,1.316,0.399c0.747,0.621,0.823,1.957,0.743,2.506
			l-0.041,0.26c-0.072,0.432-0.076,0.506,0.002,0.569c0.052-0.023,0.113-0.049,0.182-0.075c0.176-0.067,0.455-0.15,0.766-0.15
			c0.453,0,0.85,0.177,1.117,0.498c0.343,0.412,0.354,0.898,0.362,1.22l0.006,0.153c0.003,0.047,0.023,0.104,0.054,0.196
			c0.048,0.139,0.122,0.352,0.137,0.616c0.016,0.295-0.055,0.541-0.107,0.721c-0.004,0.015-0.008,0.029-0.013,0.046
			c0.029,0.017,0.059,0.033,0.084,0.047c0.233,0.131,0.409,0.273,0.576,0.416c0.075,0.063,0.141,0.126,0.218,0.173
			c0.006,0,0.013,0,0.019,0c0.264,0,0.528-0.073,0.762-0.139l0.245-0.067c0.057-0.015,0.126-0.049,0.207-0.089
			c0.198-0.099,0.492-0.245,0.895-0.251h0c0.422,0,0.724,0.148,0.944,0.258c0.067,0.033,0.163,0.08,0.195,0.086
			c0.216-0.001,0.591-0.045,0.875-0.101c0.017-0.01,0.09-0.074,0.139-0.117c0.124-0.109,0.293-0.26,0.531-0.376
			c0.143-0.069,0.274-0.109,0.376-0.135c0.203-0.507,0.507-0.849,1.294-0.867c0.001,0,0.003,0,0.004,0
			c0.878,0,1.633,0.401,2.24,0.724l0.174,0.093c0.234,0.122,0.395,0.302,0.512,0.454c0.03-0.017,0.3-0.155,0.3-0.155
			c0.215-0.108,0.471-0.238,0.597-0.338c0.051-0.041,0.093-0.085,0.13-0.122c0.192-0.196,0.469-0.48,1.066-0.538
			c0.089-0.009,0.171-0.013,0.25-0.013c0.69,0,1.24,0.294,1.68,0.896c0.061,0.082,0.126,0.195,0.191,0.318
			c0.003,0.007,0.007,0.014,0.011,0.021l0.196-0.004c0.189,0,0.347,0.021,0.496,0.066c0.433,0.135,0.635,0.398,0.744,0.54
			l0.143-0.012l0.266-0.008c0.125,0,0.24,0.008,0.333,0.023c0.582,0.091,0.847,0.375,1.05,0.635
			c0.031,0.039,0.057,0.077,0.097,0.114c0.037,0.032,0.161,0.097,0.227,0.131c0.321,0.169,0.797,0.419,1.001,0.973
			c0.2,0.543,0.034,1.2-0.443,1.76c-0.214,0.253-0.458,0.499-0.695,0.737c-0.319,0.318-0.621,0.62-0.862,0.943
			c-0.512,0.688-1.019,1.358-1.6,2.018c-0.236,0.274-0.482,0.625-0.625,0.881c0.167-0.11,0.379-0.227,0.652-0.266
			c0.082-0.014,0.178-0.02,0.271-0.02c0.968,0,1.479,0.735,1.817,1.223c0.082,0.117,0.147,0.214,0.218,0.3
			c0.095,0.116,0.239,0.23,0.387,0.356c0.507,0.431,1.199,1.021,1.196,1.878c-0.002,0.74-0.582,1.299-1.347,1.299
			c-0.132,0-0.266-0.018-0.396-0.052c-0.118-0.031-0.217-0.075-0.3-0.117c-0.074,0.012-0.144,0.017-0.213,0.017
			c-0.081,0-0.253-0.022-0.331-0.044c-0.513-0.145-0.83-0.495-1.085-0.776c-0.098-0.107-0.258-0.285-0.322-0.307
			c-0.092,0.005-0.16,0.02-0.219,0.032c-0.162,0.033-0.309,0.054-0.467,0.054c-0.157,0-0.31-0.02-0.469-0.06
			c-0.004-0.001-0.008-0.002-0.012-0.003c-0.023,0.019-0.049,0.039-0.077,0.062c-0.173,0.135-0.359,0.263-0.539,0.385
			c-0.13,0.09-0.262,0.179-0.387,0.272c-0.07,0.052-0.134,0.108-0.195,0.163c-0.234,0.206-0.551,0.484-1.029,0.596
			c-0.227,0.053-0.466,0.077-0.736,0.077c-0.203,0-0.412-0.015-0.613-0.029c-0.158-0.013-0.322-0.025-0.483-0.025
			c-0.277,0-0.413,0.046-0.491,0.08c-0.539,0.235-0.912,0.38-1.564,0.409c-0.333,0.016-0.547,0.064-0.82,0.187
			c-1.206,0.541-2.161,1.035-3.007,1.554c-0.204,0.124-0.419,0.238-0.629,0.348c-0.337,0.175-0.654,0.34-0.883,0.546
			c-0.454,0.406-0.855,0.651-1.481,0.904c-0.292,0.118-0.293,0.195-0.296,0.384c-0.003,0.243,0.03,0.473,0.065,0.716
			c0.083,0.579,0.185,1.298-0.276,2.143c-0.234,0.431-0.547,0.784-0.822,1.096c-0.304,0.342-0.583,0.657-0.716,1.007
			c-0.034,0.088-0.035,0.129,0.162,0.478c0.189,0.335,0.443,0.787,0.412,1.393c-0.07,1.414-1.341,1.786-2.024,1.986
			c-0.172,0.05-0.346,0.099-0.499,0.162c-0.746,0.31-1.687,1.033-1.834,1.539c-0.051,0.175,0.004,0.419,0.154,0.686
			c0.522,0.894,0.466,1.545-0.119,2.021c-0.276,0.224-0.583,0.285-0.787,0.325c-0.017,0.004-0.033,0.007-0.048,0.009
			c-0.059,0.223-0.2,0.422-0.396,0.544c-0.148,0.091-0.318,0.141-0.489,0.141c-0.097,0-0.193-0.016-0.286-0.049
			c-0.383-0.146-0.661-0.252-0.96-0.295l-0.18,0.006c-0.083,0.006-0.172,0.012-0.261,0.012c-0.085,0-0.17-0.005-0.255-0.016
			c-0.26-0.033-0.511-0.149-0.801-0.284c-0.077-0.035-0.177-0.082-0.279-0.126c0.008,0.023,0.016,0.046,0.022,0.067
			c0.101,0.307,0.201,0.614,0.188,0.943c-0.027,0.756-0.053,1.442-0.678,2.16c-0.499,0.574-1.112,0.591-1.478,0.602
			c-0.14,0.005-0.27,0.009-0.318,0.037c-0.096,0.055-0.184,0.116-0.269,0.176c-0.175,0.124-0.397,0.28-0.679,0.396
			c-0.441,0.182-1.007,0.324-1.596,0.401c-0.118,0.016-0.247,0.021-0.383,0.025c-0.042,0.001-0.092,0.003-0.14,0.005
			c0.004,0.05,0.023,0.151,0.023,0.151c0.009,0,0.039,0.03,0.066,0.062c0.1,0.119,0.255,0.303,0.351,0.567
			c0.152,0.421,0.121,0.779-0.095,1.065c-0.042,0.056-0.09,0.106-0.144,0.15c-0.161,0.134-0.397,0.216-0.606,0.216
			c-0.297,0-0.58-0.128-1.028-0.378c-0.017-0.01-0.033-0.019-0.048-0.027c-0.02,0.023-0.04,0.047-0.057,0.066
			c-0.133,0.154-0.27,0.306-0.431,0.435c-0.374,0.298-1.22,0.771-1.901,0.771C76.276,98.33,76.224,98.329,76.207,98.328z"/>
		<g>
			<path fill="#07B7A9" d="M81.106,45.111c0.094,0,0.197,0.033,0.313,0.1c0.088,0.051,0.156,0.103,0.221,0.152
				c0.135,0.103,0.263,0.2,0.514,0.247c0.392,0.074,0.456,0.102,0.757,0.327c0.135,0.101,0.276,0.127,0.413,0.152
				c0.116,0.021,0.225,0.041,0.331,0.106c0.111,0.068,0.14,0.163,0.178,0.284c0.026,0.082,0.052,0.167,0.108,0.249
				c0.131,0.192,0.308,0.274,0.479,0.354c0.057,0.027,0.116,0.054,0.175,0.086c0.331,0.18,0.541,0.408,0.785,0.673
				c0.046,0.05,0.093,0.101,0.141,0.152c0.05,0.053,0.099,0.104,0.146,0.153c0.359,0.373,0.619,0.643,0.695,1.212
				c0.019,0.143,0.027,0.289,0.036,0.443c0.022,0.387,0.044,0.786,0.25,1.131c0.133,0.223,0.447,0.271,0.699,0.31
				c0.057,0.009,0.11,0.017,0.155,0.026c0.059,0.013,0.12,0.023,0.184,0.034c0.216,0.037,0.439,0.076,0.591,0.198
				c0.111,0.089,0.182,0.191,0.257,0.299c0.112,0.16,0.228,0.326,0.473,0.433c0.332,0.144,0.65,0.224,0.973,0.243
				c0.077,0.005,0.153,0.006,0.229,0.007c0.286,0.005,0.533,0.009,0.754,0.193c0.367,0.306,0.499,1.203,0.429,1.687
				c-0.012,0.081-0.025,0.161-0.038,0.239c-0.094,0.562-0.183,1.094,0.449,1.506c0.16,0.105,0.285,0.151,0.405,0.151
				c0.121,0,0.226-0.045,0.359-0.103c0.052-0.023,0.11-0.048,0.176-0.073c0.108-0.042,0.274-0.092,0.446-0.092
				c0.187,0,0.331,0.059,0.428,0.175c0.143,0.172,0.149,0.424,0.155,0.668c0.002,0.069,0.003,0.136,0.008,0.2
				c0.012,0.16,0.056,0.291,0.1,0.418c0.042,0.124,0.082,0.24,0.09,0.378c0.008,0.14-0.031,0.276-0.073,0.421
				c-0.042,0.146-0.085,0.296-0.077,0.454c0.019,0.364,0.314,0.528,0.575,0.672l0.03,0.017c0.148,0.083,0.275,0.192,0.398,0.297
				c0.111,0.095,0.216,0.185,0.335,0.258c0.148,0.09,0.326,0.134,0.543,0.134c0.319,0,0.655-0.094,0.953-0.178
				c0.079-0.022,0.154-0.043,0.224-0.061c0.142-0.036,0.262-0.096,0.378-0.154c0.158-0.079,0.308-0.154,0.507-0.157
				c0.199,0,0.362,0.08,0.534,0.165c0.171,0.084,0.347,0.171,0.563,0.177c0.016,0,0.033,0.001,0.05,0.001
				c0.287,0,0.734-0.058,1.029-0.117c0.247-0.049,0.406-0.19,0.56-0.326c0.105-0.093,0.204-0.18,0.328-0.24
				c0.108-0.052,0.205-0.073,0.291-0.092c0.186-0.04,0.346-0.075,0.469-0.373c0.018-0.043,0.033-0.083,0.048-0.12
				c0.1-0.258,0.124-0.319,0.492-0.328l0.039,0c0.597,0,1.217,0.33,1.764,0.621l0.173,0.092c0.116,0.061,0.206,0.186,0.293,0.307
				c0.088,0.122,0.171,0.237,0.282,0.294c0.056,0.028,0.122,0.043,0.194,0.043c0.226,0,0.49-0.14,0.665-0.233l0.205-0.105
				c0.257-0.129,0.547-0.276,0.746-0.434c0.094-0.075,0.163-0.146,0.224-0.208c0.139-0.142,0.231-0.236,0.503-0.262
				c0.057-0.005,0.112-0.008,0.165-0.008c0.4,0,0.685,0.159,0.955,0.528c0.04,0.055,0.079,0.129,0.121,0.206
				c0.086,0.161,0.174,0.327,0.311,0.412c0.128,0.08,0.279,0.091,0.408,0.091c0.048,0,0.096-0.002,0.144-0.003
				c0.046-0.002,0.092-0.003,0.138-0.003c0.101,0,0.172,0.008,0.233,0.027c0.157,0.049,0.221,0.132,0.295,0.229
				c0.063,0.082,0.135,0.176,0.268,0.249c0.15,0.083,0.326,0.094,0.462,0.094c0.068,0,0.137-0.003,0.205-0.006
				c0.065-0.003,0.129-0.005,0.189-0.005c0.069,0,0.133,0.003,0.184,0.011c0.288,0.046,0.372,0.154,0.488,0.303
				c0.051,0.066,0.11,0.141,0.191,0.217c0.116,0.109,0.274,0.192,0.426,0.271c0.24,0.125,0.488,0.255,0.573,0.487
				c0.101,0.274-0.08,0.627-0.284,0.866c-0.21,0.247-0.446,0.483-0.675,0.712c-0.317,0.317-0.644,0.645-0.921,1.016
				c-0.499,0.671-0.994,1.325-1.553,1.96c-0.011,0.013-1.099,1.279-0.955,1.814c0.067,0.25,0.485,0.649,0.732,0.7
				c0.038,0.008,0.076,0.012,0.113,0.012c0.211,0,0.381-0.118,0.545-0.232c0.132-0.092,0.256-0.178,0.392-0.198
				c0.048-0.007,0.096-0.011,0.142-0.011c0.5,0,0.796,0.427,1.082,0.839c0.089,0.128,0.173,0.249,0.263,0.358
				c0.123,0.15,0.306,0.305,0.499,0.469c0.413,0.351,0.881,0.75,0.879,1.191c-0.001,0.299-0.243,0.405-0.45,0.405
				c-0.056,0-0.113-0.007-0.168-0.022c-0.052-0.013-0.1-0.039-0.152-0.065c-0.071-0.037-0.145-0.075-0.236-0.088
				c-0.026-0.004-0.052-0.005-0.076-0.005c-0.055,0-0.105,0.008-0.152,0.016c-0.042,0.007-0.083,0.012-0.124,0.012
				c-0.032,0-0.063-0.003-0.094-0.012c-0.26-0.073-0.453-0.287-0.658-0.514c-0.267-0.295-0.543-0.602-0.989-0.602
				c-0.015,0-0.03,0-0.046,0.001c-0.145,0.006-0.256,0.029-0.355,0.05c-0.097,0.02-0.187,0.035-0.284,0.035
				c-0.077,0-0.158-0.009-0.251-0.033c-0.133-0.033-0.224-0.048-0.304-0.048c-0.203,0-0.331,0.093-0.558,0.271
				c-0.155,0.122-0.325,0.238-0.49,0.35c-0.139,0.095-0.283,0.193-0.419,0.295c-0.089,0.067-0.171,0.139-0.251,0.209
				c-0.196,0.172-0.381,0.335-0.639,0.395c-0.156,0.036-0.33,0.054-0.532,0.054c-0.18,0-0.366-0.014-0.545-0.027
				c-0.181-0.014-0.368-0.028-0.551-0.028c-0.338,0-0.608,0.049-0.851,0.155c-0.468,0.204-0.736,0.312-1.245,0.335
				c-0.447,0.021-0.768,0.094-1.145,0.264c-1.242,0.558-2.23,1.068-3.109,1.607c-0.185,0.113-0.384,0.217-0.576,0.317
				c-0.37,0.193-0.753,0.392-1.067,0.674c-0.375,0.337-0.682,0.523-1.217,0.74c-0.584,0.236-0.849,0.607-0.857,1.202
				c-0.004,0.313,0.035,0.59,0.073,0.857c0.077,0.537,0.143,1.001-0.175,1.586c-0.188,0.345-0.455,0.646-0.714,0.938
				c-0.336,0.379-0.684,0.771-0.876,1.273c-0.195,0.507,0.016,0.88,0.219,1.24c0.155,0.274,0.315,0.557,0.297,0.906
				c-0.039,0.779-0.722,0.978-1.383,1.171c-0.201,0.059-0.409,0.119-0.591,0.195c-0.763,0.317-2.075,1.172-2.349,2.117
				c-0.12,0.415-0.039,0.89,0.233,1.375c0.018,0.031,0.036,0.063,0.055,0.096c0.198,0.338,0.307,0.575,0.043,0.789
				c-0.104,0.084-0.247,0.112-0.399,0.143c-0.165,0.033-0.336,0.067-0.475,0.176c-0.187,0.147-0.245,0.319-0.266,0.503
				c-0.014-0.005-0.028-0.011-0.042-0.016c-0.357-0.137-0.694-0.266-1.094-0.322c-0.053-0.007-0.106-0.01-0.159-0.01
				c-0.069,0-0.137,0.005-0.205,0.009c-0.066,0.005-0.134,0.009-0.202,0.009c-0.047,0-0.095-0.002-0.142-0.008
				c-0.123-0.016-0.326-0.11-0.541-0.21c-0.349-0.162-0.734-0.342-1.056-0.342c-0.082,0-0.16,0.012-0.232,0.038
				c-0.135,0.05-0.238,0.149-0.305,0.295c-0.136,0.296-0.01,0.678,0.112,1.048c0.077,0.235,0.15,0.457,0.144,0.625l-0.004,0.094
				c-0.022,0.6-0.038,1.034-0.455,1.514c-0.24,0.276-0.512,0.284-0.827,0.294c-0.243,0.007-0.495,0.015-0.741,0.156
				c-0.118,0.068-0.228,0.144-0.334,0.218c-0.167,0.116-0.324,0.226-0.508,0.302c-0.367,0.151-0.867,0.276-1.371,0.342
				c-0.089,0.012-0.188,0.015-0.291,0.018c-0.322,0.01-0.688,0.021-0.903,0.317c-0.191,0.264-0.089,0.812-0.067,0.919
				c0.041,0.195,0.15,0.326,0.256,0.453c0.08,0.095,0.155,0.186,0.195,0.298c0.067,0.184,0.033,0.22,0.033,0.22
				c-0.008,0.006-0.02,0.01-0.035,0.01c-0.119,0-0.445-0.183-0.594-0.266c-0.189-0.106-0.309-0.171-0.388-0.185
				c-0.047-0.008-0.092-0.012-0.135-0.012c-0.323,0-0.513,0.223-0.698,0.439c-0.094,0.109-0.191,0.223-0.308,0.316
				c-0.317,0.253-0.962,0.576-1.344,0.576c-0.012,0-0.023,0-0.035-0.001c0.016-0.213,0.192-0.526,0.336-0.782
				c0.064-0.114,0.125-0.222,0.166-0.31c0.115-0.25,0.235-0.499,0.354-0.746c0.131-0.272,0.267-0.554,0.393-0.833
				c0.285-0.628,0.028-1.151-0.285-1.676c-0.073-0.122-0.144-0.247-0.216-0.373c-0.064-0.112-0.128-0.225-0.194-0.337
				c-0.089-0.15-0.203-0.268-0.314-0.382c-0.091-0.094-0.176-0.182-0.25-0.287c-0.591-0.851-0.641-1.65-0.704-2.66l-0.002-0.028
				c-0.069-1.095-0.042-2.582,0.982-2.846c0.106-0.027,0.198-0.04,0.28-0.04c0.313,0,0.477,0.181,0.673,0.399
				c0.12,0.133,0.244,0.27,0.416,0.385c0.155,0.104,0.312,0.156,0.465,0.156c0.068,0,0.136-0.01,0.201-0.032
				c0.265-0.086,0.496-0.349,0.632-0.72c0.465-1.27,0.644-2.86-0.249-3.513c-0.08-0.058-0.16-0.134-0.245-0.213
				c-0.15-0.14-0.305-0.286-0.481-0.358c-0.109-0.045-0.221-0.062-0.334-0.062c-0.162,0-0.326,0.035-0.486,0.069
				c-0.112,0.024-0.218,0.046-0.32,0.056c-0.092,0.009-0.248,0.021-0.436,0.021c-0.467,0-1.132-0.072-1.508-0.433
				c-0.097-0.093-0.189-0.212-0.287-0.338c-0.25-0.323-0.532-0.685-0.976-0.685c-0.032,0-0.066,0.002-0.1,0.006
				c-0.308,0.037-0.509,0.235-0.703,0.426c-0.199,0.196-0.374,0.369-0.645,0.369c-0.037,0-0.077-0.003-0.118-0.01
				c-0.494-0.083-0.767-0.544-1.057-1.032c-0.305-0.515-0.621-1.047-1.225-1.127c-0.079-0.01-0.159-0.015-0.24-0.015
				c-0.144,0-0.289,0.013-0.43,0.026c-0.138,0.013-0.273,0.025-0.404,0.025c-0.23,0-0.446-0.038-0.637-0.181
				c-0.174-0.13-0.299-0.308-0.431-0.497c-0.179-0.255-0.364-0.519-0.678-0.652c-0.161-0.068-0.347-0.11-0.527-0.15
				c-0.396-0.089-0.77-0.174-0.937-0.508c-0.143-0.285-0.165-0.65-0.187-1.003c-0.013-0.22-0.027-0.447-0.071-0.649l-0.032-0.146
				c-0.139-0.642-0.24-1.106-0.138-1.77c0.054-0.35,0.202-0.65,0.358-0.968c0.097-0.196,0.196-0.399,0.274-0.617
				c0.072-0.202,0.136-0.411,0.199-0.614c0.114-0.368,0.232-0.749,0.397-1.108c0.304-0.661,0.355-1.337,0.142-1.854
				c-0.068-0.165-0.17-0.303-0.27-0.437c-0.074-0.1-0.151-0.204-0.211-0.317c-0.107-0.201-0.107-0.39-0.107-0.608
				c0-0.082,0-0.167-0.006-0.257c-0.038-0.603-0.294-1.317-0.502-1.745c-0.055-0.112-0.125-0.215-0.193-0.314
				c-0.096-0.139-0.186-0.271-0.233-0.425c-0.053-0.172-0.059-0.385-0.064-0.59c-0.003-0.11-0.006-0.225-0.017-0.33
				c-0.027-0.267-0.124-0.507-0.235-0.737c0.218-0.14,0.477-0.238,0.729-0.332c0.052-0.02,0.104-0.039,0.155-0.059
				c0.29-0.112,0.583-0.205,0.866-0.295c0.608-0.194,1.182-0.377,1.727-0.727c0.343-0.221,0.785-0.388,1.087-0.495
				c0.328-0.116,0.675-0.193,1.011-0.268c0.129-0.029,0.257-0.057,0.385-0.088c1.482-0.358,2.896-1.248,4.323-2.722
				c0.124-0.128,0.247-0.259,0.371-0.39c0.176-0.186,0.358-0.379,0.538-0.56c0.214-0.215,0.443-0.414,0.665-0.606
				c0.334-0.29,0.679-0.589,0.973-0.945c0.117-0.141,0.24-0.272,0.359-0.399c0.333-0.354,0.647-0.687,0.79-1.192
				c0.058-0.205,0.072-0.413,0.086-0.613c0.008-0.113,0.016-0.23,0.032-0.345c0.034-0.248,0.113-0.455,0.196-0.674
				c0.022-0.059,0.045-0.119,0.068-0.181c0.034-0.094,0.06-0.235,0.091-0.399c0.088-0.471,0.208-1.113,0.588-1.113
				c0.013,0,0.026,0.001,0.039,0.002c0.03,0.003,0.049,0.026,0.087,0.078c0.047,0.065,0.111,0.153,0.246,0.153l0.02-0.001
				c0.231-0.015,0.259-0.154,0.281-0.266c0.006-0.029,0.012-0.059,0.022-0.091c0.067-0.214,0.054-0.468,0.042-0.714
				c-0.004-0.089-0.009-0.176-0.009-0.257c0-0.107,0.002-0.212,0.004-0.315c0.011-0.554,0.021-1.077-0.321-1.585
				c-0.09-0.135-0.173-0.278-0.253-0.417c-0.193-0.335-0.392-0.682-0.712-0.903c-0.061-0.042-0.161-0.093-0.277-0.152
				c-0.272-0.138-0.727-0.37-0.744-0.567c-0.002-0.021-0.007-0.086,0.111-0.174c0.071-0.053,0.145-0.079,0.227-0.079
				c0.172,0,0.358,0.111,0.555,0.228c0.221,0.131,0.45,0.267,0.693,0.267c0.058,0,0.115-0.008,0.169-0.023
				c0.225-0.064,0.381-0.232,0.533-0.395C80.762,45.264,80.904,45.111,81.106,45.111 M81.106,43.317
				c-0.621,0-1.084,0.252-1.405,0.506c-0.281-0.133-0.637-0.252-1.055-0.252c-0.469,0-0.919,0.151-1.3,0.436
				c-0.582,0.435-0.882,1.077-0.825,1.761c0.103,1.195,1.154,1.729,1.718,2.016c0.018,0.009,0.035,0.018,0.051,0.026
				c0.054,0.077,0.138,0.221,0.196,0.323c0.1,0.175,0.206,0.355,0.32,0.525c0.022,0.064,0.021,0.289,0.018,0.471
				c-0.642,0.377-1.074,1.148-1.29,2.305c-0.011,0.061-0.021,0.117-0.031,0.164l-0.041,0.11c-0.099,0.26-0.234,0.616-0.296,1.065
				c-0.022,0.156-0.034,0.314-0.044,0.468c-0.006,0.09-0.015,0.213-0.024,0.254c-0.022,0.078-0.198,0.265-0.368,0.445
				c-0.145,0.154-0.294,0.314-0.436,0.485c-0.2,0.241-0.475,0.48-0.767,0.733c-0.234,0.203-0.5,0.434-0.76,0.695
				c-0.19,0.191-0.381,0.393-0.566,0.589c-0.124,0.132-0.242,0.257-0.361,0.38c-1.183,1.222-2.313,1.95-3.455,2.226
				c-0.116,0.028-0.231,0.054-0.347,0.08c-0.377,0.084-0.795,0.178-1.224,0.329c-0.387,0.136-0.96,0.355-1.461,0.678
				c-0.346,0.222-0.768,0.357-1.302,0.527c-0.316,0.101-0.642,0.206-0.966,0.33l-0.118,0.045c-0.312,0.117-0.709,0.266-1.09,0.51
				c-0.763,0.49-1.041,1.472-0.647,2.288c0.056,0.117,0.068,0.158,0.07,0.165c0.002,0.037,0.003,0.106,0.004,0.172
				c0.008,0.279,0.019,0.66,0.142,1.064c0.127,0.418,0.334,0.718,0.47,0.917c0.024,0.035,0.049,0.068,0.07,0.104
				c0.155,0.32,0.298,0.791,0.314,1.051c0.003,0.051,0.002,0.099,0.002,0.146c0,0.319,0,0.853,0.317,1.449
				c0.122,0.229,0.255,0.409,0.351,0.54c0.018,0.024,0.036,0.048,0.053,0.072c-0.003,0.05-0.019,0.2-0.113,0.406
				c-0.213,0.464-0.355,0.921-0.48,1.324c-0.056,0.182-0.113,0.368-0.177,0.547c-0.042,0.12-0.115,0.268-0.193,0.425
				c-0.189,0.385-0.425,0.864-0.521,1.486c-0.153,0.992,0.005,1.719,0.157,2.423l0.032,0.146c0.015,0.068,0.026,0.248,0.033,0.379
				c0.028,0.458,0.066,1.085,0.374,1.698c0.549,1.093,1.628,1.337,2.146,1.453c0.029,0.006,0.058,0.013,0.087,0.019
				c0.014,0.021,0.029,0.042,0.043,0.063c0.178,0.255,0.422,0.603,0.826,0.904c0.479,0.358,1.055,0.538,1.711,0.538
				c0.183,0,0.373-0.015,0.567-0.032c0.013-0.001,0.025-0.002,0.038-0.004c0.051,0.081,0.107,0.174,0.15,0.248
				c0.37,0.623,0.988,1.665,2.303,1.886c0.138,0.023,0.277,0.035,0.415,0.035c0.569,0,1.01-0.191,1.339-0.409
				c0.04,0.044,0.083,0.087,0.128,0.131c0.645,0.62,1.57,0.934,2.751,0.934c0.262,0,0.48-0.016,0.609-0.029
				c0.117-0.012,0.236-0.031,0.36-0.055c0.054,0.048,0.107,0.094,0.159,0.136c0.014,0.078,0.021,0.205,0.009,0.372
				c-0.271-0.118-0.593-0.199-0.972-0.199c-0.236,0-0.481,0.033-0.73,0.097c-1.708,0.44-2.49,2.02-2.322,4.694
				c0.073,1.163,0.146,2.337,1.023,3.599c0.157,0.226,0.318,0.392,0.436,0.513c0.025,0.026,0.052,0.052,0.077,0.079
				c0.052,0.089,0.104,0.18,0.155,0.27c0.082,0.144,0.16,0.28,0.239,0.412c0.05,0.083,0.085,0.146,0.11,0.193
				c-0.097,0.208-0.197,0.416-0.294,0.618c-0.124,0.258-0.248,0.515-0.367,0.775c-0.024,0.05-0.06,0.111-0.097,0.176
				c-0.221,0.392-0.52,0.923-0.565,1.535c-0.035,0.48,0.124,0.954,0.441,1.316c0.318,0.362,0.768,0.58,1.248,0.607
				c0.033,0.002,0.101,0.004,0.134,0.004c0.987,0,2.041-0.632,2.461-0.966c0.041-0.033,0.081-0.066,0.118-0.099
				c0.281,0.12,0.567,0.198,0.887,0.198c0.374,0,0.764-0.124,1.072-0.341l0,0c0.03-0.021,0.059-0.043,0.088-0.067
				c0.011-0.009,0.021-0.017,0.032-0.026h0c0.455-0.385,0.797-1.06,0.575-1.943c0.4-0.088,0.775-0.202,1.098-0.335
				c0.367-0.151,0.648-0.347,0.853-0.49c0.024-0.017,0.048-0.034,0.073-0.051c0.009,0,0.019,0,0.028-0.001
				c0.445-0.013,1.371-0.04,2.127-0.91c0.764-0.879,0.856-1.763,0.886-2.446c0.08,0.006,0.159,0.009,0.238,0.009
				c0.109,0,0.217-0.006,0.323-0.013l0.051-0.003c0.182,0.034,0.38,0.11,0.645,0.212c0.211,0.081,0.437,0.121,0.661,0.121
				c0.325,0,0.649-0.084,0.929-0.254c0.231-0.14,0.429-0.325,0.579-0.542c0.235-0.073,0.513-0.194,0.783-0.412
				c0.446-0.361,1.375-1.385,0.377-3.09l-0.039-0.066c-0.014-0.025-0.025-0.047-0.033-0.065c0.179-0.237,0.759-0.68,1.273-0.893
				c0.091-0.038,0.257-0.086,0.403-0.129c0.704-0.206,2.571-0.75,2.674-2.803c0.041-0.831-0.284-1.445-0.499-1.828
				c0.107-0.15,0.255-0.317,0.409-0.491c0.295-0.333,0.661-0.746,0.946-1.27c0.604-1.108,0.467-2.065,0.376-2.698
				c-0.014-0.095-0.026-0.182-0.036-0.263c0.583-0.263,1.006-0.541,1.459-0.947c0.146-0.131,0.427-0.277,0.698-0.419
				c0.231-0.12,0.466-0.245,0.685-0.379c0.812-0.498,1.735-0.974,2.906-1.5c0.156-0.07,0.254-0.097,0.493-0.108
				c0.802-0.037,1.285-0.223,1.878-0.482c0,0,0,0,0.001,0c0.007,0,0.049-0.007,0.135-0.007c0.138,0,0.279,0.012,0.415,0.022
				c0.226,0.017,0.457,0.032,0.681,0.032c0.34,0,0.646-0.033,0.938-0.101c0.697-0.162,1.148-0.557,1.417-0.794
				c0.047-0.041,0.093-0.084,0.145-0.123c0.114-0.085,0.235-0.167,0.351-0.246c0.115-0.078,0.232-0.158,0.346-0.241
				c0.083,0.008,0.165,0.011,0.247,0.011c0.142,0,0.271-0.011,0.386-0.026c0.286,0.314,0.743,0.789,1.462,0.99
				c0.189,0.052,0.382,0.078,0.577,0.078c0.02,0,0.04,0,0.06-0.001c0.069,0.026,0.146,0.052,0.23,0.073
				c0.2,0.052,0.409,0.079,0.618,0.079c1.254,0,2.24-0.963,2.244-2.192c0.005-1.274-0.944-2.081-1.511-2.563
				c-0.096-0.082-0.241-0.205-0.284-0.253c-0.051-0.062-0.105-0.145-0.165-0.231c-0.27-0.389-0.757-1.091-1.582-1.425
				c0.362-0.449,0.705-0.904,1.048-1.366c0.199-0.267,0.467-0.535,0.75-0.819c0.243-0.244,0.517-0.517,0.772-0.818
				c0.688-0.809,0.913-1.799,0.601-2.648c-0.325-0.882-1.068-1.271-1.426-1.458c-0.018-0.009-0.036-0.019-0.054-0.028
				c-0.201-0.257-0.649-0.794-1.601-0.946c-0.144-0.023-0.291-0.033-0.466-0.033c-0.013,0-0.026,0-0.039,0
				c-0.198-0.177-0.474-0.363-0.85-0.48c-0.146-0.045-0.293-0.075-0.45-0.092c-0.762-1.029-1.719-1.246-2.39-1.246
				c-0.107,0-0.219,0.005-0.335,0.016c-0.924,0.088-1.39,0.563-1.614,0.792c-0.018,0.018-0.035,0.04-0.061,0.06
				c-0.032,0.024-0.1,0.062-0.177,0.102c-0.079-0.056-0.165-0.11-0.258-0.159l-0.166-0.088c-0.657-0.35-1.56-0.83-2.604-0.83
				c-0.007,0-0.054,0-0.062,0.001c-0.897,0.022-1.528,0.361-1.93,1.034c-0.04,0.017-0.082,0.036-0.124,0.056
				c-0.308,0.149-0.527,0.327-0.68,0.461c-0.11,0.016-0.221,0.029-0.311,0.037c-0.254-0.125-0.703-0.335-1.296-0.335
				c-0.635,0.009-1.074,0.228-1.31,0.346c-0.02,0.01-0.041,0.021-0.063,0.031c-0.068,0.018-0.139,0.038-0.212,0.058
				c-0.081,0.023-0.187,0.052-0.281,0.076c-0.045-0.038-0.094-0.078-0.147-0.12c0.013-0.123,0.018-0.258,0.01-0.401
				c-0.022-0.384-0.123-0.68-0.183-0.856l-0.011-0.033c0-0.014-0.001-0.028-0.001-0.042c-0.01-0.398-0.028-1.127-0.571-1.779
				c-0.438-0.526-1.074-0.817-1.792-0.82c0.024-0.903-0.229-2.184-1.092-2.901c-0.706-0.588-1.464-0.601-1.871-0.607
				c-0.05-0.001-0.099-0.001-0.148-0.004c-0.041-0.002-0.095-0.008-0.167-0.027c-0.113-0.155-0.279-0.36-0.524-0.556
				c-0.426-0.342-0.884-0.467-1.219-0.532c-0.01-0.157-0.022-0.305-0.041-0.451c-0.154-1.15-0.747-1.766-1.18-2.216l-0.135-0.141
				l-0.109-0.118c-0.308-0.334-0.671-0.728-1.262-1.05c-0.018-0.01-0.035-0.019-0.053-0.028c-0.136-0.286-0.373-0.633-0.806-0.898
				c-0.317-0.195-0.614-0.275-0.818-0.317c-0.365-0.248-0.658-0.369-1.12-0.468c-0.101-0.075-0.207-0.148-0.335-0.222
				C81.926,43.432,81.519,43.317,81.106,43.317L81.106,43.317z"/>
		</g>
	</g>
</g>
</svg>
