<?xml version="1.0" encoding="utf-8"?>
<!-- Generator: Adobe Illustrator 26.0.1, SVG Export Plug-In . SVG Version: 6.00 Build 0)  -->
<svg version="1.1" id="Capa_1" xmlns="http://www.w3.org/2000/svg" xmlns:xlink="http://www.w3.org/1999/xlink" x="0px" y="0px"
	 viewBox="0 0 170.66 187.916" enable-background="new 0 0 170.66 187.916" xml:space="preserve">
<g opacity="0.1">
	
		<ellipse transform="matrix(0.9239 -0.3827 0.3827 0.9239 -32.7626 40.4632)" fill="#07B7A9" cx="85.33" cy="102.586" rx="79.83" ry="79.83"/>
	<path fill="#07B7A9" d="M85.33,28.256c41.051,0,74.33,33.279,74.33,74.33c0,41.051-33.279,74.33-74.33,74.33S11,143.638,11,102.586
		C11,61.535,44.279,28.256,85.33,28.256 M85.33,17.256C38.279,17.256,0,55.535,0,102.586c0,47.051,38.279,85.33,85.33,85.33
		s85.33-38.279,85.33-85.33C170.66,55.535,132.381,17.256,85.33,17.256L85.33,17.256z"/>
</g>
<g>
	<g>
		<g>
			<path fill="#F5CD55" d="M72.092,23.628c-0.144,1.033-1.435,1.421-2.119,0.633c-3.365-3.876-10.027-12.569-3.614-14.136
				C73.416,8.402,72.777,18.711,72.092,23.628z"/>
		</g>
		<g>
			<path fill="#F5CD55" d="M98.911,25.515c-0.848,0.608-2.019-0.061-1.919-1.1c0.491-5.109,2.202-15.927,7.756-12.358
				C110.858,15.984,102.946,22.624,98.911,25.515z"/>
		</g>
		<g>
			<path fill="#F5CD55" d="M86.796,22.891c-0.771,1.373-2.82,1.167-3.36-0.344c-2.657-7.431-4.394-22.046,2.616-22.046
				C93.534,0.501,90.466,16.356,86.796,22.891z"/>
		</g>
	</g>
</g>
<g>
	<g id="jPTCIr_00000036967646713989079600000015767463872587247266_">
		<g>
			<path fill="#07B7A9" d="M61.275,132.557c0-1.04,0-1.926,0-2.948c-0.341,0-0.663,0-0.985,0c-3.461,0-6.923,0.005-10.384-0.001
				c-4.592-0.009-7.721-3.142-7.724-7.745c-0.005-9.559-0.007-19.119,0.001-28.678c0.003-4.543,3.145-7.69,7.676-7.697
				c5.759-0.009,11.518-0.011,17.277,0.011c0.582,0.002,0.942-0.164,1.292-0.638c1.394-1.889,3.193-3.293,5.371-4.17
				c0.582-0.234,0.759-0.532,0.748-1.147c-0.04-2.328-0.009-4.657-0.019-6.985c-0.006-1.252-0.536-1.77-1.803-1.779
				c-1.346-0.009-2.693-0.002-4.121-0.002c-0.723,4.634-3.059,8.153-7.236,10.325c-2.884,1.5-5.941,1.81-9.102,1.062
				c-6.253-1.482-10.646-7.6-10.049-13.984c0.609-6.513,5.847-11.662,12.269-12.09c6.562-0.438,12.991,4.093,14.119,11.746
				c1.249,0,2.523,0,3.797,0c3.369,0.001,5.069,1.71,5.07,5.098c0.001,2.2,0,4.401,0,6.651c0.977,0,1.882,0,2.941,0
				c0-0.838-0.003-1.711,0-2.583c0.011-2.928,1.832-4.745,4.769-4.753c2.726-0.007,5.452-0.007,8.178-0.013
				c0.057,0,0.113-0.031,0.286-0.082c0-0.595,0.026-1.228-0.009-1.859c-0.027-0.481,0.131-0.711,0.62-0.82
				c0.835-0.185,1.653-0.445,2.478-0.675c1.143-0.319,1.37-0.892,0.772-1.947c-0.511-0.901-1.023-1.802-1.559-2.746
				c1.833-1.832,3.621-3.635,5.441-5.405c0.144-0.14,0.567-0.15,0.771-0.046c0.845,0.429,1.651,0.933,2.48,1.394
				c0.776,0.432,1.442,0.162,1.685-0.684c0.311-1.084,0.604-2.174,0.907-3.27c2.724,0,5.385,0,8.119,0
				c0.301,1.084,0.596,2.172,0.906,3.255c0.244,0.852,0.905,1.133,1.675,0.706c0.985-0.547,1.961-1.112,2.875-1.632
				c1.948,1.948,3.83,3.828,5.782,5.78c-0.524,0.915-1.091,1.889-1.64,2.873c-0.427,0.766-0.144,1.431,0.708,1.674
				c1.083,0.31,2.17,0.605,3.252,0.906c0,2.736,0,5.396,0,8.116c-1.067,0.299-2.125,0.593-3.181,0.892
				c-0.97,0.275-1.221,0.893-0.721,1.783c0.45,0.801,0.933,1.583,1.345,2.403c0.103,0.206,0.095,0.627-0.045,0.772
				c-1.769,1.82-3.572,3.608-5.403,5.44c-0.998-0.567-1.949-1.115-2.907-1.649c-0.94-0.523-2.29,0.273-2.292,1.346
				c-0.003,1.896-0.001,3.791-0.001,5.773c1.662-0.479,3.098-0.161,4.362,0.853c2.558-1.88,5.816-1.359,7.216,1.984
				c0.889,0,1.785-0.138,2.621,0.027c2.034,0.402,3.427,2.128,3.434,4.201c0.022,6.526,0.026,13.052-0.011,19.578
				c-0.011,1.94-0.645,3.732-1.74,5.339c-0.517,0.759-1.01,1.556-1.647,2.205c-1.065,1.086-1.147,2.347-0.918,3.818
				c0.911,0,1.843,0,2.814,0c0,4.93,0,9.759,0,14.652c-10.737,0-21.468,0-32.253,0c0-4.836,0-9.665,0-14.595
				c0.901,0,1.832,0,2.787,0c0.303-1.752,0.096-3.295-0.996-4.717c-0.18,0.111-0.387,0.224-0.578,0.358
				c-1.292,0.907-2.722,1.37-4.302,1.369c-3.523-0.001-7.045,0-10.568,0c-0.331,0-0.662,0-1.046,0c0,0.976,0,1.883,0,2.942
				c0.414,0,0.857-0.004,1.3,0.001c3.018,0.03,5.342,1.958,5.906,4.896c0.445,2.32-0.863,3.925-3.218,3.926
				c-9.925,0.004-19.85,0.002-29.775,0.002c-0.735,0-1.471,0.017-2.205-0.005c-1.74-0.052-2.964-1.353-2.938-3.101
				c0.046-3.027,2.564-5.589,5.623-5.71C60.114,132.539,60.658,132.557,61.275,132.557z M118.643,104.564
				c0-1.975,0.014-3.843-0.006-5.711c-0.01-0.949-0.599-1.572-1.426-1.594c-0.861-0.023-1.468,0.622-1.504,1.611
				c-0.012,0.337-0.003,0.674-0.003,1.011c0,1.552,0,3.104,0,4.659c-1.037,0-1.966,0-2.941,0c0-0.399,0-0.733,0-1.067
				c0-7.2,0-14.4,0-21.6c0-0.276,0.014-0.553-0.009-0.827c-0.073-0.864-0.691-1.454-1.49-1.438
				c-0.763,0.015-1.354,0.584-1.431,1.401c-0.026,0.273-0.011,0.551-0.011,0.827c0,8.916,0.028,17.831-0.033,26.746
				c-0.008,1.22-0.283,2.508-0.741,3.64c-1.104,2.727-1.177,2.683-4.095,2.644c-0.556-0.007-0.786-0.148-0.897-0.736
				c-0.556-2.946-1.144-5.887-1.773-8.818c-0.637-2.97-3.283-5.166-6.122-5.154c-0.965,0.004-1.29,0.539-0.801,1.353
				c0.283,0.472,0.589,0.933,0.915,1.376c1.189,1.616,1.884,3.413,2.095,5.412c0.18,1.705,0.351,3.414,0.634,5.103
				c0.27,1.618,0.454,3.307,1.075,4.798c1.173,2.819,2.57,5.552,3.996,8.257c0.95,1.802,1.612,3.613,1.342,5.677
				c-0.014,0.11,0.031,0.228,0.051,0.354c6.852,0,13.662,0,20.529,0c0-0.73,0.051-1.405-0.012-2.068
				c-0.088-0.913,0.183-1.643,0.77-2.345c0.804-0.962,1.53-1.991,2.265-3.008c0.884-1.224,1.375-2.603,1.379-4.113
				c0.018-6.342,0.013-12.684,0.007-19.026c-0.001-1.075-0.589-1.737-1.479-1.729c-0.887,0.008-1.443,0.668-1.456,1.752
				c-0.01,0.874-0.002,1.748-0.002,2.603c-1.051,0-1.958,0-2.941,0c0-0.257,0-0.464,0-0.672c-0.001-1.716,0.02-3.432-0.013-5.147
				c-0.017-0.878-0.645-1.47-1.445-1.478c-0.8-0.008-1.413,0.583-1.473,1.452c-0.029,0.427-0.009,0.857-0.009,1.286
				c-0.001,1.519,0,3.038,0,4.566C120.553,104.564,119.646,104.564,118.643,104.564z M92.132,94.343
				c-1.13,7.372-6.884,11.38-12.363,11.71c-2.968,0.179-5.709-0.559-8.172-2.231c-3.351-2.275-5.23-5.485-5.824-9.451
				c-4.951,0-9.832,0-14.699,0c0,8.833,0,17.604,0,26.369c14.698,0,29.325,0,44.044,0c0-0.34,0-0.638,0-0.935
				c0-2.94,0.03-5.881-0.007-8.821c-0.064-5.139,0.592-3.594-2.25-7.923c-0.101-0.153-0.2-0.309-0.282-0.473
				c-0.912-1.834-0.208-4.006,1.608-4.959c0.295-0.155,0.604-0.281,0.873-0.405c0-0.981,0-1.917,0-2.881
				C94.061,94.343,93.121,94.343,92.132,94.343z M66.413,88.427c-0.379,0-0.684,0-0.989,0c-5.114,0-10.229-0.001-15.343,0
				c-3.195,0.001-4.959,1.752-4.96,4.928c-0.002,9.435-0.001,18.869,0,28.304c0,3.257,1.738,5.008,4.973,5.009
				c11.729,0.001,23.458,0,35.188,0c3.706,0,7.411-0.006,11.117,0.003c1.26,0.003,2.345-0.414,3.214-1.319
				c0.169-0.176,0.309-0.578,0.224-0.77c-0.51-1.153-1.09-2.275-1.72-3.56c-0.568,2.129-1.914,2.731-3.844,2.725
				c-14.302-0.039-28.603-0.02-42.905-0.023c-2.136,0-3.302-1.163-3.303-3.291c-0.004-8.577-0.003-17.154,0-25.73
				c0.001-2.171,1.17-3.332,3.352-3.333c4.471-0.003,8.942,0,13.414-0.003c0.322,0,0.645-0.027,0.914-0.038
				C65.975,90.32,66.181,89.43,66.413,88.427z M106.881,84.802c0-0.984-0.055-1.632,0.014-2.267
				c0.087-0.813-0.188-1.303-0.875-1.797c-3.047-2.192-4.282-6.167-3.123-9.734c1.156-3.56,4.51-6.048,8.228-6.105
				c3.865-0.059,7.315,2.384,8.541,6.049c1.235,3.693-0.102,7.687-3.329,9.997c-0.25,0.179-0.584,0.453-0.603,0.703
				c-0.071,0.956-0.029,1.92-0.029,3.228c1.495-1.659,2.633-0.681,3.8,0.019c0.184,0.11,0.363,0.25,0.563,0.302
				c0.177,0.046,0.457,0.065,0.561-0.037c0.765-0.747,1.745-1.421,2.137-2.34c0.205-0.481-0.642-1.41-1.016-2.136
				c-0.07-0.136-0.195-0.261-0.215-0.402c-0.034-0.249-0.078-0.533,0.006-0.756c0.379-0.999,0.565-2.235,1.275-2.897
				c0.703-0.655,1.951-0.724,2.96-1.051c0.056-0.018,0.107-0.056,0.184-0.097c0-1.175,0-2.363,0-3.575
				c-0.671-0.192-1.307-0.435-1.966-0.546c-0.871-0.147-1.407-0.516-1.609-1.443c-0.14-0.644-0.562-1.221-0.766-1.858
				c-0.105-0.328-0.12-0.774,0.021-1.073c0.385-0.817,0.875-1.585,1.379-2.47c-0.643-0.597-1.288-1.085-1.792-1.691
				c-0.582-0.7-1.121-0.8-1.822-0.226c-1.167,0.956-2.381,1.208-3.695,0.243c-0.26-0.191-0.616-0.286-0.942-0.345
				c-0.638-0.116-0.897-0.502-1.026-1.105c-0.171-0.797-0.427-1.575-0.645-2.355c-1.242,0-2.401,0-3.618,0
				c-0.158,0.563-0.377,1.108-0.455,1.673c-0.156,1.121-0.849,1.528-1.811,2.063c-1.718,0.955-3.055,0.664-4.475-0.4
				c-0.187-0.14-0.652-0.2-0.784-0.077c-0.782,0.726-1.753,1.412-2.144,2.331c-0.204,0.48,0.647,1.41,1.022,2.136
				c0.042,0.081,0.127,0.156,0.133,0.238c0.025,0.334,0.126,0.705,0.021,1c-0.346,0.977-0.534,2.187-1.228,2.815
				c-0.717,0.649-1.955,0.721-2.965,1.048c-0.055,0.018-0.103,0.058-0.173,0.099c0,1.177,0,2.364,0,3.574
				c0.881,0.248,1.75,0.446,2.579,0.75c0.312,0.114,0.629,0.428,0.777,0.733c0.452,0.933,1.18,1.925,1.126,2.855
				c-0.056,0.969-0.898,1.892-1.395,2.835c-0.014,0.026-0.012,0.06-0.009,0.04c0.852,0.864,1.683,1.708,2.55,2.587
				C103.689,84.821,104.92,82.875,106.881,84.802z M102.52,135.533c0,2.974,0,5.841,0,8.726c8.818,0,17.586,0,26.35,0
				c0-2.947,0-5.835,0-8.726C120.057,135.533,111.312,135.533,102.52,135.533z M64.015,74.812c2.278-2.706,2.757-8.79-1.43-12.873
				c-4.029-3.93-10.391-3.909-14.408,0.065c-4.141,4.096-3.615,10.146-1.254,12.94c1.31-1.114,2.62-2.227,3.941-3.35
				c-1.911-3.049-1.739-5.935,0.545-8.057c2.065-1.92,5.167-2.113,7.439-0.465c1.134,0.823,1.883,1.916,2.247,3.262
				c0.543,2.01-0.022,3.791-1.215,5.35c0.765,0.542,1.475,1.019,2.155,1.534C62.717,73.735,63.37,74.29,64.015,74.812z
				 M74.368,95.138c-1.858-3.643-1.616-6.308,0.848-8.317c2.184-1.781,5.265-1.786,7.447,0.003c1.078,0.884,1.746,2.02,2.035,3.392
				c0.402,1.904-0.198,3.545-1.211,4.895c1.365,1.166,2.669,2.279,3.969,3.389c2.993-3.835,2.16-10.079-1.859-13.5
				c-4.183-3.56-10.461-3.179-14.178,0.824c-3.846,4.141-3.231,10.065-0.964,12.644C71.751,97.366,73.044,96.265,74.368,95.138z
				 M93.614,75.193c-2.988,0-5.892-0.018-8.796,0.011c-0.902,0.009-1.434,0.611-1.458,1.553c-0.026,1.01-0.045,2.024,0.017,3.031
				c0.017,0.276,0.279,0.668,0.529,0.776c2.3,0.997,4.216,2.461,5.721,4.473c0.158,0.211,0.476,0.425,0.722,0.428
				c2.572,0.031,5.144,0.019,7.84,0.019c-0.785-0.7-1.534-1.368-2.305-2.056c0.565-0.991,0.977-1.889,1.547-2.671
				c0.741-1.018,0.44-2.004-0.955-2.213c-0.27-0.041-0.532-0.14-0.797-0.212c-2.001-0.543-2.001-0.543-2.034-2.566
				C93.642,75.616,93.629,75.466,93.614,75.193z M114.812,78.309c1.948-1.257,2.836-3.939,2.094-6.326
				c-0.781-2.513-3.125-4.198-5.765-4.144c-2.564,0.052-4.88,1.872-5.527,4.342c-0.624,2.38,0.313,5.008,2.182,6.122
				C109.731,76.335,112.286,75.862,114.812,78.309z M89.172,138.396c-0.031-1.766-1.24-2.898-3.104-2.901
				c-5.361-0.008-10.722-0.003-16.083-0.003c-3.339,0-6.678-0.01-10.017,0.004c-1.78,0.008-2.974,1.156-3.03,2.9
				C67.683,138.396,78.427,138.396,89.172,138.396z M102.563,88.582c1.104,1.618,1.428,3.292,1.387,5.086
				c-0.047,2.112,0.012,4.226-0.021,6.339c-0.016,0.993,0.095,1.908,0.58,2.815c0.367,0.686,0.552,1.487,0.723,2.257
				c0.412,1.856,0.768,3.724,1.147,5.587c0.077,0.003,0.153,0.006,0.23,0.009c0.09-0.556,0.257-1.111,0.259-1.667
				c0.018-6.799,0.014-13.597,0.011-20.396c0-0.752-1.351-1.667-2.014-1.334C104.106,87.658,103.385,88.112,102.563,88.582z
				 M49.112,77.299c3.044,3.015,9.802,2.998,12.595-0.017c-1.521-2.358-3.672-3.614-6.492-3.544
				C52.552,73.804,50.53,75.055,49.112,77.299z M85.251,100.829c-1.568-2.407-3.763-3.682-6.654-3.554
				c-2.61,0.116-4.599,1.359-5.966,3.595C76.032,103.861,82.163,103.838,85.251,100.829z M81.842,129.674
				c-5.905,0-11.731,0-17.562,0c0,0.972,0,1.879,0,2.828c5.869,0,11.695,0,17.562,0C81.842,131.547,81.842,130.64,81.842,129.674z
				 M100.985,98.573c0-2.069,0.068-4.089-0.019-6.102c-0.09-2.073-1.803-3.86-3.879-3.995c-1.852-0.121-3.719-0.025-5.615-0.025
				c0.232,0.992,0.451,1.932,0.681,2.918c0.98,0,1.925-0.013,2.87,0.003c1.773,0.03,2.992,1.238,3.03,3.002
				c0.018,0.856-0.02,1.714,0.021,2.569c0.01,0.217,0.177,0.534,0.357,0.616C99.231,97.921,100.062,98.214,100.985,98.573z
				 M58.351,67.817c-0.009-1.595-1.337-2.918-2.932-2.921c-1.599-0.003-2.928,1.311-2.943,2.909
				c-0.015,1.635,1.344,2.989,2.977,2.968C57.045,70.753,58.36,69.412,58.351,67.817z M78.955,94.306
				c1.594-0.008,2.919-1.336,2.923-2.931c0.004-1.596-1.312-2.93-2.907-2.946c-1.639-0.017-2.988,1.336-2.968,2.976
				C76.023,93,77.36,94.314,78.955,94.306z"/>
			<path fill="#07B7A9" d="M68.636,114.856c1.006,0,1.913,0,2.922,0c0-1.908,0-3.819,0-5.783c1.006,0,1.913,0,2.922,0
				c0,1.88,0,3.79,0,5.764c1.028,0,1.957,0,2.955,0c0-0.914,0-1.822,0-2.803c0.994,0,1.923,0,2.955,0c0,0.908,0,1.839,0,2.817
				c1.006,0,1.913,0,2.922,0c0-1.892,0-3.803,0-5.773c1.028,0,1.956,0,2.954,0c0,1.908,0,3.796,0,5.785c0.995,0,1.925,0,2.911,0
				c0,1.029,0,1.958,0,2.933c-11.717,0-23.405,0-35.163,0c0-6.804,0-13.614,0-20.485c0.918,0,1.846,0,2.843,0
				c0,5.832,0,11.641,0,17.52c0.993,0,1.922,0,2.953,0c0-4.842,0-9.693,0-14.59c1.006,0,1.913,0,2.921,0c0,4.843,0,9.694,0,14.602
				c1.028,0,1.956,0,2.953,0c0-3.876,0-7.725,0-11.641c0.994,0,1.923,0,2.953,0C68.636,107.07,68.636,110.941,68.636,114.856z"/>
		</g>
	</g>
</g>
</svg>
