<?xml version="1.0" encoding="utf-8"?>
<!-- Generator: Adobe Illustrator 26.0.1, SVG Export Plug-In . SVG Version: 6.00 Build 0)  -->
<svg version="1.1" id="Capa_1" xmlns="http://www.w3.org/2000/svg" xmlns:xlink="http://www.w3.org/1999/xlink" x="0px" y="0px"
	 viewBox="0 0 170.66 187.916" enable-background="new 0 0 170.66 187.916" xml:space="preserve">
<g opacity="0.1">
	
		<ellipse transform="matrix(0.1602 -0.9871 0.9871 0.1602 -29.6003 170.3819)" fill="#07B7A9" cx="85.33" cy="102.586" rx="79.83" ry="79.83"/>
	<path fill="#07B7A9" d="M85.33,28.256c41.051,0,74.33,33.279,74.33,74.33s-33.279,74.33-74.33,74.33S11,143.638,11,102.586
		S44.279,28.256,85.33,28.256 M85.33,17.256C38.279,17.256,0,55.535,0,102.586s38.279,85.33,85.33,85.33s85.33-38.279,85.33-85.33
		S132.381,17.256,85.33,17.256L85.33,17.256z"/>
</g>
<g>
	<g>
		<g>
			<path fill="#F5CD55" d="M72.092,23.628c-0.144,1.033-1.435,1.421-2.119,0.633c-3.365-3.876-10.027-12.569-3.614-14.136
				C73.416,8.402,72.777,18.711,72.092,23.628z"/>
		</g>
		<g>
			<path fill="#F5CD55" d="M98.911,25.515c-0.848,0.608-2.019-0.061-1.919-1.1c0.491-5.109,2.202-15.927,7.756-12.358
				C110.858,15.984,102.946,22.624,98.911,25.515z"/>
		</g>
		<g>
			<path fill="#F5CD55" d="M86.796,22.891c-0.771,1.373-2.82,1.167-3.36-0.344c-2.657-7.431-4.394-22.046,2.616-22.046
				C93.534,0.501,90.466,16.356,86.796,22.891z"/>
		</g>
	</g>
</g>
<g id="_x37_Kqvd8_00000112626486015825432470000013928722803141720483_">
	<g>
		<g>
			<path fill="#07B7A9" d="M119.313,117.845c1.868-0.031,2.169,0.17,2.906,1.818c2.415,5.401,4.862,10.789,7.244,16.205
				c1.719,3.909-0.378,8.04-4.463,8.933c-2.934,0.641-5.827-0.881-7.157-3.812c-1.597-3.519-3.162-7.052-4.74-10.579
				c-0.875-1.956-1.751-3.913-2.624-5.87c-0.6-1.347-0.487-1.923,0.613-2.931c-0.626-1.364-1.262-2.75-1.913-4.167
				c-0.299,0.077-0.528,0.184-0.758,0.187c-0.711,0.011-0.878,0.368-0.873,1.037c0.029,3.9,0.016,7.801,0.016,11.702
				c0,4.021,0.003,8.043-0.005,12.064c-0.003,1.805-0.51,2.298-2.337,2.298c-17.475,0.001-34.95,0.001-52.424,0
				c-1.926,0-2.412-0.471-2.412-2.412c-0.004-18.686-0.001-37.373,0-56.059c0-5.685-0.001-11.369,0.001-17.054
				c0.001-2.107,0.432-2.53,2.566-2.53c2.564,0,5.128,0,7.803,0c0-1.099-0.009-2.121,0.002-3.142
				c0.018-1.684,0.561-2.234,2.236-2.24c2.419-0.008,4.837,0.017,7.256-0.016c0.281-0.004,0.733-0.219,0.813-0.442
				c1.508-4.206,6.865-6.22,11.428-4.392c2.024,0.811,3.545,2.186,4.42,4.191c0.241,0.552,0.54,0.679,1.086,0.674
				c2.358-0.026,4.716-0.012,7.074-0.013c1.694-0.001,2.284,0.585,2.294,2.289c0.006,0.992,0.001,1.983,0.001,3.091
				c1.164,0,2.24,0,3.317,0c1.572,0,3.144-0.003,4.716,0.001c1.617,0.004,2.157,0.545,2.163,2.192
				c0.008,2.298,0.024,4.596-0.013,6.894c-0.011,0.657,0.16,0.943,0.847,1.072c10.51,1.974,17.882,11.765,16.81,22.39
				c-0.556,5.503-2.988,10.085-7.188,13.693c-0.511,0.439-0.588,0.764-0.297,1.353C118.291,115.432,118.78,116.635,119.313,117.845z
				 M91.739,113.665c-1.041-1.059-1.902-1.994-2.833-2.851c-0.315-0.29-0.804-0.534-1.22-0.544
				c-2.236-0.051-4.475-0.008-6.712-0.027c-1.121-0.009-1.782-0.667-1.808-1.718c-0.026-1.063,0.587-1.731,1.708-1.823
				c0.451-0.037,0.906-0.021,1.36-0.022c1.311-0.002,2.622-0.001,4.07-0.001c-1.619-3.542-2.377-7.081-2.194-10.908
				c-1.132,0-2.183,0.019-3.234-0.005c-1.215-0.027-1.879-0.65-1.894-1.724c-0.015-1.122,0.671-1.788,1.905-1.81
				c1.058-0.018,2.117,0.019,3.174-0.018c0.246-0.009,0.628-0.16,0.703-0.345c0.392-0.971,0.705-1.975,1.044-2.962
				c-0.032-0.025-0.053-0.054-0.074-0.054c-1.632-0.013-3.264-0.013-4.896-0.04c-0.994-0.016-1.616-0.492-1.813-1.328
				c-0.294-1.252,0.501-2.223,1.899-2.242c2.086-0.028,4.173-0.028,6.259,0.004c0.576,0.009,0.92-0.191,1.279-0.636
				c3.241-4.017,7.404-6.509,12.49-7.426c0.997-0.18,2.007-0.282,3-0.419c0-2.175,0-4.281,0-6.445c-2.2,0-4.351,0-6.587,0
				c0,1.093,0.009,2.116-0.002,3.139c-0.017,1.583-0.555,2.124-2.135,2.124c-10.825,0.003-21.649,0.003-32.474,0
				c-1.622,0-2.151-0.539-2.166-2.188c-0.009-1.02-0.002-2.04-0.002-3.091c-2.254,0-4.387,0-6.57,0c0,23.624,0,47.193,0,70.788
				c16.669,0,33.281,0,49.94,0c0.017-0.327,0.044-0.593,0.044-0.858c0.001-6.35,0-12.701-0.002-19.051
				c0-0.816,0.036-1.636-0.026-2.448c-0.018-0.237-0.296-0.631-0.485-0.65c-2.843-0.29-5.625-1.149-8.533-0.874
				c-1.139,0.107-2.296,0.023-3.445,0.022c-3.477-0.001-6.954,0.004-10.432-0.01c-1.395-0.006-2.11-0.65-2.091-1.82
				c0.018-1.135,0.719-1.734,2.07-1.737c3.024-0.007,6.047-0.002,9.071-0.002C90.6,113.665,91.074,113.665,91.739,113.665z
				 M104.665,80.441c-9.985,0.005-17.074,7.914-17.124,16.983c-0.053,9.538,7.6,17.153,17.076,17.134
				c9.518-0.02,17.067-7.635,17.027-17.176C121.604,88.019,113.974,80.405,104.665,80.441z M64.186,71.961
				c9.878,0,19.705,0,29.577,0c0-2.372,0-4.68,0-7.087c-2.283,0-4.511,0.011-6.738-0.003c-1.67-0.011-2.851-0.891-3.39-2.484
				c-0.644-1.903-2.181-2.948-4.456-3.027c-2.122-0.074-4.011,1.008-4.732,2.71c-0.984,2.324-1.715,2.805-4.262,2.805
				c-1.985,0-3.969,0-5.999,0C64.186,67.284,64.186,69.593,64.186,71.961z M114.164,124.179c2.393,5.334,4.714,10.545,7.071,15.74
				c0.632,1.394,2.021,1.869,3.42,1.278c1.573-0.664,2.105-2.183,1.323-3.944c-2.182-4.91-4.387-9.811-6.586-14.714
				c-0.07-0.157-0.177-0.297-0.305-0.508C117.453,122.744,115.856,123.44,114.164,124.179z M115.952,119.551
				c-0.61-1.344-1.189-2.62-1.792-3.947c-0.573,0.273-1.05,0.5-1.586,0.755c0.617,1.35,1.197,2.621,1.792,3.925
				C114.952,120.013,115.41,119.801,115.952,119.551z"/>
		</g>
		<g>
			<path fill="#07B7A9" d="M57.548,90.523c0-2.419-0.006-4.838,0.002-7.257c0.005-1.563,0.559-2.115,2.143-2.117
				c4.777-0.005,9.553-0.004,14.33,0.008c1.5,0.004,2.263,0.799,2.264,2.311c0.002,4.717,0.004,9.434,0.002,14.15
				c-0.001,1.761-0.515,2.279-2.26,2.28c-4.777,0.003-9.553,0.002-14.33-0.001c-1.577-0.001-2.139-0.552-2.144-2.118
				c-0.008-2.419-0.002-4.838-0.002-7.257C57.552,90.523,57.55,90.523,57.548,90.523z M72.638,96.249
				c0.031-0.166,0.081-0.31,0.081-0.454c0.002-3.473-0.015-6.945,0.007-10.418c0.004-0.691-0.376-0.686-0.867-0.685
				c-3.351,0.007-6.703,0-10.054,0.004c-0.201,0-0.402,0.052-0.629,0.083c0,3.837,0,7.626,0,11.47
				C65.028,96.249,68.819,96.249,72.638,96.249z"/>
		</g>
		<g>
			<path fill="#07B7A9" d="M66.809,121.322c-2.419,0.001-4.838,0.009-7.257-0.003c-1.409-0.007-1.992-0.581-1.995-1.984
				c-0.01-4.929-0.009-9.859,0-14.788c0.003-1.352,0.59-1.95,1.934-1.953c4.898-0.012,9.797-0.013,14.695,0.001
				c1.336,0.004,2.088,0.752,2.091,2.081c0.013,4.929,0.013,9.859-0.002,14.788c-0.004,1.238-0.612,1.842-1.847,1.852
				C71.889,121.334,69.349,121.321,66.809,121.322z M72.724,106.246c-3.935,0-7.745,0-11.531,0c0,3.873,0,7.659,0,11.527
				c0.374,0,0.672,0,0.97,0c2.959,0,5.917,0.002,8.876-0.002c1.673-0.003,1.681-0.008,1.684-1.673
				C72.728,112.841,72.724,109.584,72.724,106.246z"/>
		</g>
		<g>
			<path fill="#07B7A9" d="M78.878,70.944c-2.593-0.08-4.812-2.373-4.731-4.888c0.086-2.639,2.381-4.839,4.966-4.758
				c2.679,0.084,4.794,2.339,4.678,4.99C83.674,68.968,81.503,71.025,78.878,70.944z M78.992,65.062
				c-0.69-0.008-1.288,0.567-1.257,1.255c0.033,0.739,0.459,1.163,1.184,1.235c0.68,0.067,1.287-0.519,1.308-1.207
				C80.249,65.656,79.684,65.069,78.992,65.062z"/>
		</g>
		<g>
			<path fill="#07B7A9" d="M69.161,90.625c0.735,0.663,1.348,1.156,1.888,1.72c0.796,0.832,0.782,1.85,0.03,2.57
				c-0.713,0.682-1.726,0.67-2.506-0.087c-0.561-0.544-1.063-1.147-1.709-1.852c-0.622,0.658-1.118,1.216-1.649,1.738
				c-0.9,0.885-1.966,0.928-2.704,0.138c-0.723-0.775-0.648-1.785,0.216-2.633c0.516-0.505,1.058-0.984,1.735-1.61
				c-0.664-0.618-1.248-1.126-1.789-1.676c-0.823-0.837-0.869-1.828-0.16-2.573c0.753-0.792,1.75-0.782,2.634,0.075
				c0.539,0.523,1.023,1.104,1.675,1.814c0.63-0.679,1.134-1.268,1.686-1.807c0.88-0.858,1.885-0.877,2.636-0.094
				c0.721,0.752,0.672,1.715-0.138,2.576c-0.269,0.286-0.545,0.566-0.832,0.833C69.909,90.005,69.624,90.23,69.161,90.625z"/>
		</g>
		<g>
			<path fill="#07B7A9" d="M65.642,111.883c1.017-1.042,1.974-2.045,2.956-3.023c0.926-0.923,1.926-0.982,2.701-0.193
				c0.764,0.778,0.687,1.777-0.232,2.706c-1.294,1.309-2.594,2.613-3.904,3.905c-0.916,0.903-1.72,0.928-2.706,0.123
				c-0.561-0.458-1.127-0.91-1.68-1.376c-0.981-0.827-1.146-1.898-0.424-2.675c0.789-0.849,1.833-0.828,2.77,0.056
				C65.254,111.527,65.386,111.647,65.642,111.883z"/>
		</g>
	</g>
</g>
</svg>
