<?xml version="1.0" encoding="utf-8"?>
<!-- Generator: Adobe Illustrator 26.0.1, SVG Export Plug-In . SVG Version: 6.00 Build 0)  -->
<svg version="1.1" id="Capa_1" xmlns="http://www.w3.org/2000/svg" xmlns:xlink="http://www.w3.org/1999/xlink" x="0px" y="0px"
	 viewBox="0 0 170.66 187.916" enable-background="new 0 0 170.66 187.916" xml:space="preserve">
<g opacity="0.1">
	
		<ellipse transform="matrix(0.9239 -0.3827 0.3827 0.9239 -32.7626 40.4632)" fill="#07B7A9" cx="85.33" cy="102.586" rx="79.83" ry="79.83"/>
	<path fill="#07B7A9" d="M85.33,28.256c41.051,0,74.33,33.279,74.33,74.33c0,41.051-33.279,74.33-74.33,74.33S11,143.638,11,102.586
		C11,61.535,44.279,28.256,85.33,28.256 M85.33,17.256C38.279,17.256,0,55.535,0,102.586c0,47.051,38.279,85.33,85.33,85.33
		s85.33-38.279,85.33-85.33C170.66,55.535,132.381,17.256,85.33,17.256L85.33,17.256z"/>
</g>
<g>
	<g>
		<g>
			<path fill="#F5CD55" d="M72.092,23.628c-0.144,1.033-1.435,1.421-2.119,0.633c-3.365-3.876-10.027-12.569-3.614-14.136
				C73.416,8.402,72.777,18.711,72.092,23.628z"/>
		</g>
		<g>
			<path fill="#F5CD55" d="M98.911,25.515c-0.848,0.608-2.019-0.061-1.919-1.1c0.491-5.109,2.202-15.927,7.756-12.358
				C110.858,15.984,102.946,22.624,98.911,25.515z"/>
		</g>
		<g>
			<path fill="#F5CD55" d="M86.796,22.891c-0.771,1.373-2.82,1.167-3.36-0.344c-2.657-7.431-4.394-22.046,2.616-22.046
				C93.534,0.501,90.466,16.356,86.796,22.891z"/>
		</g>
	</g>
</g>
<g id="kuH9su_00000040576622717606513900000003439214897845377453_">
	<g>
		<g>
			<path fill="#07B7A9" d="M58.276,142.599V64.08h13.048c10.309,0,20.615-0.001,30.923-0.012c0.475,0,0.793,0.134,1.135,0.478
				c4.692,4.715,9.395,9.42,14.113,14.108c0.375,0.372,0.521,0.729,0.52,1.273c-0.012,18.566-0.011,37.134-0.011,55.7v6.971H58.276z
				 M62.764,68.358c-0.105,0-0.191,0.086-0.191,0.191v69.581c0,0.105,0.086,0.191,0.191,0.191h50.762
				c0.105,0,0.191-0.086,0.191-0.191V82.356c0-0.105-0.086-0.191-0.191-0.191H99.873V68.549c0-0.105-0.086-0.191-0.191-0.191H62.764
				z M104.38,71.921c-0.024,0-0.049,0.005-0.073,0.015c-0.072,0.029-0.119,0.1-0.119,0.177v5.606c0,0.105,0.086,0.191,0.191,0.191
				h5.545c0.077,0,0.147-0.047,0.177-0.118c0.029-0.07,0.014-0.153-0.041-0.208l-5.545-5.606
				C104.479,71.941,104.431,71.921,104.38,71.921z"/>
			<path fill="#FFFFFF" d="M102.25,64.26c0.421,0,0.691,0.114,0.997,0.422c5.052,5.077,9.669,9.692,14.114,14.109
				c0.338,0.336,0.464,0.644,0.464,1.137c-0.012,18.402-0.012,36.804-0.011,55.206l0,7.274H58.468V64.271h0.478l6.213,0l6.213,0
				c10.293,0,20.584-0.001,30.876-0.012H102.25 M62.764,138.513h50.762c0.211,0,0.383-0.171,0.383-0.383V82.355
				c0-0.211-0.171-0.383-0.383-0.383h-13.462V68.549c0-0.211-0.171-0.383-0.383-0.383H62.764c-0.211,0-0.383,0.171-0.383,0.383
				v69.581C62.382,138.341,62.553,138.513,62.764,138.513 M104.38,78.101h5.546c0.154,0,0.294-0.093,0.353-0.235
				s0.027-0.307-0.081-0.416l-2.247-2.272l-3.298-3.334c-0.073-0.074-0.172-0.114-0.272-0.114c-0.049,0-0.098,0.009-0.145,0.029
				c-0.143,0.059-0.237,0.199-0.237,0.354v5.606C103.998,77.93,104.169,78.101,104.38,78.101 M102.25,63.877
				c-0.001,0-0.002,0-0.002,0c-10.293,0.01-20.584,0.012-30.876,0.012c-4.142,0-8.285,0-12.426,0c-0.272,0-0.543,0-0.86,0
				c0,26.369,0,52.635,0,78.901c20.037,0,40.074,0,60.111,0c0-20.954-0.002-41.908,0.011-62.862c0-0.582-0.159-0.994-0.577-1.409
				c-4.718-4.688-9.421-9.392-14.112-14.107C103.146,64.038,102.782,63.877,102.25,63.877L102.25,63.877z M62.764,138.13
				c0-23.176,0-46.35,0-69.581c12.324,0,24.592,0,36.918,0c0,4.598,0,9.16,0,13.806c4.637,0,9.218,0,13.844,0
				c0,18.636,0,37.187,0,55.775C96.604,138.13,79.712,138.13,62.764,138.13L62.764,138.13z M104.38,77.719c0-1.903,0-3.809,0-5.606
				c1.832,1.852,3.721,3.761,5.546,5.606C108.208,77.719,106.322,77.719,104.38,77.719L104.38,77.719z"/>
		</g>
		<g>
			<path fill="#07B7A9" d="M86.062,114.815c-0.294-3.678,0.417-6.504,2.231-8.883c1.994-2.614,4.671-4.105,8.183-4.559
				c0.09-0.012,0.159-0.084,0.167-0.175c0.007-0.091-0.051-0.173-0.138-0.198c-4.055-1.17-6.336-4.149-5.811-7.59
				c0.531-3.476,3.297-5.902,6.728-5.902l0.177,0.002c3.348,0.081,6.146,2.7,6.507,6.091c0.365,3.424-1.949,6.454-5.627,7.371
				c-0.088,0.022-0.149,0.104-0.145,0.195c0.004,0.091,0.073,0.166,0.163,0.18c3.376,0.499,6.071,2.055,8.01,4.622
				c1.784,2.361,2.488,5.176,2.209,8.846H86.062z M97.319,105.612c-0.146,0-0.292,0.005-0.439,0.015
				c-2.813,0.181-5.823,2.54-6.078,4.763c-0.006,0.054,0.011,0.108,0.047,0.148c0.036,0.041,0.088,0.064,0.143,0.064h12.843
				c0.06,0,0.115-0.027,0.151-0.075c0.037-0.047,0.049-0.107,0.034-0.165C103.303,107.654,100.423,105.612,97.319,105.612z
				 M97.389,91.745c-1.351,0-2.496,1.141-2.502,2.49c-0.006,1.344,1.125,2.494,2.468,2.512h0c1.38,0,2.502-1.098,2.532-2.448
				c0.029-1.342-1.082-2.511-2.427-2.553C97.46,91.746,97.391,91.745,97.389,91.745z"/>
			<path fill="#FFFFFF" d="M97.423,87.316v0.382l0.172,0.002c3.252,0.08,5.97,2.625,6.321,5.92c0.354,3.326-1.901,6.272-5.484,7.165
				c-0.177,0.044-0.298,0.208-0.29,0.39s0.145,0.333,0.326,0.36c3.372,0.499,5.951,1.986,7.886,4.548
				c1.725,2.284,2.423,5.005,2.184,8.539h-22.3c-0.253-3.542,0.451-6.274,2.207-8.576c1.961-2.571,4.596-4.038,8.055-4.484
				c0.18-0.023,0.319-0.169,0.333-0.35c0.014-0.181-0.101-0.346-0.275-0.397c-3.957-1.142-6.185-4.038-5.675-7.377
				c0.516-3.38,3.205-5.74,6.539-5.74L97.423,87.316 M97.387,96.939c1.452,0,2.66-1.182,2.692-2.635
				c0.032-1.445-1.164-2.704-2.612-2.748l-0.08-0.001c-1.453,0-2.685,1.227-2.691,2.68c-0.006,1.447,1.21,2.685,2.657,2.704
				C97.355,96.939,97.386,96.939,97.387,96.939 M90.992,110.794h12.843c0.119,0,0.231-0.055,0.303-0.149
				c0.072-0.094,0.097-0.216,0.067-0.331c-0.738-2.789-3.697-4.892-6.884-4.892c-0.151,0-0.302,0.005-0.452,0.015
				c-2.947,0.19-5.987,2.586-6.256,4.931c-0.012,0.108,0.022,0.217,0.095,0.298C90.779,110.747,90.883,110.794,90.992,110.794
				 M97.422,87.316c-3.509,0-6.372,2.498-6.917,6.065c-0.538,3.519,1.733,6.587,5.947,7.802c-3.523,0.454-6.265,1.949-8.311,4.631
				c-2.08,2.727-2.549,5.852-2.256,9.191c7.683,0,15.343,0,23.008,0c0.279-3.332-0.181-6.436-2.233-9.152
				c-2.044-2.706-4.795-4.202-8.136-4.696c3.786-0.944,6.148-4.04,5.771-7.577c-0.372-3.487-3.247-6.178-6.692-6.262
				C97.543,87.317,97.483,87.316,97.422,87.316L97.422,87.316z M97.387,96.556c-0.01,0-0.02,0-0.029,0
				c-1.245-0.016-2.285-1.074-2.279-2.32c0.005-1.253,1.064-2.299,2.309-2.299c0.023,0,0.045,0,0.068,0.001
				c1.247,0.038,2.269,1.113,2.241,2.357C99.669,95.533,98.62,96.556,97.387,96.556L97.387,96.556z M90.992,110.411
				c0.246-2.146,3.174-4.417,5.9-4.593c0.143-0.009,0.285-0.014,0.428-0.014c2.965,0,5.815,1.962,6.515,4.607
				C99.514,110.411,95.254,110.411,90.992,110.411L90.992,110.411z"/>
		</g>
		<g>
			<rect x="67.562" y="119.922" fill="#07B7A9" width="41.162" height="4.143"/>
			<path fill="#FFFFFF" d="M108.532,120.113v3.76H67.753v-3.76H108.532 M108.915,119.73c-13.894,0-27.719,0-41.544,0
				c0,1.535,0,3.014,0,4.525c13.862,0,27.687,0,41.544,0C108.915,122.735,108.915,121.256,108.915,119.73L108.915,119.73z"/>
		</g>
		<g>
			<rect x="67.585" y="129.164" fill="#07B7A9" width="41.107" height="4.175"/>
			<path fill="#FFFFFF" d="M108.501,129.355v3.792H67.777v-3.792H108.501 M108.883,128.973c-13.855,0-27.68,0-41.489,0
				c0,1.55,0,3.048,0,4.557c13.849,0,27.637,0,41.489,0C108.883,132.007,108.883,130.492,108.883,128.973L108.883,128.973z"/>
		</g>
		<g>
			<rect x="67.562" y="73.691" fill="#07B7A9" width="27.29" height="4.143"/>
			<path fill="#FFFFFF" d="M94.66,73.881v3.76H67.753v-3.76H94.66 M95.043,73.499c-9.27,0-18.47,0-27.673,0c0,1.535,0,3.014,0,4.526
				c9.238,0,18.439,0,27.673,0C95.043,76.504,95.043,75.025,95.043,73.499L95.043,73.499z"/>
		</g>
		<g>
			<rect x="67.586" y="82.934" fill="#07B7A9" width="22.639" height="4.148"/>
			<path fill="#FFFFFF" d="M90.034,83.125v3.766H67.777v-3.766H90.034 M90.417,82.742c-7.72,0-15.38,0-23.022,0
				c0,1.551,0,3.048,0,4.531c7.703,0,15.345,0,23.022,0C90.417,85.756,90.417,84.277,90.417,82.742L90.417,82.742z"/>
		</g>
		<g>
			<rect x="67.558" y="92.168" fill="#07B7A9" width="13.392" height="4.145"/>
			<path fill="#FFFFFF" d="M80.759,92.359v3.763H67.75v-3.763H80.759 M81.142,91.977c-4.622,0-9.181,0-13.775,0
				c0,1.519,0,2.997,0,4.528c4.642,0,9.219,0,13.775,0C81.142,94.952,81.142,93.455,81.142,91.977L81.142,91.977z"/>
		</g>
		<g>
			<rect x="67.586" y="101.427" fill="#07B7A9" width="13.392" height="4.147"/>
			<path fill="#FFFFFF" d="M80.786,101.618v3.765H67.777v-3.765H80.786 M81.169,101.235c-4.638,0-9.215,0-13.775,0
				c0,1.551,0,3.048,0,4.531c4.621,0,9.18,0,13.775,0C81.169,104.248,81.169,102.77,81.169,101.235L81.169,101.235z"/>
		</g>
		<g>
			<path fill="#07B7A9" d="M67.702,114.857c-0.044,0-0.088-0.006-0.137-0.013v-4.165h13.394v4.18L67.702,114.857z"/>
			<path fill="#FFFFFF" d="M80.768,110.871v3.797h-1.104h-1.479l-10.429-0.001v-3.795H80.768 M81.15,110.488
				c-4.632,0-9.209,0-13.776,0c0,1.538,0,3.017,0,4.522c0.134,0.016,0.232,0.039,0.329,0.039c3.485,0.001,6.97,0.001,10.482,0.001
				c0.986,0,1.974,0,2.965,0C81.15,113.462,81.15,111.965,81.15,110.488L81.15,110.488z"/>
		</g>
	</g>
</g>
</svg>
