<?xml version="1.0" encoding="utf-8"?>
<!-- Generator: Adobe Illustrator 26.0.1, SVG Export Plug-In . SVG Version: 6.00 Build 0)  -->
<svg version="1.1" id="Capa_1" xmlns="http://www.w3.org/2000/svg" xmlns:xlink="http://www.w3.org/1999/xlink" x="0px" y="0px"
	 viewBox="0 0 170.66 187.916" enable-background="new 0 0 170.66 187.916" xml:space="preserve">
<g opacity="0.1">
	
		<ellipse transform="matrix(0.9239 -0.3827 0.3827 0.9239 -32.7626 40.4632)" fill="#07B7A9" cx="85.33" cy="102.586" rx="79.83" ry="79.83"/>
	<path fill="#07B7A9" d="M85.33,28.256c41.051,0,74.33,33.279,74.33,74.33c0,41.051-33.279,74.33-74.33,74.33S11,143.638,11,102.586
		C11,61.535,44.279,28.256,85.33,28.256 M85.33,17.256C38.279,17.256,0,55.535,0,102.586c0,47.051,38.279,85.33,85.33,85.33
		s85.33-38.279,85.33-85.33C170.66,55.535,132.381,17.256,85.33,17.256L85.33,17.256z"/>
</g>
<g>
	<g>
		<g>
			<path fill="#F5CD55" d="M72.092,23.628c-0.144,1.033-1.435,1.421-2.119,0.633c-3.365-3.876-10.027-12.569-3.614-14.136
				C73.416,8.402,72.777,18.711,72.092,23.628z"/>
		</g>
		<g>
			<path fill="#F5CD55" d="M98.911,25.515c-0.848,0.608-2.019-0.061-1.919-1.1c0.491-5.109,2.202-15.927,7.756-12.358
				C110.858,15.984,102.946,22.624,98.911,25.515z"/>
		</g>
		<g>
			<path fill="#F5CD55" d="M86.796,22.891c-0.771,1.373-2.82,1.167-3.36-0.344c-2.657-7.431-4.394-22.046,2.616-22.046
				C93.534,0.501,90.466,16.356,86.796,22.891z"/>
		</g>
	</g>
</g>
<g>
	<g>
		<path fill="#07B7A9" d="M110.25,156.803c-0.354,0-0.684-0.098-0.979-0.29c-0.329-0.215-0.563-0.469-0.771-0.692
			c-0.201-0.215-0.373-0.4-0.577-0.498c-0.077-0.038-0.146-0.063-0.212-0.09c-0.212-0.082-0.464-0.181-0.737-0.396l-0.105-0.079
			c-0.184-0.136-0.43-0.317-0.608-0.574c-0.088-0.13-0.142-0.247-0.177-0.335c-0.084-0.033-0.17-0.061-0.255-0.088
			c-0.186-0.06-0.377-0.125-0.557-0.21c-0.255-0.122-0.505-0.289-0.768-0.513l-0.132-0.115c-0.228-0.21-0.404-0.403-0.522-0.544
			c-0.456-0.536-0.428-1.123-0.41-1.512c0.008-0.178,0.015-0.329-0.02-0.415c-0.045-0.112-0.133-0.211-0.267-0.3l-0.116-0.072
			c-0.095-0.052-0.262-0.114-0.458-0.163c-0.112-0.027-0.214-0.04-0.312-0.054c-0.36-0.05-0.853-0.117-1.322-0.604
			c-0.105-0.11-0.206-0.229-0.303-0.345c-0.186-0.221-0.352-0.418-0.514-0.49c-0.116-0.053-0.237-0.092-0.353-0.13
			c-0.456-0.153-1.081-0.362-1.462-1.058c-0.077-0.141-0.123-0.262-0.164-0.38c-0.114-0.054-0.272-0.101-0.425-0.146
			c-0.179-0.053-0.333-0.1-0.474-0.153l-0.253-0.099c-0.278-0.11-0.556-0.222-0.842-0.3c-0.508-0.14-0.692-0.281-0.965-0.55
			l0.509-0.756l-0.617,0.65c-0.168-0.159-0.463-0.268-0.775-0.384c-0.237-0.087-0.46-0.171-0.67-0.277
			c-0.737-0.373-1.503-0.551-2.156-0.676c-0.834-0.16-1.74-0.334-2.515-0.921c-0.189-0.144-0.363-0.311-0.53-0.475
			c-0.135-0.131-0.268-0.267-0.427-0.378c-0.679-0.473-1.265-0.881-1.985-1.171c-0.252-0.102-0.479-0.235-0.718-0.381
			c-0.138-0.084-0.268-0.165-0.407-0.231c-0.166-0.078-0.338-0.149-0.506-0.22c-0.324-0.134-0.665-0.274-0.99-0.461
			c-0.213-0.123-0.421-0.213-0.622-0.301c-0.337-0.148-0.642-0.287-0.941-0.493l-0.15-0.109c-0.264-0.21-0.462-0.422-0.634-0.671
			c-0.177-0.256-0.29-0.525-0.38-0.742c-0.125-0.299-0.195-0.444-0.291-0.484c-0.068-0.028-0.13-0.05-0.186-0.068
			c-0.323-0.111-0.614-0.234-0.931-0.635c-0.249-0.313-0.465-0.525-0.77-0.756c-0.19-0.144-0.349-0.291-0.516-0.448l-0.225-0.208
			c-0.109-0.097-0.23-0.194-0.349-0.29c-0.314-0.252-0.618-0.496-0.881-0.782c-0.354-0.386-0.518-0.814-0.663-1.191
			c-0.082-0.211-0.158-0.41-0.256-0.563c-0.055-0.085-0.111-0.165-0.166-0.244c-0.149-0.211-0.273-0.393-0.39-0.611
			c-0.006-0.012-0.008-0.019-0.007-0.022c-0.023-0.006-0.246-0.06-0.246-0.06c-0.965-0.255-0.979-1.021-0.983-1.31l-0.005-0.157
			l0.714-0.567l-0.764,0.47c-0.072-0.115-0.143-0.238-0.207-0.4c-0.205-0.511-0.103-0.891,0.019-1.118
			c0.121-0.228,0.379-0.523,0.922-0.641l0.106-0.022c0.004-0.009,0.008-0.018,0.013-0.026c0.195-0.403,0.294-0.994,0.104-1.342
			c-0.067-0.121-0.171-0.245-0.327-0.388l-0.101-0.088c-0.103-0.088-0.222-0.18-0.34-0.271c-0.486-0.373-1.039-0.798-1.315-1.533
			c-0.294-0.784-0.66-1.759-1.198-2.618l-0.083-0.134c-0.073-0.112-0.162-0.24-0.256-0.364c-0.033-0.043-0.115-0.11-0.187-0.17
			c-0.143-0.119-0.272-0.232-0.383-0.362c-0.109-0.13-0.2-0.262-0.294-0.402c-0.045-0.068-0.088-0.133-0.135-0.195
			c-0.361-0.479-0.653-0.887-0.914-1.325c-0.026-0.044-0.1-0.173-0.118-0.222l-0.786-2.081c-0.374-0.507-0.646-0.951-0.911-1.381
			l-0.182-0.294c-0.041-0.067-0.154-0.119-0.383-0.214c-0.333-0.138-0.788-0.325-1.094-0.812c-0.197-0.312-0.234-0.655-0.262-0.906
			c-0.009-0.078-0.011-0.157-0.032-0.225c-0.091-0.29-0.252-0.592-0.407-0.883c-0.157-0.296-0.334-0.63-0.465-0.991
			c-0.132-0.367-0.278-0.684-0.475-1.027l-0.071-0.12c-0.101-0.169-0.212-0.343-0.333-0.524c-0.185-0.276-0.387-0.552-0.582-0.818
			c-0.244-0.334-0.491-0.672-0.711-1.011c-0.366-0.561-0.578-1.127-0.781-1.804l-0.107-0.361c-0.163-0.56-0.329-1.134-0.587-1.579
			c-0.204-0.354-0.328-0.705-0.438-1.034c-0.028-0.085-0.08-0.17-0.161-0.302c-0.074-0.12-0.15-0.247-0.222-0.391
			c-0.124-0.252-0.213-0.497-0.298-0.736c-0.125-0.352-0.214-0.603-0.417-0.842l-0.27-0.296c-0.368-0.389-0.936-0.99-0.799-1.979
			l0.038-0.254c0.076-0.487,0.074-0.5-0.107-0.692c-0.438-0.462-0.889-0.938-1.259-1.605l-0.157-0.287
			c-0.302-0.561-0.465-0.861-0.899-1.144c-0.908-0.59-1.4-1.482-1.761-2.277c-0.078-0.173-0.147-0.348-0.213-0.519
			c-0.116-0.297-0.223-0.57-0.377-0.783c-0.077-0.106-0.162-0.206-0.244-0.302c-0.105-0.126-0.17-0.203-0.231-0.282l-0.123-0.167
			c-0.033-0.047-0.062-0.098-0.085-0.15c0,0-0.103-0.137-0.121-0.166c-0.179-0.299-0.327-0.608-0.471-0.912
			c-0.239-0.508-0.465-0.987-0.86-1.354c-0.142-0.131-0.28-0.274-0.413-0.413c-0.289-0.301-0.54-0.562-0.826-0.667
			c-0.548-0.201-0.958-0.484-1.354-0.759c-0.191-0.131-0.369-0.254-0.562-0.367c-0.184-0.107-0.365-0.199-0.557-0.295l-0.194-0.1
			c-0.305-0.156-0.607-0.331-0.907-0.516l-0.187-0.116c-0.262-0.165-0.515-0.331-0.76-0.496c-0.139-0.094-0.342-0.146-0.579-0.205
			c-0.316-0.081-0.658-0.168-1-0.375c-0.645-0.392-1.025-1.131-0.926-1.798c0.084-0.56,0.485-0.982,1.072-1.133
			c0.231-0.059,0.454-0.077,0.669-0.09c0.028-0.002,0.059-0.004,0.089-0.006c0.085-0.613-0.039-1.023-0.183-1.204
			c-0.129-0.162-0.304-0.316-0.489-0.48c-0.296-0.263-0.632-0.561-0.888-0.978c-0.27-0.443-0.46-1.167-0.11-1.754
			c0.074-0.123,0.159-0.22,0.244-0.296c-0.127-0.098-0.298-0.23-0.41-0.318c-0.211-0.163-0.405-0.32-0.531-0.453
			c-0.632-0.675-0.679-1.617-0.142-2.804l0.115-0.26c0.16-0.363,0.321-0.727,0.551-1.097c0.188-0.302,0.409-0.521,0.604-0.714
			c0.114-0.112,0.228-0.222,0.326-0.354l0.052-0.082c0.076-0.116,0.145-0.235,0.209-0.353c0.089-0.161,0.182-0.328,0.285-0.482
			c0.106-0.159,0.199-0.314,0.289-0.465c0.363-0.605,0.737-1.229,1.586-1.69c0.213-0.115,0.444-0.209,0.668-0.296
			c0.306-0.121,0.572-0.227,0.713-0.39l0.066-0.085c0.172-0.227,0.53-0.694,1.134-0.694c0.1,0,0.28,0.031,0.375,0.063
			c0.648,0.238,0.814,0.9,0.885,1.183c0.088,0.318,0.171,0.574,0.251,0.82c0.113,0.346,0.22,0.677,0.304,0.997
			c0.231,0.898-0.201,1.513-1.285,1.829c-0.047,0.014-0.094,0.026-0.14,0.041c0.072,0.068,0.138,0.152,0.192,0.256
			c0.092,0.177,0.129,0.369,0.112,0.576c0.232-0.062,0.473-0.096,0.705-0.096c0.098,0,0.193,0.006,0.284,0.018
			c0.4,0.052,0.687,0.253,0.877,0.387c0.062,0.043,0.142,0.1,0.172,0.111c0.127,0.042,0.438,0.051,0.644,0.057l0.256,0.01
			c0.087,0,0.167-0.007,0.25-0.015c0.135-0.012,0.277-0.022,0.408-0.022c0.201,0,0.375,0.023,0.532,0.074
			c0.858,0.275,1.097,1.231,1.254,1.864c0.028,0.113,0.052,0.215,0.079,0.296l0.059,0.192c0.069,0.239,0.091,0.3,0.14,0.348
			c0.071,0.07,0.14,0.119,0.206,0.168c0.141,0.106,0.295,0.223,0.45,0.39c0.036-0.002,0.073-0.003,0.113-0.003
			c0.07,0,0.146,0.003,0.233,0.013c0.198,0.021,0.355,0.077,0.471,0.119c0.007-0.012,0.019-0.03,0.031-0.053
			c-0.066-0.237-0.128-0.496-0.07-0.806c0.15-0.8,0.935-1.197,1.454-1.461c0.096-0.048,0.179-0.09,0.252-0.132l0.078-0.049
			c-0.025-0.069-0.045-0.146-0.055-0.23c-0.043-0.337,0.039-0.579,0.093-0.739c0.121-0.395,0.22-0.701,0.317-0.999
			c0.106-0.325,0.213-0.654,0.31-0.984l0.045-0.159c0.096-0.344,0.177-0.637,0.325-0.943c0.139-0.291,0.332-0.491,0.486-0.652
			c0.081-0.084,0.165-0.172,0.192-0.229c0.025-0.066,0.036-0.311,0.042-0.442l0.016-0.259c0.028-0.453,0.065-1.049,0.492-1.427
			c0.235-0.21,0.496-0.318,0.77-0.318c0.032,0,0.062,0.001,0.092,0.004c0.076-0.235,0.196-0.445,0.375-0.67
			c0.387-0.487,0.846-0.857,1.252-1.185c0.176-0.142,0.354-0.285,0.524-0.436c0.013-0.013,0.07-0.059,0.084-0.07l0.171-0.125
			c0.339-0.22,0.657-0.339,0.938-0.444l0.148-0.056c0.289-0.112,0.583-0.207,0.868-0.298c0.62-0.197,1.114-0.354,1.562-0.643
			c0.423-0.272,0.931-0.465,1.276-0.586c0.373-0.133,0.758-0.219,1.099-0.295l0.386-0.088c1.309-0.316,2.581-1.126,3.886-2.475
			l0.362-0.379c0.182-0.193,0.369-0.392,0.555-0.579c0.231-0.231,0.477-0.445,0.714-0.652c0.306-0.264,0.621-0.536,0.87-0.838
			c0.13-0.157,0.267-0.304,0.399-0.443c0.315-0.335,0.499-0.539,0.579-0.82c0.033-0.115,0.043-0.268,0.054-0.43
			c0.009-0.134,0.02-0.271,0.038-0.405c0.049-0.352,0.154-0.628,0.246-0.871l0.062-0.167c0.02-0.064,0.034-0.154,0.053-0.256
			c0.107-0.573,0.322-1.726,1.306-1.841c-0.003-0.073-0.006-0.142-0.006-0.207l0.005-0.337c0.01-0.518,0.007-0.802-0.168-1.062
			c-0.104-0.154-0.197-0.316-0.287-0.473c-0.151-0.262-0.291-0.506-0.442-0.609c-0.035-0.021-0.093-0.05-0.158-0.083
			c-0.511-0.259-1.188-0.602-1.249-1.298c-0.033-0.366,0.136-0.721,0.465-0.969c0.231-0.171,0.494-0.259,0.766-0.259
			c0.414,0,0.74,0.192,1.002,0.347c0.063,0.037,0.14,0.083,0.201,0.115c0.026-0.03,0.062-0.069,0.09-0.1
			c0.215-0.231,0.574-0.616,1.167-0.616c0.252,0,0.508,0.074,0.762,0.221c0.12,0.069,0.214,0.138,0.304,0.206
			c0.106,0.08,0.106,0.08,0.147,0.088c0.528,0.101,0.718,0.183,1.13,0.491c0.193,0.016,0.427,0.06,0.674,0.21
			c0.4,0.248,0.512,0.61,0.566,0.784c-0.01,0,0.062,0.033,0.105,0.054c0.077,0.035,0.154,0.072,0.231,0.114
			c0.461,0.252,0.754,0.571,1.013,0.853l0.246,0.261c0.432,0.448,0.85,0.883,0.965,1.744c0.021,0.156,0.031,0.319,0.041,0.491
			c0.013,0.234,0.025,0.448,0.069,0.604c0.042,0.008,0.427,0.075,0.427,0.075c0.333,0.058,0.718,0.124,1.051,0.391
			c0.209,0.168,0.335,0.349,0.428,0.48c0.032,0.046,0.079,0.113,0.096,0.128c0.237,0.103,0.457,0.158,0.672,0.171l0.186,0.006
			c0.342,0.006,0.852,0.015,1.315,0.398c0.747,0.622,0.823,1.958,0.743,2.507l-0.041,0.26c-0.072,0.433-0.076,0.506,0.002,0.569
			c0.05-0.022,0.112-0.048,0.18-0.074c0.178-0.068,0.457-0.151,0.768-0.151c0.452,0,0.848,0.176,1.116,0.496
			c0.344,0.414,0.356,0.899,0.364,1.222l0.006,0.16c0.003,0.038,0.021,0.094,0.054,0.188c0.051,0.151,0.121,0.355,0.137,0.614
			c0.017,0.298-0.055,0.544-0.106,0.725c-0.004,0.015-0.009,0.029-0.014,0.045c0.029,0.017,0.06,0.033,0.085,0.048
			c0.234,0.131,0.411,0.273,0.577,0.417c0.074,0.062,0.14,0.125,0.217,0.172c0.007,0,0.013,0,0.02,0c0.265,0,0.529-0.074,0.763-0.14
			l0.242-0.065c0.06-0.016,0.129-0.05,0.208-0.09c0.195-0.098,0.491-0.245,0.894-0.251c0.422,0,0.724,0.148,0.944,0.257
			c0.066,0.032,0.165,0.081,0.197,0.086c0.214,0,0.589-0.044,0.874-0.1c0.017-0.01,0.09-0.074,0.138-0.117
			c0.124-0.109,0.293-0.261,0.533-0.376c0.142-0.069,0.272-0.109,0.375-0.135c0.207-0.511,0.512-0.849,1.294-0.867
			c0.001,0,0.003,0,0.004,0c0.879,0,1.634,0.401,2.242,0.725l0.172,0.092c0.233,0.121,0.395,0.302,0.512,0.454
			c0.03-0.017,0.3-0.155,0.3-0.155c0.216-0.109,0.471-0.238,0.594-0.337c0.06-0.047,0.1-0.09,0.136-0.126
			c0.239-0.244,0.512-0.481,1.064-0.535c0.088-0.009,0.17-0.013,0.25-0.013c0.689,0,1.239,0.293,1.68,0.896
			c0.062,0.085,0.125,0.195,0.189,0.315c0.004,0.008,0.008,0.016,0.012,0.024l0.197-0.004c0.189,0,0.347,0.021,0.496,0.066
			c0.433,0.132,0.644,0.409,0.745,0.542l0.184-0.016l0.224-0.006c0.126,0,0.241,0.008,0.333,0.023
			c0.581,0.091,0.846,0.375,1.049,0.635c0.028,0.036,0.056,0.075,0.098,0.114c0.037,0.032,0.161,0.097,0.227,0.131
			c0.32,0.168,0.797,0.418,1.002,0.973c0.199,0.543,0.034,1.2-0.442,1.759c-0.219,0.257-0.464,0.505-0.704,0.745
			c-0.313,0.312-0.615,0.614-0.855,0.937c-0.508,0.684-1.013,1.353-1.6,2.018c-0.244,0.285-0.485,0.63-0.626,0.881
			c0.168-0.11,0.38-0.227,0.653-0.266c0.084-0.014,0.179-0.02,0.271-0.02c0.97,0,1.481,0.737,1.819,1.225
			c0.074,0.107,0.145,0.21,0.221,0.303c0.091,0.111,0.236,0.226,0.384,0.352c0.508,0.433,1.199,1.021,1.196,1.879
			c-0.002,0.739-0.582,1.297-1.347,1.297c-0.135,0-0.268-0.017-0.396-0.051c-0.119-0.031-0.217-0.075-0.299-0.117
			c-0.074,0.012-0.144,0.017-0.213,0.017c-0.081,0-0.253-0.022-0.331-0.044c-0.514-0.145-0.831-0.495-1.085-0.776
			c-0.097-0.107-0.257-0.285-0.322-0.307c-0.092,0.004-0.159,0.02-0.218,0.032c-0.164,0.033-0.31,0.054-0.468,0.054
			c-0.156,0-0.31-0.02-0.469-0.06c-0.004-0.001-0.008-0.002-0.012-0.003c-0.024,0.019-0.05,0.039-0.079,0.062
			c-0.172,0.135-0.358,0.263-0.538,0.385c-0.13,0.089-0.262,0.179-0.387,0.272c-0.07,0.052-0.133,0.108-0.195,0.163
			c-0.234,0.205-0.551,0.484-1.029,0.596c-0.226,0.053-0.465,0.077-0.735,0.077c-0.203,0-0.412-0.015-0.614-0.029
			c-0.158-0.013-0.322-0.025-0.483-0.025c-0.277,0-0.412,0.046-0.49,0.08c-0.54,0.235-0.914,0.38-1.565,0.409
			c-0.333,0.016-0.547,0.064-0.82,0.187c-1.206,0.541-2.161,1.035-3.006,1.554c-0.205,0.124-0.422,0.239-0.632,0.348
			c-0.337,0.177-0.652,0.341-0.88,0.546c-0.454,0.406-0.855,0.651-1.481,0.904c-0.292,0.118-0.293,0.195-0.296,0.383
			c-0.003,0.262,0.032,0.491,0.064,0.715c0.083,0.579,0.187,1.297-0.275,2.145c-0.236,0.433-0.55,0.787-0.827,1.1
			c-0.299,0.338-0.579,0.653-0.713,1.004c-0.034,0.087-0.035,0.128,0.162,0.477c0.187,0.331,0.442,0.784,0.413,1.392
			c-0.071,1.415-1.342,1.787-2.025,1.987c-0.173,0.05-0.349,0.1-0.503,0.163c-0.741,0.309-1.682,1.032-1.829,1.537
			c-0.051,0.176,0.004,0.42,0.154,0.687c0.523,0.894,0.467,1.546-0.12,2.021c-0.275,0.224-0.583,0.285-0.786,0.325
			c-0.012,0.003-0.023,0.005-0.035,0.007c0,0-0.009,0.21-0.017,0.291c0.036,0.021,0.298,0.155,0.455,0.235
			c0.23,0.118,0.443,0.232,0.617,0.36c0.711,0.516,0.928,1.098,0.639,1.727c-0.018,0.04-0.038,0.078-0.059,0.115
			c0.221,0.173,0.462,0.43,0.539,0.873c0.04,0.232,0.024,0.42,0.012,0.549c0.116,0.081,0.29,0.23,0.413,0.485
			c0.068,0.14,0.098,0.276,0.111,0.389c0.202,0.071,0.483,0.178,0.723,0.438c0.256,0.277,0.36,0.583,0.444,0.828
			c0.03,0.087,0.075,0.218,0.102,0.253c0.031,0.034,0.143,0.096,0.233,0.145c0.238,0.128,0.56,0.3,0.799,0.648
			c0.181,0.265,0.292,0.543,0.389,0.788c0.053,0.135,0.102,0.266,0.167,0.384c0.017,0.023,0.054,0.062,0.091,0.104
			c0.219,0.252,0.5,0.573,0.513,1.021c0.023,0.703-0.482,1.14-0.867,1.459c0.168,0.017,0.39,0.029,0.679,0.029l0.541-0.007
			c0.699,0,1.664,0.044,2.511,0.252c1.041,0.259,1.208,1.06,1.288,1.444c0.036,0.174,0.062,0.282,0.11,0.343
			c0.309,0.382,0.508,0.765,0.48,1.398c-0.002,0.044-0.006,0.086-0.011,0.127c0.269-0.004,0.612-0.073,0.916-0.134
			c0.31-0.063,0.604-0.118,0.836-0.131c0.336-0.019,0.671-0.049,0.995-0.077c0.311-0.027,0.632-0.055,0.946-0.073
			c0.486-0.029,0.787-0.159,1.286-0.374l0.342-0.145c0.138-0.056,0.271-0.092,0.413-0.127c0.061-0.015,0.153-0.036,0.179-0.051
			c0.057-0.05,0.181-0.274,0.248-0.395l0.128-0.222c0.458-0.763,1.117-1.343,1.853-1.63c0.194-0.076,0.493-0.168,0.805-0.168
			c0.418,0,0.774,0.177,0.976,0.486c0.153,0.239,0.277,0.637,0.019,1.205c-0.078,0.171-0.179,0.305-0.256,0.401
			c0.027,0.071,0.051,0.154,0.065,0.249c0.086,0.598-0.248,0.997-0.427,1.211c-0.036,0.043-0.073,0.08-0.099,0.125
			c0.001-0.001,0.002-0.001,0.003-0.001c0.011,0,0.006,0.066,0.001,0.132l-0.007,0.147c-0.009,0.246-0.003,0.513,0.003,0.774
			l0.009,0.44l0.012,1.346c0.009,0.982,0.018,1.927,0.019,2.856c0.506,0.039,0.792,0.332,0.947,0.512
			c0.047-0.018,0.114-0.045,0.205-0.092l0.151-0.079c0.711-0.368,1.326-0.687,2.316-0.687l0.5-0.003
			c0.639,0,1.363,0.037,1.891,0.314c0.976,0.512,1.553,1.688,1.707,2.036c0.217,0.491,0.465,0.972,0.706,1.436
			c0.235,0.454,0.478,0.924,0.695,1.403c0.107,0.237,0.211,0.483,0.312,0.721c0.192,0.454,0.388,0.918,0.619,1.332
			c0.145,0.26,0.254,0.53,0.357,0.794c0.093,0.237,0.182,0.462,0.299,0.654c0.092,0.151,0.212,0.306,0.337,0.471
			c0.529,0.697,1.412,1.862,0.621,3.104c-0.375,0.59-0.972,0.716-1.329,0.792c-0.096,0.02-0.239,0.05-0.281,0.073l0,0
			c0.005,0-0.065,0.098-0.078,0.426l0,0.146c0.001,0.19,0.021,0.389,0.037,0.558c0.045,0.473,0.044,0.938,0.043,1.386l0,0.214
			c0,0.075,0.008,0.164,0.016,0.258c0.025,0.308,0.057,0.689-0.051,1.039c-0.099,0.325-0.306,0.543-0.443,0.688
			c-0.011,0.012-0.022,0.022-0.033,0.033c0.005,0.01,0.01,0.02,0.014,0.029c0.06,0.131,0.117,0.261,0.159,0.401
			c0.047,0.161,0.075,0.309,0.1,0.451c0.024,0.139,0.038,0.212,0.064,0.262c0.349,0.646,0.731,1.628,0.031,2.701
			c-0.073,0.112-0.156,0.219-0.237,0.321c-0.076,0.096-0.146,0.184-0.188,0.252c-0.012,0.153-0.055,0.401-0.271,0.656
			c-0.195,0.234-0.452,0.344-0.622,0.415c-0.042,0.019-0.075,0.03-0.105,0.046c0,0.004-0.01,0.011-0.078,0.217
			c-0.041,0.123-0.082,0.242-0.136,0.366c-0.193,0.435-0.5,0.619-0.683,0.729c-0.042,0.025-0.093,0.058-0.103,0.069
			c-0.015,0.101,0.138,0.506,0.211,0.701c0.047,0.125,0.091,0.243,0.124,0.35c0.03,0.074,0.06,0.094,0.093,0.118l0.156,0.119
			c0.602,0.477,0.807,1.155,0.523,1.729c-0.175,0.355-0.495,0.557-0.751,0.719c-0.075,0.048-0.186,0.118-0.218,0.149
			c-0.07,0.1-0.083,0.166-0.115,0.487c-0.027,0.271-0.092,0.46-0.145,0.612c-0.024,0.07-0.058,0.165-0.06,0.197l0.05,0.259
			c0.149,0.841,0.314,1.779,0.799,2.055c0.074,0.037,0.325,0.085,0.491,0.117c0.572,0.108,1.212,0.23,1.574,0.757
			c0.188,0.271,0.259,0.59,0.199,0.896c-0.104,0.548-0.557,0.852-0.857,1.052c-0.053,0.036-0.096,0.062-0.129,0.09
			c-0.039,0.032-0.046,0.038-0.083,0.26c-0.039,0.232-0.097,0.582-0.328,0.944c-0.125,0.195-0.277,0.365-0.444,0.542
			c-0.082,0.087-0.169,0.176-0.242,0.278c-0.162,0.229-0.334,0.415-0.518,0.61c-0.094,0.101-0.189,0.2-0.279,0.31
			c-0.026,0.041-0.047,0.101-0.071,0.157c-0.093,0.216-0.218,0.507-0.485,0.733c-0.247,0.213-0.542,0.288-0.81,0.33
			c0.059,0.1,0.101,0.196,0.13,0.298c0.095,0.33,0.067,0.68,0.045,0.96c-0.006,0.083-0.014,0.159-0.014,0.228
			c-0.013,1.308-0.953,1.588-1.593,1.684c0.017,0.068,0.035,0.138,0.05,0.191c0.038,0.142,0.073,0.277,0.096,0.396
			c0.13,0.688,0.167,1.584-0.701,2.421c-0.5,0.481-1.164,0.805-1.698,1.064l-0.257,0.126
			C111.285,156.564,110.802,156.803,110.25,156.803z M79.791,43.922L79.791,43.922z"/>
		<path fill="#07B7A9" d="M80.965,44.067c0.094,0,0.197,0.033,0.313,0.1c0.088,0.051,0.156,0.102,0.221,0.152
			c0.135,0.103,0.263,0.2,0.514,0.247c0.392,0.074,0.456,0.102,0.757,0.327c0.135,0.101,0.276,0.127,0.413,0.152
			c0.116,0.021,0.225,0.041,0.331,0.106c0.111,0.068,0.14,0.163,0.178,0.284c0.026,0.082,0.052,0.167,0.108,0.249
			c0.13,0.192,0.308,0.274,0.479,0.354c0.057,0.027,0.116,0.054,0.175,0.086c0.331,0.18,0.541,0.408,0.785,0.672
			c0.046,0.05,0.093,0.101,0.141,0.152c0.05,0.053,0.099,0.104,0.146,0.153c0.359,0.373,0.619,0.643,0.695,1.212
			c0.019,0.143,0.027,0.289,0.036,0.443c0.022,0.387,0.044,0.787,0.25,1.131c0.133,0.223,0.447,0.271,0.699,0.31
			c0.057,0.009,0.11,0.017,0.155,0.026c0.059,0.013,0.12,0.023,0.184,0.034c0.216,0.037,0.439,0.076,0.591,0.198
			c0.111,0.089,0.182,0.191,0.257,0.299c0.112,0.16,0.228,0.326,0.473,0.433c0.332,0.144,0.65,0.224,0.973,0.243
			c0.077,0.005,0.153,0.006,0.229,0.007c0.286,0.005,0.533,0.009,0.754,0.193c0.367,0.306,0.499,1.203,0.429,1.687
			c-0.012,0.081-0.025,0.161-0.038,0.239c-0.094,0.562-0.183,1.094,0.449,1.507c0.16,0.105,0.285,0.151,0.405,0.151
			c0.121,0,0.226-0.045,0.359-0.103c0.052-0.023,0.11-0.048,0.176-0.073c0.108-0.042,0.274-0.092,0.446-0.092
			c0.187,0,0.331,0.059,0.428,0.175c0.143,0.172,0.149,0.424,0.155,0.668c0.002,0.069,0.003,0.136,0.008,0.2
			c0.012,0.16,0.056,0.291,0.1,0.418c0.042,0.124,0.082,0.24,0.09,0.378c0.008,0.14-0.031,0.277-0.073,0.421
			c-0.042,0.146-0.085,0.296-0.077,0.454c0.019,0.363,0.314,0.528,0.575,0.672l0.03,0.017c0.148,0.083,0.275,0.192,0.398,0.297
			c0.111,0.095,0.216,0.185,0.335,0.258c0.148,0.09,0.326,0.134,0.543,0.134c0.318,0,0.655-0.094,0.953-0.178
			c0.079-0.022,0.154-0.043,0.224-0.061c0.142-0.036,0.262-0.096,0.378-0.154c0.158-0.079,0.308-0.154,0.507-0.157
			c0.199,0,0.362,0.08,0.534,0.165c0.171,0.084,0.347,0.171,0.563,0.177c0.016,0,0.033,0.001,0.05,0.001
			c0.287,0,0.734-0.059,1.028-0.117c0.247-0.049,0.406-0.19,0.56-0.326c0.105-0.093,0.204-0.18,0.328-0.24
			c0.108-0.052,0.205-0.073,0.291-0.092c0.186-0.04,0.346-0.075,0.469-0.373c0.018-0.043,0.033-0.083,0.048-0.12
			c0.1-0.258,0.124-0.319,0.492-0.328l0.039,0c0.597,0,1.217,0.33,1.764,0.621l0.173,0.092c0.116,0.061,0.206,0.186,0.293,0.307
			c0.088,0.122,0.171,0.237,0.282,0.294c0.056,0.029,0.122,0.043,0.194,0.043c0.226,0,0.49-0.14,0.665-0.233l0.205-0.105
			c0.257-0.129,0.548-0.276,0.746-0.434c0.094-0.075,0.163-0.146,0.224-0.208c0.139-0.142,0.231-0.236,0.503-0.262
			c0.057-0.005,0.112-0.008,0.165-0.008c0.4,0,0.685,0.159,0.955,0.528c0.04,0.055,0.079,0.129,0.121,0.206
			c0.086,0.161,0.174,0.327,0.311,0.412c0.128,0.08,0.279,0.091,0.408,0.091c0.048,0,0.096-0.002,0.144-0.003
			c0.046-0.002,0.093-0.003,0.138-0.003c0.101,0,0.172,0.008,0.233,0.027c0.157,0.049,0.221,0.132,0.295,0.229
			c0.063,0.082,0.135,0.176,0.268,0.249c0.15,0.083,0.326,0.094,0.462,0.094c0.068,0,0.137-0.003,0.205-0.006
			c0.065-0.003,0.129-0.005,0.189-0.005c0.069,0,0.133,0.003,0.184,0.011c0.288,0.046,0.372,0.154,0.488,0.303
			c0.051,0.066,0.11,0.141,0.191,0.217c0.116,0.109,0.274,0.192,0.426,0.271c0.24,0.125,0.488,0.255,0.574,0.487
			c0.101,0.274-0.08,0.627-0.284,0.866c-0.21,0.247-0.446,0.483-0.675,0.712c-0.317,0.317-0.644,0.645-0.921,1.016
			c-0.499,0.671-0.994,1.325-1.553,1.96c-0.011,0.013-1.099,1.279-0.955,1.814c0.067,0.25,0.485,0.649,0.732,0.7
			c0.038,0.008,0.076,0.012,0.113,0.012c0.211,0,0.381-0.118,0.545-0.232c0.132-0.092,0.256-0.178,0.392-0.198
			c0.048-0.007,0.096-0.011,0.142-0.011c0.5,0,0.796,0.427,1.082,0.839c0.089,0.128,0.173,0.249,0.263,0.358
			c0.123,0.15,0.306,0.305,0.499,0.469c0.413,0.351,0.881,0.749,0.879,1.191c-0.001,0.299-0.243,0.405-0.45,0.405
			c-0.056,0-0.113-0.007-0.168-0.022c-0.052-0.013-0.1-0.039-0.152-0.065c-0.071-0.037-0.145-0.075-0.236-0.088
			c-0.027-0.004-0.052-0.005-0.076-0.005c-0.055,0-0.105,0.008-0.152,0.016c-0.042,0.007-0.083,0.012-0.124,0.012
			c-0.032,0-0.063-0.003-0.094-0.012c-0.259-0.073-0.453-0.287-0.658-0.514c-0.267-0.295-0.543-0.602-0.989-0.602
			c-0.015,0-0.03,0-0.045,0.001c-0.145,0.006-0.256,0.029-0.355,0.05c-0.097,0.02-0.187,0.035-0.284,0.035
			c-0.077,0-0.158-0.009-0.251-0.033c-0.133-0.033-0.224-0.048-0.304-0.048c-0.203,0-0.331,0.093-0.558,0.271
			c-0.155,0.122-0.325,0.238-0.49,0.35c-0.139,0.095-0.283,0.193-0.419,0.295c-0.089,0.067-0.171,0.139-0.251,0.209
			c-0.196,0.172-0.381,0.335-0.639,0.395c-0.156,0.036-0.33,0.054-0.532,0.054c-0.18,0-0.366-0.014-0.545-0.027
			c-0.181-0.013-0.368-0.028-0.551-0.028c-0.338,0-0.608,0.049-0.851,0.155c-0.468,0.204-0.736,0.312-1.245,0.335
			c-0.447,0.021-0.768,0.094-1.145,0.264c-1.242,0.558-2.23,1.068-3.109,1.607c-0.184,0.113-0.384,0.217-0.576,0.317
			c-0.37,0.193-0.753,0.392-1.067,0.674c-0.375,0.337-0.682,0.523-1.217,0.74c-0.584,0.236-0.849,0.607-0.857,1.202
			c-0.004,0.313,0.035,0.59,0.073,0.857c0.077,0.537,0.143,1.001-0.175,1.586c-0.188,0.345-0.455,0.646-0.714,0.938
			c-0.336,0.379-0.684,0.771-0.876,1.273c-0.195,0.507,0.016,0.88,0.219,1.24c0.155,0.274,0.315,0.557,0.297,0.906
			c-0.039,0.779-0.722,0.978-1.383,1.171c-0.201,0.059-0.409,0.119-0.591,0.195c-0.763,0.317-2.075,1.172-2.349,2.117
			c-0.12,0.415-0.039,0.89,0.233,1.375c0.017,0.031,0.036,0.063,0.055,0.096c0.198,0.338,0.307,0.575,0.043,0.789
			c-0.104,0.084-0.247,0.112-0.399,0.143c-0.165,0.033-0.336,0.067-0.475,0.176c-0.187,0.147-0.245,0.319-0.266,0.503l-0.012,0.155
			c-0.001,0.021-0.002,0.042-0.003,0.064c-0.002,0.062-0.005,0.127-0.011,0.194c-0.055,0.609,0.45,0.868,0.938,1.118
			c0.173,0.089,0.352,0.18,0.495,0.285c0.327,0.238,0.464,0.393,0.355,0.63c-0.035,0.077-0.082,0.143-0.127,0.207
			c-0.12,0.17-0.243,0.345-0.048,0.644c0.09,0.138,0.204,0.218,0.304,0.287c0.138,0.096,0.247,0.172,0.282,0.377
			c0.021,0.121,0.011,0.224,0.001,0.324c-0.017,0.176-0.034,0.358,0.135,0.583c0.055,0.073,0.117,0.12,0.178,0.166
			c0.076,0.057,0.142,0.107,0.187,0.2c0.027,0.055,0.032,0.128,0.037,0.206c0.006,0.083,0.011,0.168,0.044,0.245
			c0.103,0.239,0.313,0.313,0.516,0.384c0.147,0.052,0.285,0.1,0.385,0.209c0.127,0.138,0.189,0.319,0.255,0.51
			c0.067,0.195,0.135,0.396,0.279,0.557c0.138,0.155,0.314,0.25,0.485,0.342c0.188,0.101,0.365,0.197,0.478,0.363
			c0.126,0.184,0.213,0.405,0.297,0.619c0.063,0.159,0.128,0.323,0.209,0.475c0.046,0.086,0.128,0.18,0.215,0.279
			c0.13,0.149,0.278,0.318,0.282,0.445c0.009,0.285-0.274,0.519-0.574,0.768c-0.281,0.233-0.572,0.473-0.633,0.781
			c-0.03,0.151,0.002,0.284,0.094,0.397c0.228,0.277,0.823,0.412,1.821,0.412c0.144,0,0.274-0.003,0.378-0.005
			c0.066-0.001,0.121-0.002,0.163-0.003h0.039c0.61,0,1.496,0.039,2.257,0.227c0.492,0.122,0.551,0.401,0.624,0.755
			c0.048,0.23,0.102,0.491,0.293,0.726c0.207,0.255,0.296,0.43,0.28,0.793c-0.004,0.102-0.03,0.193-0.055,0.28
			c-0.058,0.203-0.118,0.412,0.202,0.613c0.183,0.115,0.418,0.171,0.719,0.171c0.358,0,0.758-0.081,1.112-0.152
			c0.263-0.053,0.511-0.103,0.708-0.114c0.347-0.019,0.692-0.049,1.025-0.079c0.301-0.026,0.613-0.054,0.919-0.072
			c0.644-0.039,1.061-0.218,1.59-0.444c0.105-0.045,0.214-0.092,0.33-0.14c0.092-0.038,0.186-0.061,0.285-0.085
			c0.179-0.044,0.365-0.089,0.531-0.228c0.19-0.159,0.336-0.421,0.465-0.652c0.038-0.068,0.075-0.134,0.111-0.194
			c0.359-0.596,0.861-1.044,1.413-1.26c0.171-0.067,0.345-0.106,0.478-0.106c0.079,0,0.182,0.014,0.224,0.079
			c0.042,0.066,0.026,0.185-0.046,0.344c-0.041,0.09-0.103,0.167-0.169,0.248c-0.079,0.098-0.161,0.2-0.205,0.327
			c-0.074,0.219-0.009,0.329,0.049,0.426c0.029,0.049,0.054,0.091,0.062,0.148c0.029,0.202-0.09,0.344-0.228,0.509
			c-0.121,0.144-0.246,0.293-0.274,0.497c-0.012,0.088-0.02,0.18-0.027,0.272l-0.008,0.164c-0.011,0.276-0.005,0.562,0.002,0.843
			c0.004,0.145,0.008,0.287,0.009,0.423c0.003,0.457,0.008,0.914,0.012,1.371c0.009,0.982,0.019,1.998,0.019,2.997
			c0,0.05-0.005,0.113-0.01,0.182c-0.021,0.285-0.047,0.64,0.153,0.79c0.072,0.054,0.139,0.08,0.204,0.08
			c0.123,0,0.204-0.094,0.276-0.178c0.066-0.077,0.128-0.15,0.215-0.155l0.016-0.001c0.134,0,0.235,0.119,0.342,0.244
			c0.078,0.092,0.159,0.186,0.258,0.235c0.087,0.042,0.186,0.064,0.294,0.064c0.261,0,0.531-0.123,0.711-0.216l0.153-0.079
			c0.658-0.341,1.133-0.587,1.904-0.587c0.069,0,0.144-0.001,0.223-0.001c0.088-0.001,0.181-0.002,0.277-0.002
			c0.498,0,1.115,0.024,1.475,0.213c0.571,0.3,1.047,1.025,1.303,1.604c0.224,0.508,0.481,1.005,0.73,1.485
			c0.228,0.441,0.464,0.897,0.674,1.361c0.105,0.231,0.205,0.469,0.302,0.699c0.2,0.473,0.406,0.962,0.661,1.42
			c0.125,0.224,0.217,0.458,0.306,0.684c0.103,0.263,0.21,0.536,0.37,0.796c0.106,0.173,0.243,0.353,0.387,0.544
			c0.485,0.64,1.035,1.365,0.579,2.081c-0.173,0.271-0.457,0.331-0.758,0.395c-0.266,0.056-0.54,0.114-0.736,0.327
			c-0.24,0.261-0.319,0.637-0.333,1.015l-0.002,0.174c0.002,0.233,0.023,0.459,0.042,0.651c0.041,0.429,0.04,0.871,0.039,1.299
			l0,0.214c0,0.1,0.009,0.214,0.019,0.335c0.02,0.242,0.042,0.516-0.014,0.698c-0.039,0.128-0.136,0.23-0.24,0.338
			c-0.095,0.1-0.194,0.203-0.252,0.335c-0.129,0.289-0.026,0.51,0.073,0.723c0.041,0.088,0.083,0.178,0.112,0.277
			c0.036,0.124,0.056,0.238,0.075,0.348c0.032,0.182,0.061,0.354,0.16,0.538c0.396,0.733,0.416,1.25,0.068,1.784
			c-0.063,0.097-0.136,0.188-0.206,0.277c-0.121,0.152-0.246,0.308-0.323,0.494c-0.032,0.076-0.034,0.14-0.037,0.19
			c-0.003,0.066-0.005,0.11-0.062,0.178c-0.063,0.075-0.179,0.124-0.292,0.171c-0.095,0.04-0.192,0.081-0.269,0.14
			c-0.257,0.2-0.332,0.425-0.411,0.665c-0.03,0.092-0.062,0.188-0.105,0.286c-0.077,0.174-0.192,0.244-0.325,0.324
			c-0.107,0.065-0.229,0.138-0.338,0.274c-0.357,0.442-0.12,1.074,0.071,1.581c0.041,0.108,0.079,0.21,0.108,0.301
			c0.109,0.343,0.224,0.429,0.415,0.57c0.04,0.03,0.084,0.062,0.133,0.101c0.07,0.056,0.415,0.349,0.276,0.63
			c-0.063,0.128-0.247,0.244-0.425,0.357c-0.169,0.107-0.344,0.217-0.443,0.353c-0.243,0.332-0.27,0.607-0.305,0.956l-0.004,0.038
			c-0.013,0.128-0.054,0.247-0.098,0.373c-0.068,0.196-0.138,0.399-0.093,0.635c0.021,0.111,0.042,0.228,0.064,0.351
			c0.166,0.939,0.373,2.108,1.224,2.592c0.19,0.108,0.473,0.162,0.773,0.22c0.415,0.079,0.843,0.161,0.997,0.384
			c0.052,0.076,0.071,0.147,0.058,0.217c-0.035,0.182-0.28,0.347-0.477,0.479c-0.076,0.051-0.147,0.099-0.203,0.145
			c-0.303,0.251-0.349,0.531-0.394,0.803c-0.033,0.197-0.067,0.401-0.198,0.607c-0.095,0.149-0.215,0.276-0.341,0.41
			c-0.11,0.117-0.223,0.237-0.32,0.374c-0.139,0.195-0.287,0.353-0.444,0.52c-0.103,0.11-0.21,0.224-0.313,0.348
			c-0.088,0.106-0.147,0.244-0.205,0.377c-0.069,0.16-0.134,0.311-0.24,0.402c-0.114,0.097-0.328,0.124-0.554,0.152
			c-0.39,0.048-0.875,0.109-0.866,0.636c0.003,0.186,0.101,0.31,0.206,0.423l0.148,0.164c0.046,0.057,0.085,0.117,0.106,0.189
			c0.048,0.169,0.029,0.418,0.012,0.639c-0.008,0.104-0.016,0.203-0.017,0.29c-0.006,0.711-0.428,0.759-1.065,0.832l-0.045,0.005
			c-0.202,0.023-0.349,0.1-0.435,0.227c-0.178,0.262-0.066,0.681,0.033,1.051c0.032,0.118,0.061,0.229,0.08,0.328
			c0.117,0.618,0.083,1.103-0.442,1.61c-0.396,0.382-0.965,0.659-1.467,0.903l-0.261,0.128c-0.337,0.167-0.685,0.341-1.029,0.341
			c-0.179,0-0.339-0.047-0.489-0.145c-0.232-0.151-0.412-0.345-0.603-0.55c-0.24-0.258-0.489-0.526-0.847-0.698
			c-0.101-0.048-0.194-0.085-0.285-0.12c-0.178-0.07-0.332-0.13-0.498-0.26c-0.041-0.032-0.086-0.065-0.131-0.099
			c-0.152-0.113-0.308-0.229-0.4-0.361c-0.052-0.075-0.078-0.146-0.104-0.214c-0.049-0.133-0.101-0.27-0.328-0.378
			c-0.15-0.071-0.307-0.122-0.46-0.172c-0.151-0.049-0.307-0.1-0.451-0.169c-0.204-0.098-0.398-0.238-0.572-0.385l-0.12-0.106
			c-0.179-0.164-0.328-0.329-0.429-0.448c-0.228-0.269-0.214-0.571-0.199-0.892c0.012-0.258,0.024-0.524-0.084-0.793
			c-0.116-0.288-0.32-0.524-0.603-0.711l-0.136-0.085c-0.204-0.114-0.443-0.205-0.718-0.274c-0.146-0.036-0.278-0.054-0.405-0.072
			c-0.305-0.042-0.546-0.076-0.799-0.338c-0.093-0.096-0.183-0.203-0.27-0.307c-0.234-0.278-0.476-0.565-0.826-0.723
			c-0.143-0.065-0.292-0.114-0.435-0.162c-0.385-0.129-0.748-0.25-0.961-0.639c-0.052-0.094-0.079-0.174-0.106-0.252
			c-0.057-0.166-0.106-0.31-0.35-0.45c-0.201-0.115-0.445-0.187-0.682-0.257c-0.14-0.041-0.272-0.08-0.392-0.127
			c-0.083-0.032-0.166-0.065-0.249-0.098c-0.3-0.119-0.61-0.241-0.928-0.328c-0.339-0.093-0.389-0.142-0.574-0.325
			c-0.034-0.034-0.073-0.072-0.118-0.115c-0.302-0.287-0.698-0.433-1.081-0.574c-0.205-0.075-0.398-0.147-0.578-0.238
			c-0.836-0.422-1.677-0.619-2.39-0.756l-0.036-0.007c-0.737-0.141-1.499-0.288-2.106-0.747c-0.159-0.12-0.303-0.262-0.444-0.399
			c-0.167-0.164-0.339-0.333-0.543-0.474c-0.694-0.483-1.349-0.94-2.163-1.267c-0.205-0.083-0.39-0.195-0.586-0.315
			c-0.155-0.095-0.316-0.193-0.488-0.275c-0.187-0.089-0.381-0.169-0.569-0.247c-0.291-0.12-0.591-0.245-0.868-0.403
			c-0.241-0.138-0.477-0.242-0.707-0.343c-0.287-0.126-0.552-0.245-0.794-0.411l-0.128-0.094c-0.153-0.122-0.296-0.268-0.427-0.457
			c-0.123-0.177-0.208-0.381-0.291-0.578c-0.161-0.384-0.327-0.781-0.774-0.967c-0.09-0.037-0.168-0.064-0.239-0.089
			c-0.211-0.072-0.338-0.116-0.518-0.343c-0.295-0.372-0.566-0.638-0.933-0.915c-0.163-0.123-0.298-0.251-0.441-0.386
			c-0.078-0.074-0.158-0.149-0.243-0.224c-0.137-0.121-0.286-0.241-0.43-0.356c-0.256-0.205-0.52-0.417-0.736-0.653
			c-0.239-0.261-0.36-0.575-0.488-0.908c-0.094-0.244-0.191-0.496-0.338-0.725c-0.069-0.107-0.136-0.203-0.203-0.298
			c-0.112-0.16-0.218-0.311-0.316-0.494c-0.204-0.38-0.367-0.42-0.663-0.491c-0.046-0.011-0.097-0.023-0.152-0.038
			c-0.31-0.082-0.312-0.184-0.317-0.458c-0.001-0.06-0.002-0.125-0.007-0.196c-0.016-0.243-0.096-0.373-0.18-0.51
			c-0.047-0.076-0.096-0.155-0.138-0.262c-0.062-0.156-0.07-0.28-0.024-0.367c0.047-0.087,0.155-0.15,0.321-0.187
			c0.046-0.01,0.088-0.019,0.126-0.027c0.34-0.07,0.41-0.096,0.609-0.507c0.275-0.567,0.462-1.474,0.083-2.163
			c-0.132-0.241-0.312-0.44-0.509-0.62l-0.113-0.1c-0.125-0.106-0.255-0.207-0.384-0.306c-0.431-0.331-0.838-0.644-1.024-1.139
			c-0.318-0.846-0.703-1.861-1.277-2.779l-0.08-0.129c-0.097-0.149-0.199-0.296-0.308-0.438c-0.094-0.122-0.212-0.221-0.326-0.316
			c-0.1-0.083-0.195-0.162-0.274-0.256c-0.083-0.098-0.154-0.204-0.23-0.317c-0.054-0.08-0.108-0.161-0.166-0.238
			c-0.339-0.449-0.614-0.831-0.857-1.24c-0.015-0.026-0.032-0.053-0.051-0.08l-0.83-2.199c-0.012-0.016-0.026-0.032-0.037-0.048
			c-0.34-0.454-0.615-0.9-0.905-1.37l-0.081-0.131l-0.101-0.163c-0.199-0.321-0.507-0.449-0.805-0.573
			c-0.27-0.112-0.524-0.217-0.677-0.461c-0.088-0.139-0.109-0.337-0.13-0.529c-0.015-0.135-0.03-0.274-0.068-0.395
			c-0.116-0.367-0.296-0.706-0.471-1.035c-0.15-0.282-0.305-0.574-0.414-0.875c-0.159-0.442-0.335-0.81-0.54-1.167l-0.076-0.129
			c-0.111-0.187-0.23-0.373-0.361-0.568c-0.194-0.29-0.406-0.579-0.61-0.859c-0.229-0.313-0.466-0.636-0.678-0.962
			c-0.308-0.473-0.492-0.971-0.674-1.573c-0.035-0.117-0.07-0.237-0.105-0.358c-0.177-0.607-0.359-1.235-0.671-1.774
			c-0.162-0.28-0.264-0.57-0.364-0.867c-0.062-0.186-0.153-0.333-0.248-0.489c-0.061-0.099-0.124-0.201-0.182-0.318
			c-0.106-0.215-0.182-0.43-0.256-0.638c-0.138-0.389-0.268-0.756-0.577-1.122c-0.061-0.072-0.125-0.139-0.188-0.207l-0.106-0.115
			c-0.351-0.372-0.647-0.7-0.571-1.25c0.012-0.084,0.024-0.164,0.036-0.24c0.084-0.54,0.145-0.931-0.342-1.445
			c-0.417-0.441-0.811-0.857-1.127-1.425c-0.056-0.1-0.108-0.197-0.158-0.29c-0.316-0.587-0.566-1.05-1.193-1.457
			c-0.714-0.464-1.125-1.219-1.433-1.897c-0.071-0.156-0.133-0.316-0.193-0.47c-0.129-0.333-0.263-0.677-0.487-0.986
			c-0.091-0.125-0.191-0.244-0.289-0.359c-0.07-0.083-0.14-0.166-0.206-0.25c-0.034-0.044-0.066-0.088-0.098-0.133
			c-0.001-0.015-0.002-0.03-0.003-0.045l-0.166-0.216c-0.164-0.272-0.298-0.555-0.429-0.832c-0.266-0.563-0.54-1.145-1.061-1.628
			c-0.13-0.121-0.255-0.251-0.376-0.376c-0.337-0.351-0.685-0.713-1.165-0.889c-0.438-0.161-0.785-0.4-1.152-0.654
			c-0.196-0.135-0.398-0.275-0.618-0.404c-0.2-0.117-0.398-0.217-0.607-0.323l-0.19-0.097c-0.281-0.144-0.564-0.308-0.843-0.48
			l-0.184-0.115c-0.249-0.157-0.495-0.318-0.733-0.478c-0.269-0.18-0.57-0.257-0.861-0.331c-0.269-0.068-0.522-0.133-0.753-0.272
			c-0.328-0.199-0.55-0.594-0.504-0.9c0.029-0.198,0.17-0.335,0.407-0.395c0.175-0.045,0.343-0.055,0.505-0.065
			c0.419-0.026,0.815-0.05,0.917-0.757c0.112-0.78-0.022-1.476-0.368-1.908c-0.177-0.221-0.389-0.409-0.594-0.591
			c-0.274-0.243-0.533-0.473-0.718-0.775c-0.117-0.191-0.249-0.584-0.105-0.825c0.064-0.107,0.149-0.146,0.239-0.187
			c0.135-0.061,0.287-0.13,0.294-0.427c0.01-0.448-0.485-0.832-0.922-1.17c-0.168-0.13-0.326-0.253-0.426-0.36
			c-0.363-0.386-0.355-0.981,0.023-1.818c0.041-0.09,0.08-0.179,0.119-0.268c0.151-0.342,0.293-0.665,0.491-0.984
			c0.132-0.212,0.298-0.376,0.474-0.551c0.142-0.141,0.289-0.286,0.415-0.458l0.082-0.126c0.087-0.134,0.168-0.272,0.244-0.409
			c0.077-0.14,0.157-0.285,0.245-0.418c0.114-0.172,0.215-0.34,0.312-0.501c0.327-0.546,0.61-1.017,1.245-1.363
			c0.179-0.098,0.376-0.175,0.566-0.25c0.383-0.151,0.78-0.307,1.065-0.638c0.032-0.037,0.065-0.08,0.1-0.126
			c0.116-0.153,0.261-0.343,0.422-0.343c0.027,0,0.054,0.005,0.082,0.015c0.186,0.068,0.259,0.359,0.307,0.552
			c0.008,0.033,0.016,0.064,0.024,0.091c0.075,0.27,0.164,0.542,0.25,0.805c0.1,0.306,0.203,0.623,0.283,0.93
			c0.125,0.484-0.172,0.598-0.667,0.742c-0.12,0.035-0.244,0.071-0.361,0.117c-0.098,0.039-0.247,0.12-0.395,0.226l-0.3,0.263
			c-0.116,0.129-0.198,0.27-0.199,0.409c-0.001,0.115,0.054,0.276,0.324,0.389c0.066,0.027,0.134,0.044,0.201,0.06
			c0.107,0.026,0.207,0.05,0.239,0.11c0.027,0.051,0.015,0.14-0.033,0.265c-0.047,0.119-0.171,0.222-0.291,0.321
			c-0.082,0.068-0.167,0.139-0.231,0.217c-0.146,0.179-0.301,0.435-0.214,0.634c0.056,0.129,0.2,0.203,0.428,0.219
			c0.026,0.002,0.051,0.003,0.075,0.003c0.316,0,0.513-0.14,0.721-0.289c0.084-0.06,0.171-0.123,0.27-0.178
			c0.26-0.145,0.594-0.23,0.886-0.23c0.058,0,0.115,0.003,0.169,0.01c0.182,0.024,0.327,0.126,0.48,0.233
			c0.123,0.086,0.249,0.175,0.4,0.225c0.251,0.083,0.597,0.094,0.902,0.103c0.082,0.002,0.161,0.005,0.234,0.009
			c0.02,0.001,0.041,0.001,0.063,0.001c0.096,0,0.202-0.009,0.313-0.018c0.11-0.01,0.224-0.019,0.33-0.019
			c0.108,0,0.194,0.011,0.261,0.032c0.38,0.122,0.539,0.762,0.655,1.229c0.033,0.132,0.064,0.256,0.096,0.355
			c0.021,0.064,0.039,0.126,0.057,0.188c0.074,0.255,0.144,0.497,0.369,0.717c0.102,0.1,0.204,0.177,0.303,0.251
			c0.125,0.094,0.243,0.182,0.355,0.312c0.117,0.135,0.208,0.208,0.302,0.242l0.168,0.021c0.028-0.001,0.056-0.003,0.089-0.006
			c0.051-0.005,0.109-0.011,0.179-0.011c0.04,0,0.085,0.002,0.135,0.007c0.094,0.01,0.177,0.041,0.265,0.073
			c0.11,0.04,0.224,0.082,0.359,0.082c0.081,0,0.161-0.015,0.244-0.046c0.259-0.095,0.476-0.402,0.584-0.635
			c0.102-0.221,0.048-0.409,0.001-0.574c-0.035-0.122-0.068-0.237-0.044-0.365c0.069-0.366,0.575-0.622,0.981-0.828
			c0.104-0.053,0.203-0.103,0.29-0.152l0.134-0.084c0.322-0.217,0.486-0.431,0.496-0.654c0.005-0.101-0.047-0.191-0.093-0.271
			c-0.033-0.057-0.064-0.111-0.07-0.16c-0.017-0.136,0.011-0.218,0.053-0.343c0.012-0.037,0.026-0.076,0.039-0.119
			c0.09-0.3,0.189-0.604,0.284-0.897c0.106-0.326,0.216-0.662,0.315-1c0.023-0.076,0.044-0.153,0.065-0.229
			c0.072-0.258,0.139-0.502,0.253-0.739c0.077-0.161,0.197-0.286,0.324-0.419c0.127-0.133,0.259-0.271,0.348-0.449
			c0.109-0.218,0.123-0.528,0.136-0.801c0.004-0.079,0.007-0.155,0.013-0.223c0.003-0.036,0.006-0.077,0.008-0.12
			c0.014-0.231,0.036-0.581,0.184-0.712c0.07-0.062,0.129-0.094,0.176-0.094c0.07,0,0.13,0.077,0.199,0.166
			c0.058,0.075,0.118,0.152,0.2,0.202c0.086,0.053,0.159,0.079,0.224,0.079c0.248,0,0.254-0.32,0.26-0.603l0-0.021
			c0.008-0.373,0.072-0.558,0.285-0.827c0.326-0.411,0.727-0.734,1.115-1.046c0.184-0.148,0.375-0.302,0.556-0.463
			c0.019-0.017,0.039-0.032,0.059-0.048l0.123-0.089c0.218-0.14,0.477-0.237,0.729-0.332c0.052-0.02,0.104-0.039,0.155-0.059
			c0.29-0.112,0.583-0.205,0.866-0.295c0.608-0.194,1.182-0.377,1.727-0.727c0.343-0.221,0.785-0.388,1.087-0.495
			c0.328-0.116,0.675-0.193,1.011-0.268c0.129-0.029,0.257-0.057,0.385-0.088c1.482-0.358,2.896-1.248,4.323-2.722
			c0.124-0.128,0.247-0.259,0.371-0.39c0.176-0.186,0.358-0.379,0.538-0.56c0.214-0.215,0.443-0.414,0.665-0.606
			c0.334-0.29,0.679-0.589,0.973-0.945c0.117-0.141,0.24-0.272,0.359-0.399c0.333-0.353,0.647-0.687,0.79-1.192
			c0.058-0.205,0.072-0.413,0.086-0.613c0.008-0.113,0.016-0.23,0.032-0.345c0.034-0.248,0.113-0.455,0.196-0.674
			c0.022-0.059,0.045-0.119,0.068-0.181c0.034-0.094,0.06-0.235,0.091-0.399c0.088-0.471,0.208-1.113,0.588-1.113
			c0.013,0,0.026,0.001,0.039,0.002c0.03,0.003,0.049,0.026,0.087,0.078c0.047,0.065,0.111,0.153,0.246,0.153l0.02-0.001
			c0.231-0.015,0.259-0.154,0.281-0.266c0.006-0.029,0.012-0.059,0.022-0.091c0.067-0.214,0.054-0.468,0.042-0.714
			c-0.004-0.089-0.009-0.176-0.009-0.257c0-0.107,0.002-0.212,0.004-0.315c0.011-0.554,0.021-1.077-0.321-1.585
			c-0.09-0.134-0.173-0.278-0.253-0.417c-0.193-0.335-0.392-0.682-0.712-0.903c-0.061-0.042-0.161-0.093-0.277-0.152
			c-0.272-0.138-0.727-0.37-0.744-0.567c-0.002-0.021-0.007-0.086,0.111-0.174c0.071-0.053,0.145-0.079,0.227-0.079
			c0.172,0,0.358,0.111,0.555,0.228c0.221,0.131,0.45,0.267,0.693,0.267c0.058,0,0.115-0.008,0.169-0.023
			c0.225-0.064,0.381-0.232,0.533-0.395C80.62,44.22,80.763,44.067,80.965,44.067 M80.965,42.274c-0.621,0-1.085,0.252-1.405,0.506
			c-0.281-0.133-0.636-0.252-1.055-0.252c-0.469,0-0.919,0.151-1.3,0.435c-0.582,0.436-0.883,1.077-0.825,1.761
			c0.103,1.194,1.154,1.729,1.718,2.016c0.018,0.009,0.035,0.018,0.051,0.026c0.054,0.077,0.138,0.221,0.196,0.323
			c0.1,0.175,0.206,0.355,0.32,0.525c0.022,0.064,0.021,0.289,0.018,0.471c-0.642,0.377-1.074,1.148-1.29,2.305
			c-0.011,0.06-0.021,0.116-0.031,0.163l-0.041,0.111c-0.099,0.26-0.234,0.616-0.296,1.065c-0.022,0.156-0.034,0.315-0.044,0.468
			c-0.006,0.09-0.015,0.212-0.024,0.254c-0.022,0.078-0.198,0.265-0.368,0.446c-0.145,0.154-0.294,0.314-0.435,0.485
			c-0.2,0.242-0.475,0.481-0.767,0.734c-0.234,0.203-0.499,0.433-0.76,0.695c-0.192,0.193-0.385,0.397-0.572,0.596
			c-0.121,0.128-0.238,0.252-0.355,0.373c-1.183,1.222-2.313,1.95-3.455,2.226c-0.116,0.028-0.232,0.054-0.349,0.08
			c-0.375,0.084-0.793,0.177-1.223,0.329c-0.387,0.136-0.96,0.355-1.461,0.678c-0.346,0.222-0.768,0.357-1.302,0.527
			c-0.316,0.101-0.642,0.206-0.966,0.331l-0.141,0.054c-0.289,0.108-0.686,0.257-1.067,0.502c-0.026,0.017-0.052,0.034-0.077,0.052
			l-0.123,0.089c-0.023,0.017-0.046,0.034-0.069,0.052c-0.051,0.04-0.096,0.077-0.14,0.116c-0.157,0.14-0.324,0.274-0.485,0.403
			c-0.444,0.358-0.945,0.761-1.395,1.328c-0.104,0.131-0.195,0.263-0.274,0.396c-0.265,0.073-0.563,0.215-0.859,0.478
			c-0.7,0.623-0.756,1.513-0.782,1.941l-0.005,0.081c-0.007,0.088-0.012,0.185-0.017,0.285c-0.002,0.039-0.003,0.077-0.004,0.116
			c-0.178,0.186-0.435,0.461-0.63,0.867c-0.182,0.38-0.279,0.728-0.364,1.035l-0.057,0.201c-0.095,0.322-0.199,0.641-0.299,0.95
			c-0.101,0.309-0.204,0.626-0.298,0.94l-0.02,0.059c-0.053,0.156-0.139,0.411-0.151,0.756c-0.529,0.28-1.26,0.738-1.583,1.558
			c-0.006-0.02-0.013-0.04-0.019-0.06c-0.021-0.064-0.039-0.145-0.06-0.231c-0.167-0.674-0.515-2.077-1.846-2.505
			c-0.246-0.08-0.512-0.118-0.81-0.118c-0.155,0-0.323,0.012-0.485,0.026c-0.057,0.005-0.11,0.011-0.159,0.012
			c-0.053-0.003-0.146-0.006-0.242-0.009c-0.096-0.003-0.239-0.007-0.341-0.015c-0.172-0.121-0.443-0.307-0.813-0.429
			c0.676-0.766,0.525-1.705,0.433-2.061c-0.094-0.363-0.211-0.721-0.314-1.038c-0.078-0.239-0.159-0.485-0.227-0.73
			c0,0-0.013-0.05-0.013-0.05c-0.086-0.343-0.352-1.402-1.431-1.796c-0.226-0.082-0.46-0.124-0.696-0.124
			c-1.051,0-1.631,0.764-1.85,1.052l-0.012,0.016c-0.077,0.045-0.258,0.116-0.382,0.165c-0.219,0.086-0.49,0.193-0.766,0.343
			c-1.065,0.579-1.543,1.376-1.926,2.015c-0.084,0.139-0.169,0.284-0.268,0.432c-0.115,0.172-0.221,0.361-0.322,0.545
			c-0.054,0.098-0.111,0.197-0.174,0.293l-0.044,0.068c-0.05,0.06-0.133,0.143-0.214,0.223c-0.219,0.217-0.492,0.487-0.734,0.876
			c-0.266,0.427-0.449,0.843-0.61,1.209l-0.112,0.253c-0.872,1.932-0.316,3.124,0.304,3.784c0.127,0.136,0.265,0.256,0.405,0.369
			c-0.306,0.838-0.056,1.741,0.293,2.31c0.324,0.529,0.73,0.89,1.056,1.179c0.098,0.087,0.192,0.171,0.269,0.246
			c-0.926,0.243-1.584,0.956-1.719,1.865c-0.151,1.016,0.404,2.125,1.349,2.697c0.459,0.278,0.91,0.392,1.239,0.476
			c0.116,0.03,0.274,0.07,0.324,0.094c0.231,0.157,0.492,0.327,0.755,0.493l0.189,0.119c0.366,0.225,0.682,0.405,0.977,0.556
			l0.196,0.099c0.179,0.091,0.345,0.173,0.512,0.271c0.181,0.106,0.347,0.222,0.507,0.333c0.422,0.292,0.902,0.622,1.554,0.861
			c0.094,0.037,0.341,0.294,0.488,0.447c0.144,0.15,0.294,0.305,0.449,0.449c0.267,0.248,0.44,0.615,0.659,1.079
			c0.134,0.283,0.3,0.636,0.514,0.991c0.035,0.059,0.074,0.116,0.116,0.17l0.006,0.008c0.036,0.067,0.075,0.131,0.12,0.194
			c0.047,0.067,0.096,0.133,0.147,0.199c0.081,0.104,0.166,0.205,0.252,0.307c0.07,0.083,0.142,0.165,0.205,0.252
			c0.089,0.123,0.177,0.348,0.269,0.586c0.073,0.187,0.147,0.376,0.232,0.562c0.391,0.86,0.981,1.939,2.088,2.659
			c0.223,0.145,0.3,0.264,0.592,0.805l0.169,0.311c0.389,0.699,0.852,1.213,1.274,1.662c-0.003,0.02-0.007,0.04-0.01,0.06
			l-0.04,0.27c-0.195,1.414,0.641,2.301,1.043,2.727l0.088,0.097c0.005,0.005,0.036,0.039,0.041,0.044
			c0.033,0.035,0.067,0.07,0.099,0.108c0.09,0.107,0.14,0.233,0.257,0.564c0.083,0.233,0.185,0.522,0.338,0.832
			c0.084,0.17,0.173,0.319,0.261,0.463c0.03,0.049,0.061,0.094,0.086,0.144c0.115,0.348,0.257,0.747,0.503,1.172
			c0.203,0.351,0.348,0.85,0.502,1.377l0.111,0.376c0.196,0.648,0.439,1.344,0.889,2.034c0.238,0.365,0.488,0.707,0.731,1.038
			c0.193,0.264,0.389,0.53,0.568,0.799c0.113,0.169,0.216,0.329,0.312,0.491l0.07,0.12c0.159,0.278,0.285,0.55,0.399,0.867
			c0.152,0.422,0.346,0.787,0.517,1.108c0.133,0.25,0.259,0.487,0.329,0.688c0.004,0.031,0.007,0.063,0.01,0.094
			c0.032,0.299,0.087,0.801,0.395,1.29c0.456,0.726,1.14,1.009,1.508,1.162c0.023,0.01,0.047,0.019,0.071,0.029l0.076,0.123
			c0.252,0.41,0.536,0.871,0.88,1.346l0.74,1.961c0.047,0.123,0.107,0.241,0.179,0.351c0.292,0.491,0.6,0.92,0.974,1.416
			c0.038,0.05,0.072,0.103,0.107,0.155c0.09,0.135,0.202,0.303,0.353,0.48c0.181,0.214,0.363,0.365,0.496,0.476
			c0.025,0.021,0.052,0.042,0.077,0.064c0.071,0.095,0.137,0.192,0.202,0.291l0.056,0.091c0.493,0.789,0.843,1.719,1.124,2.467
			c0.366,0.973,1.084,1.526,1.609,1.93c0.106,0.082,0.214,0.164,0.317,0.252l0.087,0.077c0.091,0.083,0.119,0.13,0.124,0.138
			c0.004,0.026-0.001,0.103-0.021,0.2c-0.657,0.255-0.984,0.706-1.13,0.979c-0.172,0.323-0.408,0.995-0.06,1.871
			c0.068,0.17,0.14,0.308,0.201,0.413c0.054,1.357,0.931,1.864,1.532,2.052c0.083,0.131,0.163,0.245,0.238,0.352
			c0.054,0.077,0.109,0.154,0.163,0.239c0.048,0.075,0.114,0.247,0.173,0.398c0.157,0.408,0.371,0.965,0.841,1.477
			c0.308,0.336,0.641,0.603,0.935,0.839c0.126,0.101,0.25,0.2,0.365,0.301c0.069,0.061,0.135,0.123,0.199,0.185
			c0.164,0.155,0.35,0.33,0.591,0.512c0.247,0.187,0.407,0.344,0.609,0.599c0.431,0.544,0.864,0.754,1.246,0.892
			c0.012,0.029,0.025,0.059,0.036,0.085c0.102,0.242,0.24,0.574,0.47,0.906c0.224,0.323,0.481,0.598,0.786,0.84
			c0.019,0.015,0.038,0.029,0.057,0.044l0.128,0.094c0.014,0.01,0.029,0.021,0.044,0.031c0.39,0.268,0.776,0.438,1.087,0.575
			c0.204,0.09,0.379,0.167,0.537,0.257c0.377,0.216,0.748,0.37,1.075,0.505c0.159,0.066,0.324,0.133,0.483,0.209
			c0.115,0.055,0.221,0.123,0.325,0.186c0.226,0.138,0.507,0.309,0.851,0.448c0.625,0.252,1.172,0.632,1.805,1.074
			c0.082,0.057,0.195,0.168,0.314,0.285c0.166,0.162,0.368,0.36,0.616,0.548c0.941,0.713,2,0.916,2.851,1.079
			c0.656,0.126,1.318,0.281,1.955,0.602c0.272,0.138,0.535,0.235,0.767,0.32c0.163,0.06,0.409,0.151,0.479,0.202l0.082,0.081
			c0.379,0.373,0.692,0.595,1.36,0.778c0.225,0.062,0.476,0.161,0.743,0.266l0.263,0.103c0.163,0.063,0.341,0.118,0.53,0.173
			c0.007,0.002,0.015,0.004,0.023,0.007c0.016,0.031,0.033,0.064,0.051,0.097c0.549,1.001,1.468,1.308,1.962,1.474
			c0.076,0.026,0.153,0.049,0.228,0.08c0.055,0.052,0.155,0.17,0.23,0.259c0.116,0.138,0.232,0.273,0.351,0.397
			c0.684,0.71,1.44,0.815,1.846,0.871c0.068,0.01,0.14,0.017,0.22,0.036c0.075,0.019,0.134,0.038,0.179,0.055
			c-0.02,0.437-0.052,1.321,0.623,2.118c0.124,0.147,0.327,0.372,0.582,0.607l0.15,0.133c0.344,0.293,0.658,0.502,0.982,0.657
			c0.208,0.099,0.403,0.168,0.569,0.223c0.022,0.036,0.046,0.072,0.071,0.109c0.26,0.378,0.59,0.622,0.808,0.784l0.09,0.068
			c0.375,0.295,0.724,0.432,0.955,0.522c0.052,0.02,0.104,0.039,0.159,0.066c0.057,0.03,0.21,0.194,0.311,0.302
			c0.233,0.25,0.522,0.561,0.939,0.833c0.443,0.289,0.937,0.435,1.467,0.435c0.765,0,1.379-0.305,1.827-0.528l0.253-0.124
			c0.585-0.284,1.32-0.642,1.922-1.222c1.184-1.142,1.092-2.433,0.994-3.043c0.945-0.414,1.419-1.178,1.429-2.284
			c0.001-0.051,0.007-0.107,0.011-0.166c0.017-0.212,0.037-0.474,0.015-0.76c0.105-0.061,0.209-0.133,0.31-0.219
			c0.424-0.362,0.611-0.795,0.723-1.054c0.004-0.01,0.009-0.02,0.013-0.03c0.055-0.062,0.111-0.12,0.165-0.178
			c0.183-0.194,0.39-0.414,0.6-0.711c0.026-0.036,0.103-0.118,0.165-0.184c0.16-0.17,0.36-0.383,0.546-0.672
			c0.279-0.435,0.379-0.844,0.432-1.132c0.373-0.262,0.939-0.731,1.092-1.532c0.103-0.544-0.019-1.101-0.343-1.572
			c-0.572-0.827-1.513-1.007-2.136-1.126c-0.073-0.014-0.17-0.033-0.245-0.049c-0.128-0.214-0.258-0.949-0.322-1.313
			c-0.008-0.047-0.016-0.093-0.025-0.139c0.061-0.177,0.14-0.426,0.17-0.733c0.002-0.02,0.004-0.039,0.005-0.057
			c0.298-0.191,0.733-0.498,0.995-1.028c0.471-0.953,0.161-2.09-0.77-2.829c-0.008-0.007-0.017-0.013-0.025-0.02
			c-0.021-0.059-0.043-0.118-0.066-0.179c-0.004-0.01-0.008-0.021-0.012-0.033c0.202-0.184,0.411-0.438,0.567-0.79
			c0.043-0.098,0.08-0.193,0.113-0.287c0.212-0.109,0.469-0.275,0.697-0.546c0.266-0.317,0.382-0.635,0.435-0.879
			c0.005-0.006,0.01-0.013,0.015-0.019c0.108-0.135,0.214-0.273,0.307-0.416c0.697-1.069,0.713-2.26,0.047-3.538
			c-0.004-0.022-0.007-0.043-0.011-0.065c-0.03-0.175-0.065-0.355-0.123-0.552c-0.001-0.004-0.002-0.007-0.003-0.011
			c0.115-0.169,0.228-0.377,0.305-0.629c0.157-0.509,0.116-1.006,0.086-1.369c-0.006-0.069-0.013-0.133-0.013-0.189l0-0.21
			c0.001-0.446,0.003-0.955-0.047-1.472c-0.009-0.099-0.021-0.209-0.027-0.325c0.464-0.13,1.097-0.402,1.542-1.101
			c1.126-1.768-0.127-3.421-0.662-4.127c-0.107-0.141-0.21-0.271-0.288-0.399c-0.076-0.124-0.147-0.304-0.229-0.513
			c-0.102-0.259-0.226-0.575-0.408-0.902c-0.208-0.373-0.387-0.797-0.576-1.245c-0.106-0.252-0.212-0.501-0.321-0.742
			c-0.229-0.506-0.476-0.983-0.714-1.443c-0.236-0.457-0.48-0.927-0.683-1.387c-0.235-0.533-0.911-1.839-2.111-2.469
			c-0.703-0.368-1.561-0.418-2.308-0.418l-0.269,0.001l-0.23,0.002c-1.102,0-1.842,0.333-2.531,0.686
			c-0.06-0.04-0.124-0.078-0.193-0.115c-0.003-0.729-0.01-1.458-0.017-2.171l-0.012-1.367c-0.001-0.145-0.005-0.295-0.009-0.448
			c-0.006-0.244-0.012-0.485-0.004-0.717c0.243-0.309,0.624-0.9,0.529-1.721c0.038-0.066,0.076-0.138,0.111-0.215
			c0.448-0.987,0.143-1.712-0.078-2.056c-0.37-0.574-1.001-0.903-1.733-0.903c-0.453,0-0.866,0.125-1.133,0.229
			c-0.918,0.359-1.734,1.071-2.296,2.005c-0.046,0.076-0.093,0.16-0.142,0.248c-0.009,0.016-0.019,0.035-0.03,0.054
			c-0.106,0.029-0.231,0.068-0.365,0.123c-0.128,0.053-0.245,0.103-0.357,0.151c-0.488,0.209-0.673,0.283-0.989,0.302
			c-0.318,0.019-0.644,0.047-0.958,0.075c-0.325,0.029-0.65,0.057-0.977,0.076c-0.303,0.017-0.603,0.074-0.895,0.133
			c-0.111-0.394-0.299-0.699-0.495-0.956c-0.005-0.023-0.009-0.046-0.014-0.068c-0.089-0.43-0.361-1.739-1.95-2.131
			c-0.758-0.187-1.585-0.255-2.248-0.273c0.048-0.189,0.072-0.396,0.065-0.62c-0.025-0.768-0.479-1.288-0.723-1.568l-0.025-0.029
			c-0.03-0.067-0.055-0.136-0.081-0.203c-0.104-0.263-0.245-0.622-0.485-0.972c-0.335-0.491-0.766-0.744-1.049-0.898
			c-0.096-0.278-0.257-0.697-0.612-1.081c-0.207-0.223-0.429-0.375-0.629-0.48c-0.017-0.043-0.036-0.086-0.057-0.13
			c-0.093-0.192-0.204-0.349-0.312-0.475c-0.005-0.099-0.015-0.206-0.035-0.32c-0.069-0.398-0.22-0.707-0.391-0.942
			c0.126-0.602,0.051-1.51-1.07-2.334c0.459-0.472,1.021-1.433,0.165-2.896l-0.038-0.066c-0.014-0.025-0.025-0.047-0.034-0.066
			c0.179-0.237,0.759-0.68,1.273-0.894c0.091-0.038,0.258-0.087,0.405-0.129c0.703-0.205,2.569-0.75,2.672-2.803
			c0.041-0.831-0.284-1.445-0.499-1.828c0.107-0.15,0.255-0.317,0.409-0.491c0.296-0.334,0.661-0.747,0.946-1.27
			c0.604-1.108,0.467-2.065,0.376-2.698c-0.014-0.095-0.026-0.182-0.036-0.263c0.584-0.263,1.006-0.541,1.459-0.947
			c0.146-0.131,0.427-0.277,0.698-0.419c0.231-0.12,0.466-0.245,0.685-0.379c0.812-0.498,1.735-0.974,2.906-1.5
			c0.156-0.07,0.254-0.097,0.493-0.108c0.801-0.037,1.284-0.223,1.878-0.482c0,0,0,0,0.001,0c0.006,0,0.049-0.007,0.135-0.007
			c0.138,0,0.278,0.012,0.414,0.022c0.226,0.017,0.458,0.033,0.682,0.033c0.339,0,0.646-0.033,0.937-0.1
			c0.698-0.162,1.148-0.557,1.417-0.794c0.047-0.042,0.093-0.084,0.144-0.122c0.114-0.086,0.233-0.166,0.348-0.244
			c0.118-0.08,0.236-0.161,0.351-0.244c0.083,0.008,0.165,0.011,0.247,0.011c0.142,0,0.271-0.011,0.386-0.026
			c0.286,0.314,0.743,0.789,1.462,0.99c0.189,0.052,0.382,0.078,0.577,0.078c0.02,0,0.04,0,0.059-0.001
			c0.069,0.026,0.145,0.051,0.229,0.073c0.202,0.053,0.411,0.08,0.62,0.08c1.254,0,2.24-0.963,2.244-2.192
			c0.005-1.274-0.944-2.081-1.511-2.563c-0.096-0.082-0.241-0.205-0.284-0.253c-0.051-0.062-0.105-0.144-0.165-0.23
			c-0.271-0.39-0.758-1.093-1.583-1.426c0.362-0.449,0.705-0.904,1.048-1.366c0.199-0.267,0.467-0.535,0.75-0.819
			c0.245-0.245,0.517-0.518,0.772-0.818c0.688-0.809,0.913-1.799,0.601-2.648c-0.325-0.882-1.068-1.271-1.425-1.457
			c-0.018-0.01-0.036-0.019-0.055-0.028c-0.201-0.256-0.649-0.794-1.601-0.946c-0.144-0.023-0.292-0.033-0.466-0.033
			c-0.013,0-0.025,0-0.038,0c-0.198-0.177-0.473-0.363-0.85-0.48c-0.146-0.045-0.293-0.075-0.45-0.092
			c-0.761-1.029-1.719-1.246-2.39-1.246c-0.107,0-0.218,0.005-0.334,0.016c-0.925,0.088-1.39,0.563-1.614,0.792
			c-0.018,0.018-0.036,0.039-0.06,0.06c-0.032,0.024-0.101,0.062-0.177,0.103c-0.079-0.056-0.165-0.11-0.259-0.159l-0.166-0.088
			c-0.657-0.35-1.56-0.83-2.604-0.83c-0.008,0-0.054,0.001-0.062,0.001c-0.897,0.022-1.528,0.361-1.93,1.034
			c-0.041,0.017-0.082,0.036-0.125,0.056c-0.308,0.149-0.526,0.327-0.68,0.461c-0.11,0.016-0.221,0.029-0.31,0.037
			c-0.255-0.125-0.704-0.335-1.296-0.335c-0.635,0.009-1.074,0.228-1.309,0.346c-0.021,0.01-0.042,0.021-0.064,0.032
			c-0.069,0.018-0.141,0.038-0.215,0.059c-0.079,0.022-0.184,0.052-0.278,0.075c-0.045-0.038-0.094-0.078-0.147-0.12
			c0.013-0.123,0.018-0.258,0.01-0.401c-0.022-0.384-0.123-0.68-0.183-0.856l-0.011-0.034c0-0.014-0.001-0.028-0.001-0.042
			c-0.01-0.398-0.028-1.128-0.571-1.779c-0.438-0.526-1.074-0.816-1.792-0.82c0.024-0.903-0.229-2.184-1.091-2.901
			c-0.706-0.588-1.464-0.601-1.871-0.608c-0.051-0.001-0.1-0.001-0.15-0.004c-0.04-0.002-0.094-0.008-0.165-0.027
			c-0.113-0.155-0.279-0.36-0.523-0.556c-0.426-0.342-0.884-0.467-1.219-0.533c-0.01-0.157-0.022-0.305-0.041-0.451
			c-0.154-1.15-0.747-1.766-1.18-2.216l-0.134-0.14l-0.104-0.112c-0.314-0.341-0.677-0.735-1.269-1.057
			c-0.017-0.009-0.035-0.019-0.052-0.028c-0.136-0.286-0.373-0.633-0.806-0.898c-0.317-0.195-0.614-0.275-0.818-0.317
			c-0.365-0.248-0.658-0.369-1.12-0.468c-0.1-0.074-0.207-0.148-0.336-0.223C81.786,42.389,81.378,42.274,80.965,42.274
			L80.965,42.274z"/>
	</g>
</g>
</svg>
