<svg id="Capa_1" data-name="Capa 1" xmlns="http://www.w3.org/2000/svg" viewBox="0 0 48.13 48.13"><defs><style>.cls-1{fill:#07b7a9;}.cls-2{fill:#fff;}</style></defs><circle class="cls-1" cx="24.06" cy="24.06" r="24.06"/><g id="KfvCN6"><path class="cls-2" d="M21.13,23.79V14.08a2.19,2.19,0,0,1,.05-.52,1.17,1.17,0,0,1,1.13-.89h3.51A1.19,1.19,0,0,1,27,13.88a1.69,1.69,0,0,1,0,.23v9.68h2.41a.55.55,0,0,1,.61.35.59.59,0,0,1-.19.66c-1.75,1.74-3.49,3.49-5.24,5.24a.67.67,0,0,1-1.05,0l-5.25-5.25a.58.58,0,0,1-.18-.66.56.56,0,0,1,.59-.34h2.43Z"/><path class="cls-2" d="M16.75,32.38H31.38v-.27c0-.77,0-1.54,0-2.31a1.46,1.46,0,0,1,1.44-1.32,1.51,1.51,0,0,1,1.56,1.22,2.09,2.09,0,0,1,0,.43v3.65a1.54,1.54,0,0,1-1.67,1.68H15.36a1.55,1.55,0,0,1-1.68-1.69c0-1.23,0-2.47,0-3.7a1.54,1.54,0,1,1,3.07,0c0,.68,0,1.35,0,2Z"/></g></svg>